<?xml version="1.0" encoding="utf-8"?>
<!-- Generator: Adobe Illustrator 25.2.0, SVG Export Plug-In . SVG Version: 6.00 Build 0)  -->
<svg version="1.1" id="Layer_1" xmlns="http://www.w3.org/2000/svg" xmlns:xlink="http://www.w3.org/1999/xlink" x="0px" y="0px"
	 viewBox="0 0 973.85 226.15" style="enable-background:new 0 0 973.85 226.15;" xml:space="preserve">
<style type="text/css">
	.st0{fill:#65D19A;}
</style>
<g id="Group_128" transform="translate(-473.415 -415.69)">
	<path id="Path_503" class="st0" d="M649.59,610.35c-2.57-1.44-4.83-3.37-6.65-5.68c-1.9-2.56-3.42-5.39-4.5-8.38
		c-1.47-4.25-2.15-8.74-2.02-13.23v-65.83c0.08-1.94-0.71-3.82-2.15-5.13c-1.33-1.25-3.09-1.93-4.92-1.92h-1.39
		c-1.82-0.01-3.58,0.67-4.92,1.92c-1.44,1.31-2.23,3.18-2.15,5.13v65.13c-0.13,6.22,0.73,12.42,2.56,18.36
		c1.43,4.55,3.51,8.86,6.17,12.81c1.97,3,4.53,5.57,7.52,7.55c1.99,1.39,4.31,2.22,6.73,2.4c2.14,0,4.24-0.6,6.05-1.73
		c1.84-1.06,2.94-3.07,2.84-5.19c0.05-1.32-0.24-2.62-0.84-3.8C651.36,611.78,650.55,610.95,649.59,610.35z"/>
	<path id="Path_504" class="st0" d="M746.31,556.97c-3.8-3.79-8.36-6.73-13.37-8.65c-6.14-2.3-12.66-3.41-19.22-3.26
		c-6.52-0.15-13.02,0.95-19.12,3.26c-5.02,1.95-9.57,4.93-13.37,8.74c-3.51,3.58-6.21,7.88-7.9,12.61
		c-1.72,4.83-2.59,9.92-2.57,15.04c-0.01,5.11,0.9,10.18,2.66,14.97c1.71,4.73,4.4,9.05,7.9,12.68c3.78,3.84,8.34,6.82,13.37,8.74
		c12.33,4.35,25.78,4.35,38.11,0c5.03-1.93,9.59-4.91,13.38-8.74c3.49-3.62,6.18-7.94,7.89-12.68c1.76-4.8,2.65-9.86,2.64-14.97
		c0.02-5.15-0.85-10.27-2.58-15.12C752.48,564.86,749.8,560.55,746.31,556.97z M739.52,594.24c-1.1,3.02-2.82,5.77-5.06,8.07
		c-2.41,2.45-5.31,4.37-8.52,5.61c-7.89,2.77-16.5,2.77-24.39,0c-3.21-1.24-6.11-3.16-8.52-5.61c-2.24-2.3-3.96-5.05-5.06-8.07
		c-1.11-3.06-1.68-6.3-1.67-9.56c-0.01-3.28,0.56-6.54,1.67-9.63c1.07-3.01,2.77-5.77,4.99-8.07c2.41-2.44,5.32-4.33,8.52-5.54
		c7.93-2.77,16.57-2.77,24.5,0c3.21,1.21,6.11,3.11,8.52,5.54c2.21,2.3,3.91,5.03,4.99,8.03c1.12,3.11,1.69,6.39,1.67,9.7
		C741.19,587.95,740.62,591.18,739.52,594.24L739.52,594.24z"/>
	<path id="Path_505" class="st0" d="M846.51,547.41h-0.84c-1.85,0-3.63,0.75-4.92,2.08c-1.39,1.29-2.17,3.1-2.15,4.99v38.22
		c-0.03,2.15-0.65,4.24-1.8,6.05c-1.26,2.05-2.87,3.86-4.78,5.33c-2.05,1.61-4.34,2.89-6.79,3.81c-2.45,0.95-5.06,1.44-7.69,1.44
		c-3.35,0.07-6.7-0.25-9.98-0.96c-2.35-0.49-4.56-1.51-6.45-2.98c-1.62-1.34-2.82-3.12-3.46-5.13c-0.75-2.45-1.1-5-1.04-7.56v-38.26
		c0.39-8.13-0.09-16.27-1.41-24.3c-0.84-5.7-2.77-11.18-5.69-16.14c-10.54-18.62-29.57-30.86-50.89-32.72
		c0.15-1.09,0.05-2.21-0.29-3.26c-12.78-40.29-55.8-62.59-96.1-49.81c-12.96,4.11-24.59,11.6-33.69,21.69l-0.18,0.2
		c-0.04,0.05-0.08,0.1-0.12,0.15c-34.31-6.5-67.4,16.04-73.91,50.35c-0.74,3.89-1.11,7.84-1.11,11.79
		c-4.62,0.7-9.13,1.97-13.43,3.79c-6.71,2.84-12.79,7-17.88,12.22c-5.09,5.25-9.13,11.41-11.92,18.17
		c-2.94,7.07-4.42,14.65-4.37,22.31c-0.1,7.81,1.54,15.55,4.8,22.65c3.05,6.58,7.36,12.5,12.68,17.43
		c10.75,9.83,24.79,15.29,39.36,15.31c4.8,0.01,9.59-0.34,14.34-1.04c4.49-0.65,8.92-1.69,13.24-3.11c4-1.31,7.85-3.03,11.5-5.13
		c3.38-1.94,6.46-4.37,9.13-7.21c1.52-1.51,2.41-3.54,2.49-5.68c-0.07-1.31-0.39-2.59-0.96-3.76c-0.53-1.09-1.35-2.02-2.35-2.69
		c-1.32-0.84-2.87-1.25-4.43-1.18c-1.92-0.01-3.76,0.74-5.13,2.08c-1.52,1.65-3.27,3.07-5.19,4.22c-2.51,1.56-5.15,2.88-7.9,3.95
		c-3.19,1.26-6.48,2.23-9.84,2.91c-3.67,0.75-7.41,1.12-11.16,1.11c-6.66,0.14-13.28-1.07-19.47-3.53
		c-5.24-2.13-10.02-5.26-14.06-9.22c-3.7-3.65-6.62-8.01-8.59-12.82c-1.9-4.54-2.89-9.41-2.91-14.34
		c-0.12-6.15,1.11-12.26,3.6-17.88c4.37-9.78,12.53-17.36,22.61-20.99c4.77-1.76,9.81-2.67,14.89-2.69
		c3.82-0.02,7.63,0.38,11.36,1.18c3.32,0.7,6.59,1.65,9.77,2.84c2.64,0.98,5.19,2.19,7.63,3.6c1.77,1.02,3.46,2.18,5.05,3.46
		c1.45,1.73,3.61,2.68,5.86,2.58c2.05,0.03,4.02-0.77,5.47-2.22c1.49-1.39,2.32-3.35,2.29-5.38c0.01-1.82-0.63-3.59-1.8-4.99
		c-1.96-1.7-4.05-3.25-6.25-4.64c-3.29-2.12-6.74-3.98-10.33-5.54c-4.34-1.91-8.84-3.44-13.45-4.57c-3.95-0.98-7.99-1.57-12.06-1.78
		c0.32-27.97,23.25-50.39,51.22-50.07c16.55,0.19,31.96,8.45,41.28,22.12c1.95,2.88,5.86,3.64,8.75,1.69
		c2.88-1.95,3.64-5.86,1.69-8.75c-0.01-0.02-0.02-0.03-0.04-0.05c-6.21-9.12-14.71-16.46-24.63-21.28
		c25.11-22.81,63.96-20.95,86.77,4.16c5.8,6.38,10.19,13.92,12.88,22.11c-6.37,0.99-12.54,2.98-18.29,5.88
		c-2.96,1.56-4.09,5.22-2.53,8.18c1.52,2.88,5.05,4.05,7.99,2.63c24.51-12.34,54.38-2.47,66.72,22.04
		c2.56,5.08,4.23,10.57,4.93,16.21c0.6,5.42,0.04,15.86,0.1,17.73l-1.04,38.25c-0.04,4.21,0.61,8.4,1.92,12.4
		c1.27,3.79,3.41,7.23,6.25,10.05c3.15,3.04,6.94,5.34,11.09,6.73c5.32,1.73,10.9,2.54,16.49,2.4c4.2,0.08,8.34-0.97,11.98-3.05
		c3.51-2.07,6.63-4.75,9.22-7.9v3.06c0.02,3.89,3.17,7.04,7.07,7.06h0.84c1.87,0.03,3.67-0.7,4.99-2.02
		c1.38-1.32,2.14-3.16,2.08-5.07v-61.91C853.53,550.59,850.39,547.45,846.51,547.41z"/>
	<path id="Path_506" class="st0" d="M954.04,510.14h-0.83c-3.9,0.01-7.05,3.17-7.07,7.06v36.87c-3.31-2.82-7.09-5.05-11.16-6.59
		c-4.32-1.63-8.9-2.44-13.51-2.4c-6.56-0.15-13.08,0.96-19.22,3.26c-5.01,1.91-9.57,4.86-13.37,8.65c-3.5,3.58-6.18,7.89-7.83,12.62
		c-1.72,4.85-2.58,9.96-2.56,15.11c-0.01,5.11,0.88,10.18,2.64,14.97c1.71,4.74,4.4,9.06,7.9,12.68c3.78,3.84,8.34,6.82,13.37,8.74
		c6.09,2.29,12.55,3.4,19.06,3.26c9.04,0.05,17.79-3.15,24.67-9.01v1.07c0,1.85,0.75,3.63,2.08,4.92c1.29,1.39,3.1,2.17,4.99,2.15
		h0.84c3.89-0.01,7.04-3.16,7.06-7.05v-99.22c0.05-1.91-0.7-3.74-2.08-5.06C957.69,510.85,955.9,510.12,954.04,510.14z
		 M947.49,590.19c-0.26,1.87-0.71,3.7-1.35,5.48c-2.21,4.24-5.54,7.79-9.63,10.25c-4.52,2.75-9.74,4.15-15.03,4.04
		c-4.16,0.1-8.3-0.61-12.2-2.08c-3.21-1.24-6.11-3.16-8.52-5.61c-2.23-2.31-3.96-5.06-5.06-8.07c-1.11-3.07-1.67-6.3-1.66-9.56
		c-0.02-3.31,0.54-6.59,1.66-9.7c1.08-3,2.78-5.73,4.99-8.03c2.41-2.44,5.32-4.33,8.52-5.54c3.92-1.47,8.08-2.17,12.27-2.08
		c5.29-0.11,10.51,1.29,15.03,4.04c4.09,2.47,7.43,6.01,9.63,10.25c0.27,1.02,0.55,2.13,0.84,3.33c0.18,1.02,0.37,2.24,0.55,3.68
		c0.19,1.49,0.28,3,0.27,4.5v0.04C947.81,586.81,947.71,588.51,947.49,590.19L947.49,590.19z"/>
	<path id="Path_507" class="st0" d="M1057.95,582.83c-6.13-3.87-13.26-5.88-20.51-5.77l-19.4-0.67c-1.42-0.01-2.83-0.15-4.23-0.42
		c-1.49-0.27-2.94-0.73-4.3-1.39c-1.26-0.59-2.4-1.41-3.36-2.4c-0.93-0.99-1.43-2.31-1.38-3.67c-0.03-1.57,0.56-3.1,1.66-4.22
		c1.2-1.22,2.64-2.19,4.22-2.84c1.85-0.78,3.78-1.31,5.77-1.6c2.02-0.31,4.06-0.47,6.1-0.48c4.77-0.12,9.52,0.44,14.13,1.66
		c3.35,0.99,6.64,2.19,9.84,3.61c0.74,0.37,1.46,0.71,2.15,1.04c0.72,0.33,1.5,0.49,2.29,0.48c1.87-0.01,3.69-0.67,5.13-1.87
		c1.57-1.26,2.45-3.19,2.35-5.2c-0.09-2.21-1.19-4.25-2.97-5.54c-2.34-1.86-4.96-3.33-7.76-4.36c-3.49-1.33-7.12-2.31-10.81-2.91
		c-3.97-0.69-7.99-1.04-12.01-1.04c-5.67-0.13-11.34,0.55-16.82,2.02c-3.91,1.06-7.57,2.86-10.81,5.29
		c-2.53,1.91-4.51,4.44-5.77,7.34c-1.09,2.62-1.65,5.42-1.67,8.25c-0.02,2.86,0.55,5.69,1.67,8.32c1.14,2.64,2.87,4.98,5.05,6.86
		c2.52,2.13,5.41,3.78,8.52,4.85c3.83,1.32,7.86,2,11.92,2.02l22.31,0.67c1.29,0.01,2.57,0.17,3.82,0.48
		c1.3,0.31,2.53,0.83,3.67,1.53c1.09,0.68,2.04,1.58,2.77,2.64c0.75,1.12,1.14,2.45,1.1,3.81c0.07,1.95-0.68,3.83-2.08,5.19
		c-1.5,1.41-3.27,2.52-5.19,3.26c-2.14,0.85-4.37,1.43-6.65,1.73c-2.09,0.3-4.2,0.46-6.31,0.48c-1.66,0-3.69-0.09-6.1-0.28
		c-2.68-0.22-5.34-0.62-7.97-1.18c-3.07-0.65-6.1-1.48-9.08-2.49c-3.26-1.12-6.42-2.53-9.42-4.23c-1.07-0.55-2.26-0.83-3.46-0.83
		c-1.3,0.05-2.58,0.37-3.74,0.96c-1.07,0.51-1.98,1.3-2.63,2.29c-0.81,1.31-1.2,2.83-1.11,4.37c0.13,2.74,1.58,5.25,3.88,6.73
		c3.06,2.22,6.47,3.91,10.09,4.99c4.56,1.43,9.25,2.45,13.99,3.05c5.15,0.69,10.33,1.04,15.52,1.04c5.38,0.11,10.74-0.54,15.94-1.92
		c3.95-1.06,7.67-2.85,10.96-5.29c2.71-2.03,4.88-4.69,6.3-7.76c1.34-2.96,2.03-6.17,2.02-9.42
		C1066.14,593.34,1063.26,586.86,1057.95,582.83z"/>
	<path id="Path_508" class="st0" d="M1161.2,510.14h-0.83c-3.9,0.02-7.05,3.17-7.07,7.06v36.86c-3.31-2.82-7.09-5.05-11.16-6.59
		c-4.32-1.63-8.9-2.44-13.51-2.4c-6.54-0.14-13.05,0.96-19.17,3.26c-5.01,1.91-9.57,4.86-13.37,8.65c-3.5,3.58-6.17,7.89-7.83,12.62
		c-1.73,4.84-2.6,9.95-2.59,15.09c-0.01,5.11,0.88,10.18,2.64,14.97c1.71,4.73,4.4,9.05,7.9,12.68c3.78,3.83,8.34,6.82,13.37,8.74
		c6.09,2.29,12.56,3.4,19.06,3.26c9.03,0.06,17.79-3.13,24.67-8.98v1.07c0,1.85,0.75,3.63,2.08,4.92c1.29,1.39,3.1,2.17,4.99,2.15
		h0.84c3.89-0.02,7.04-3.16,7.06-7.05v-99.22c0.05-1.91-0.7-3.74-2.08-5.06C1164.87,510.85,1163.07,510.12,1161.2,510.14z
		 M1154.96,585.1c0,1.7-0.11,3.39-0.32,5.08c-0.26,1.87-0.71,3.7-1.35,5.48c-2.21,4.24-5.54,7.79-9.63,10.25
		c-4.52,2.75-9.74,4.15-15.03,4.04c-4.16,0.1-8.3-0.61-12.2-2.08c-3.21-1.25-6.11-3.16-8.52-5.61c-2.24-2.3-3.96-5.05-5.05-8.07
		c-1.11-3.06-1.68-6.3-1.67-9.56c-0.02-3.31,0.55-6.59,1.67-9.7c1.08-3,2.78-5.74,4.99-8.03c2.41-2.44,5.32-4.33,8.52-5.54
		c3.92-1.47,8.08-2.17,12.27-2.08c5.29-0.11,10.51,1.29,15.03,4.04c4.09,2.47,7.43,6.01,9.63,10.25c0.27,1.02,0.55,2.13,0.84,3.33
		c0.18,1.02,0.37,2.24,0.55,3.68c0.19,1.49,0.28,3,0.27,4.5L1154.96,585.1z"/>
	<path id="Path_509" class="st0" d="M1261.61,553.72c-3.51-2.79-7.57-4.79-11.92-5.89c-4.78-1.22-9.69-1.83-14.62-1.8
		c-3.13,0.06-6.26,0.31-9.36,0.76c-3.84,0.51-7.62,1.37-11.3,2.57c-3.37,1.05-6.57,2.59-9.49,4.57c-2.4,1.43-3.89,4-3.95,6.79
		c-0.07,1.97,0.8,3.85,2.35,5.06c1.57,1.25,3.54,1.91,5.54,1.87c1.39-0.1,2.73-0.51,3.95-1.18c1.6-0.77,3.47-1.6,5.61-2.5
		c2.4-0.97,4.85-1.8,7.34-2.49c3.03-0.82,6.15-1.21,9.28-1.18c5.63-0.34,11.22,1.14,15.94,4.23c3.61,2.5,5.9,6.5,6.25,10.88h-34.78
		c-3.65-0.04-7.28,0.48-10.77,1.53c-3.09,0.91-5.95,2.47-8.39,4.57c-2.31,2.05-4.15,4.57-5.38,7.4c-1.33,3.13-1.99,6.51-1.92,9.91
		c-0.06,3.54,0.6,7.05,1.92,10.33c2.5,6.19,7.51,11.02,13.79,13.3c3.44,1.28,7.09,1.91,10.77,1.87c3.59,0.01,7.16-0.38,10.66-1.18
		c3.3-0.75,6.55-1.74,9.7-2.97c2.85-1.11,5.63-2.41,8.32-3.88c2.5-1.39,4.67-2.63,6.51-3.74v3.88c0.02,3.89,3.17,7.04,7.07,7.06
		h0.83c1.89,0.02,3.71-0.76,4.99-2.15c1.33-1.29,2.08-3.07,2.08-4.93v-35.33c0.17-5.67-0.85-11.3-2.98-16.56
		C1267.88,560.33,1265.12,556.62,1261.61,553.72z M1257.67,598.14l-7.21,4.16c-2.5,1.43-5.1,2.71-7.76,3.81
		c-2.94,1.21-5.97,2.16-9.08,2.84c-3.67,0.78-7.41,1.16-11.16,1.11h-0.29c-6.27-0.08-11.29-5.23-11.21-11.5
		c-0.25-2.93,1.14-5.75,3.61-7.34c2.37-1.47,5.11-2.24,7.9-2.22h35.2L1257.67,598.14z"/>
	<path id="Path_510" class="st0" d="M1333.16,610.35c-2.56-1.44-4.82-3.37-6.65-5.68c-1.9-2.56-3.42-5.39-4.51-8.38
		c-1.47-4.25-2.15-8.74-2.02-13.23v-65.83c0.08-1.94-0.71-3.82-2.15-5.13c-1.33-1.25-3.09-1.93-4.92-1.92h-1.38
		c-1.83-0.01-3.59,0.67-4.92,1.92c-1.44,1.31-2.22,3.18-2.15,5.13v65.13c-0.13,6.22,0.74,12.42,2.57,18.36
		c1.43,4.55,3.51,8.86,6.17,12.81c1.98,3,4.55,5.57,7.55,7.55c1.99,1.39,4.31,2.22,6.73,2.4c2.14,0.01,4.24-0.59,6.05-1.73
		c1.84-1.06,2.94-3.07,2.84-5.19c0.05-1.32-0.25-2.63-0.86-3.8C1334.93,611.78,1334.13,610.95,1333.16,610.35z"/>
	<path id="Path_511" class="st0" d="M1432.1,603.25c-1.49-1.29-3.41-1.97-5.38-1.92c-1.33,0.01-2.62,0.4-3.74,1.11
		c-1.38,0.82-3.06,1.72-5.05,2.69c-2.07,1.01-4.2,1.89-6.37,2.64c-2.33,0.8-4.72,1.44-7.14,1.92c-2.46,0.5-4.97,0.76-7.48,0.76
		c-6.14,0.14-12.19-1.52-17.39-4.78c-4.87-3.08-8.36-7.92-9.77-13.51h49.47c3.92,0.09,7.73-1.3,10.67-3.88
		c2.93-2.52,4.56-6.23,4.43-10.09c0.08-4.78-0.83-9.53-2.69-13.93c-1.72-4-4.32-7.56-7.62-10.4c-3.48-2.93-7.51-5.14-11.85-6.51
		c-4.97-1.57-10.16-2.34-15.38-2.28c-5.62-0.05-11.21,0.82-16.56,2.57c-4.94,1.6-9.51,4.17-13.45,7.55c-3.9,3.42-7,7.65-9.08,12.4
		c-4.44,10.98-4.44,23.25,0,34.22c2.08,4.75,5.18,8.99,9.08,12.41c3.94,3.38,8.51,5.95,13.45,7.55c5.34,1.74,10.94,2.61,16.56,2.56
		c3.32-0.08,6.63-0.38,9.91-0.9c4.23-0.61,8.4-1.55,12.47-2.84c3.77-1.13,7.36-2.79,10.67-4.93c2.68-1.46,4.4-4.22,4.5-7.27
		C1434.42,606.41,1433.59,604.53,1432.1,603.25z M1373.54,570.57c1.67-2.41,3.73-4.52,6.1-6.25c2.44-1.78,5.15-3.14,8.03-4.04
		c3.05-0.94,6.23-1.41,9.42-1.39c2.37,0.02,4.74,0.27,7.06,0.76c2.41,0.48,4.73,1.36,6.86,2.59c2.04,1.17,3.79,2.78,5.13,4.71
		c1.38,2.1,2.13,4.55,2.15,7.06c0.04,1.13-0.12,2.26-0.48,3.33c-0.32,0.83-1.17,1.24-2.57,1.24h-45.31
		C1370.63,575.72,1371.86,573.01,1373.54,570.57z"/>
</g>
</svg>
