<?xml version="1.0" encoding="utf-8"?>
<!-- Generator: Adobe Illustrator 25.2.0, SVG Export Plug-In . SVG Version: 6.00 Build 0)  -->
<svg version="1.1" id="Layer_1" xmlns="http://www.w3.org/2000/svg" xmlns:xlink="http://www.w3.org/1999/xlink" x="0px" y="0px"
	 viewBox="0 0 815.55 932.74" style="enable-background:new 0 0 815.55 932.74;" xml:space="preserve">
<style type="text/css">
	.st0{display:none;}
	.st1{display:inline;}
	.st2{fill:#6DE8AA;}
	.st3{enable-background:new    ;}
	.st4{fill:#0B2A42;}
</style>
<g id="laptop" class="st0">
	<g class="st1">
		<g id="OXVCRl.tif_5_">
			<g>
				<path class="st2" d="M192.5,544.22c0.02-1.03,0.68-1.97,1.66-2.24c2.26-0.63,7.49-11.93,9.1-13c3.32-2.22,4.73-9.65,8.06-11.83
					c3.14-2.06,5.25-4.88,8.25-6.94c0.88-0.6,1.52-2.01,1.48-3.08c-0.41-9.26-0.04-18.52-0.02-27.78
					c0.02-14.24,0.15-28.48,0.23-42.72c0.08-14.41,0.17-28.81,0.25-43.22c0.08-14.07,0.28-28.15,0.19-42.22
					c-0.03-5.1,1.54-9.52,4.21-13.69c3.66-5.72,9.04-8.94,15.42-10.7c0.57-0.16,1.54-0.27,2.13-0.27
					c29.35,0.16,58.7,0.34,88.05,0.51c25.96,0.15,51.92,0.27,77.88,0.42c26.24,0.15,52.47,0.32,78.71,0.48
					c4.34,0.03,8.67,0.07,13.01,0.03c3.66-0.04,7.04,0.85,10.46,2.22c6.06,2.43,9.84,6.99,12.57,12.53
					c1.37,2.77,1.79,5.92,1.78,9.05c-0.07,14.52-0.15,29.03-0.23,43.55c-0.08,14.35-0.16,28.7-0.24,43.05
					c-0.08,14.24-0.16,28.48-0.25,42.72c-0.05,9.2-0.09,18.39-0.17,27.59c-0.01,1.01,0.5,1.95,1.34,2.49
					c7.73,4.94,15.63,24.61,23.52,29.3c1.68,1,2.45,2.05,2.02,4.55c-0.57,3.33-0.77,6.74-0.13,10.06c0.96,4.97-1.57,8.04-4.41,10.87
					c-2.7,2.69-6.07,4.39-9.76,5.4c-0.67,0.18-1.8,0.3-2.49,0.3c-19.51-0.11-39.02-0.23-58.53-0.35
					c-20.51-0.12-41.02-0.22-61.53-0.33c-20.23-0.12-40.47-0.25-60.7-0.37c-20.07-0.12-40.13-0.21-60.2-0.33
					c-20.23-0.12-40.47-0.24-60.7-0.37c-7.81-0.05-15.61-0.04-23.42-0.18c-3.91-0.07-7.61-1.69-10.42-4.41
					c-1.26-1.22-2.64-2.36-3.71-3.73c-1.88-2.41-3.11-5.17-3.59-8.22C192.34,549.48,192.45,547.48,192.5,544.22z"/>
			</g>
		</g>
		<g id="OXVCRl.tif_1_">
			<g id="OXVCRl.tif_4_" class="st3">
				<g>
					<path class="st4" d="M191.42,540.58c2.81,0.43,7.8-10.42,9.8-11.78c4.33-2.94,5.92-11.42,10.11-14.55
						c2.48-1.85,5.19-3.33,7.9-4.81c0.68-0.37,0.97-0.88,0.93-1.65c-0.45-9.28-0.14-18.57-0.18-27.85
						c-0.06-14.38-0.02-28.76-0.01-43.14c0-14.55,0-29.1,0-43.64c0-14.21,0.12-28.43-0.05-42.64c-0.06-5.15,1.49-9.62,4.16-13.85
						c3.65-5.79,9.05-9.08,15.46-10.9c0.58-0.16,1.55-0.28,2.14-0.28c29.55,0,59.1,0,88.64,0c26.13,0,52.27-0.03,78.4-0.03
						c26.41,0,52.83,0.02,79.24,0.03c4.37,0,8.73,0.02,13.09-0.04c3.69-0.06,7.1,0.81,10.54,2.18c6.11,2.42,9.95,7,12.73,12.59
						c1.39,2.79,1.84,5.96,1.84,9.13c0.02,14.66,0.02,29.32,0.02,43.98c0,14.49,0,28.98,0,43.48c0,14.38,0,28.76,0,43.14
						c0,9.29,0.02,18.58-0.01,27.87c0,1.02,0.51,1.96,1.37,2.51c7.81,4.95,15.79,24.61,23.75,29.3c1.7,1,2.48,2.06,2.06,4.59
						c-0.55,3.37-0.74,6.81-0.07,10.16c1,5.01-1.53,8.13-4.38,11.01c-2.71,2.73-6.09,4.47-9.79,5.51c-0.68,0.19-1.81,0.32-2.51,0.32
						c-19.64,0-39.28-0.01-58.93-0.01c-20.65,0-41.3,0.02-61.95,0.02c-20.37,0-40.74-0.02-61.11-0.02c-20.2,0-40.4,0.02-60.61,0.02
						c-20.37,0-40.74-0.01-61.11-0.02c-7.83,0-15.67,0.05-23.5-0.05c-4.11-0.05-7.69-1.63-10.67-4.48
						c-1.25-1.19-2.61-2.31-3.67-3.66c-1.91-2.42-3.16-5.2-3.66-8.28v-14.16H191.42z M374.09,332.16c-7.44,0-14.88,0-22.33,0
						c-7.5,0-15,0.01-22.49,0.01c-14.44,0-28.87,0.01-43.31,0.01c-14.05,0-28.09-0.06-42.14,0.01c-4.35,0.02-8.47,1.06-11.56,4.41
						c-2.75,2.97-5.17,6.12-5.31,10.5c-0.05,1.51,0.04,3,0.04,4.49c0.01,2.68,0.01,5.35-0.22,8.04c-0.24,2.77-0.16,5.57,0.13,8.37
						c0.26,2.54,0.22,5.11-0.03,7.67c-0.25,2.6-0.19,6.87,0.03,9.48c0.22,2.72,0.2,5.45-0.05,8.17c-0.27,2.88-0.27,5.79,0,8.67
						c0.27,2.9,0.27,5.8,0.01,8.7c-0.28,2.98-0.24,5.98,0.01,8.97c0.24,2.76,0.24,5.52-0.02,8.28c-0.27,2.88-0.25,5.78,0,8.66
						c0.27,3.06,0.26,6.1-0.04,9.16c-0.26,2.71-0.22,5.44,0.03,8.16c0.28,3.01,0.28,6.01,0,9.01c-0.47,5,0.75,10.01-0.33,14.96
						c-1.15,5.25-1.49,10.77,0.28,15.85c0.4,1.15,0.2,2.34,0.1,3.51c-0.28,3.29-0.35,6.58,0.12,9.87c0.13,0.87,0.47,1.34,1.37,1.33
						c4.63-0.06,9.24,0.85,13.86,0.15c2.72-0.42,5.48-0.32,8.22-0.01c3.21,0.36,6.47,0.33,9.73-0.01c2.55-0.26,5.13-0.21,7.71,0.04
						c2.75,0.27,5.52,0.38,8.26,0.08c3.16-0.35,6.32-0.36,9.48-0.08c2.85,0.25,5.72,0.33,8.57,0.04c3-0.3,6-0.32,9.01-0.03
						c2.93,0.28,5.89,0.26,8.82,0c2.81-0.25,5.61-0.25,8.42,0.01c2.84,0.27,5.7,0.27,8.54,0.01c2.97-0.28,5.93-0.28,8.9-0.01
						c2.88,0.26,5.79,0.26,8.68-0.01c2.9-0.27,5.8-0.27,8.7,0c2.89,0.27,5.8,0.27,8.68,0.01c2.97-0.27,5.93-0.27,8.9,0.01
						c2.93,0.28,5.89,0.26,8.83,0.01c3.06-0.27,6.1-0.25,9.17,0.05c2.71,0.26,5.44,0.19,8.16-0.07c2.88-0.27,5.77-0.26,8.66,0
						c2.73,0.25,5.47,0.34,8.2,0.05c2.99-0.31,5.97-0.33,8.95-0.05c2.88,0.27,5.78,0.28,8.65,0.01c3.06-0.28,6.11-0.27,9.16,0.03
						c2.74,0.27,5.51,0.24,8.25-0.03c3.18-0.31,6.37-0.3,9.55-0.05c3.05,0.24,6.11,0.29,9.15,0.02c2.86-0.26,5.73-0.26,8.59,0.01
						c2.99,0.29,6.01,0.25,9-0.02c2.8-0.25,5.61-0.26,8.41,0.02c2.85,0.28,5.71,0.32,8.54,0.03c2.69-0.28,5.38-0.32,8.04-0.08
						c1.96,0.18,3.91,0.15,5.86,0.23c1.31,0.05,1.9-0.56,1.73-1.82c-0.64-4.69,0.22-9.39-0.02-14.07
						c-0.29-5.88,0.02-11.75,0.01-17.62c-0.01-4.52-0.06-11.92-0.04-16.44c0.03-6.69-0.04-13.38,0.02-20.06
						c0.03-3.35-0.43-6.7-0.13-10.05c0.27-3.02,0.29-6.05,0.08-9.05c-0.18-2.58-0.29-5.15-0.11-7.71c0.2-2.74,0.31-5.48,0.16-8.21
						c-0.22-4.08-0.02-8.15-0.03-12.23c-0.01-7.43-0.17-14.86,0.06-22.29c0.01-0.45,0-0.9-0.05-1.35c-0.29-3.07-0.28-6.13-0.06-9.2
						c0.35-5.09,0.27-10.17-1.07-15.12c-1.88-6.93-9.11-11.33-15.38-11.34c-17.07-0.05-34.13-0.04-51.2-0.05
						C426.02,332.16,400.05,332.17,374.09,332.16z M373.24,547.3L373.24,547.3c-5.99,0.01-11.97,0.01-17.96,0.01
						c-20.26,0-40.51,0-60.77,0c-20.37,0-40.74,0-61.11,0c-11.25,0-22.49,0.03-33.74-0.01c-1.57-0.01-2.06,0.62-1.76,2.37
						c0.19,1.1,0.24,2.2,0.22,3.32c-0.06,2.74,1.03,5.03,2.67,7.03c2.74,3.34,6.5,4.59,10.66,4.68c2.62,0.05,5.25-0.25,7.87-0.24
						c3.69,0.01,7.37,0.22,11.06,0.25c2.96,0.03,5.91-0.43,8.88-0.27c2.9,0.16,5.8,0.37,8.71,0.29c2.9-0.08,5.8-0.45,8.71-0.29
						c2.85,0.15,5.69,0.36,8.54,0.3s5.69-0.42,8.54-0.31c2.74,0.1,5.46,0.43,8.21,0.31c3.07-0.13,6.14-0.23,9.22-0.28
						c2.91-0.05,5.8,0.43,8.71,0.28c2.73-0.13,5.47-0.27,8.21-0.27c2.37,0,4.74,0.26,7.1,0.25c5.96-0.03,11.93-0.29,17.89-0.02
						c2.89,0.13,5.79-0.23,8.69-0.22c3.02,0,6.04,0.31,9.05,0.23c5.62-0.15,11.23-0.27,16.85-0.02c3.31,0.15,6.64-0.22,9.96-0.22
						c3.18,0,6.37,0.24,9.55,0.24c2.96,0,5.92-0.24,8.88-0.24c2.9,0,5.8,0.37,8.71,0.27c2.9-0.1,5.8-0.46,8.71-0.29
						c2.9,0.16,5.8,0.37,8.71,0.29c2.96-0.09,5.91-0.47,8.88-0.28c3.28,0.21,6.57,0.45,9.86,0.2c2.71-0.2,5.42-0.32,8.13-0.14
						c2.83,0.19,5.65,0.23,8.48,0.23c3.08,0,6.13-0.47,9.22-0.29c3.63,0.21,7.27,0.5,10.92,0.17c2.21-0.2,4.44-0.31,6.65-0.16
						c3.02,0.2,6.04,0.41,9.07,0.27c3.14-0.15,6.28-0.47,9.42-0.18c2.44,0.22,4.89,0.31,7.33,0.16c4.86-0.29,9.71-0.18,14.57-0.01
						c4.07,0.14,8.16-0.18,12.24-0.26c1.81-0.04,3.39-0.76,4.87-1.64c4.83-2.88,6.73-7.37,6.78-12.8c0.02-2.68,0-2.68-2.66-2.68
						c-16.68,0.01-33.35,0.02-50.03,0.02c-20.7,0-41.41-0.01-62.11-0.01C413.64,547.3,393.44,547.3,373.24,547.3z"/>
					<path class="st4" d="M373.02,501.77c-18.69,0-37.38,0-56.07,0c-24.17,0-48.35,0-72.52,0c-1.34,0-2.69,0.05-4.03,0.02
						c-1.77-0.04-2.44-0.67-2.13-2.37c0.62-3.33,0.81-6.71,0.32-9.99c-0.41-2.8-0.52-5.6-0.19-8.31c0.34-2.74,0.29-5.45,0.3-8.18
						c0.01-1.82-0.46-3.61-0.53-5.46c-0.12-2.92,0.77-5.74,0.58-8.64c-0.21-3.31-0.41-6.63-0.45-9.94c-0.02-1.83,0.3-3.66,0.44-5.49
						c0.32-4.36-0.84-8.69-0.42-13.03c0.28-2.95,0.49-5.88,0.41-8.84c-0.07-2.38-0.28-4.75-0.47-7.12
						c-0.22-2.69,0.74-5.29,0.52-7.99c-0.26-3.19-0.23-6.41-0.54-9.59c-0.18-1.84,0.44-3.52,0.55-5.29
						c0.26-4.36-0.71-8.66-0.55-13.02c0.06-1.63,0.49-3.17,0.56-4.8c0.2-4.47-0.97-8.89-0.43-13.33c0.29-2.44,0.43-4.88,0.38-7.32
						c-0.04-1.66-0.25-3.32-0.29-4.98c-0.03-1.38,0.63-2.34,2.13-2.13c5.64,0.78,11.29-0.34,16.91,0.01c4.14,0.26,8.25,0.27,12.39,0
						c2.55-0.17,5.13-0.02,7.7,0.17c2.89,0.22,5.8,0.17,8.71-0.11c2.72-0.26,5.47-0.21,8.21,0.04c2.96,0.27,5.92,0.25,8.88-0.01
						c2.79-0.25,5.59-0.24,8.38-0.01c2.96,0.25,5.91,0.24,8.87,0c2.79-0.23,5.59-0.23,8.38,0.01c2.96,0.26,5.92,0.26,8.88,0.01
						c2.85-0.24,5.7-0.26,8.54,0c2.85,0.26,5.7,0.27,8.55,0.05c3.02-0.24,6.02-0.25,9.04,0c2.9,0.24,5.82,0.24,8.72,0
						c3.02-0.25,6.02-0.25,9.04-0.01c2.84,0.22,5.7,0.22,8.55-0.04s5.7-0.25,8.54-0.01c2.96,0.25,5.92,0.25,8.88,0
						c2.85-0.24,5.7-0.24,8.54,0c2.9,0.24,5.8,0.25,8.71-0.01c2.79-0.24,5.59-0.26,8.38,0c2.85,0.27,5.7,0.27,8.54,0.06
						c3.19-0.24,6.35-0.21,9.54,0c3.29,0.21,6.59,0.24,9.89-0.08c2.62-0.25,5.25-0.23,7.88-0.01c3.13,0.27,6.24,0.25,9.37-0.01
						c3.4-0.28,6.81,0.05,10.22,0.14c4.35,0.12,8.71-0.19,13.07-0.23c1.5-0.02,3.01,0.2,4.51,0.31c0.97,0.07,1.36,0.64,1.37,1.56
						c0.01,1.34,0.05,2.69,0.04,4.03c-0.01,37.49-0.02,74.97-0.03,112.46c0,11.58,0,23.16,0,34.75c0,2.57-0.11,2.7-2.62,2.7
						c-21.21,0.01-42.42,0-63.62,0.01c-21.94,0-43.87,0.02-65.81,0.03c-0.9,0-1.79,0-2.69,0
						C373.02,501.79,373.02,501.78,373.02,501.77z"/>
					<path class="st4" d="M378.15,339.51c-0.02,2.57-2.59,5.47-4.78,5.38c-2.79-0.12-5.67-2.91-5.67-5.47
						c0.01-2.32,2.6-4.88,4.93-4.86C375.65,334.58,378.17,336.84,378.15,339.51z"/>
				</g>
			</g>
		</g>
	</g>
</g>
<g id="Layer_2_1_">
</g>
<g>
	<path class="st2" d="M806.49,238.83c-3.09,2.58-6.97,3.47-10.61,4.83c-10.27,3.83-20.8,6.75-31.64,8.42
		c-10.27,1.58-20.59,2.68-31.01,2c-17.1-1.11-33.61-4.85-49.46-11.38c-7.09-2.92-14.11-6.02-20.75-9.88
		c-1.1-0.64-2.19-1.35-3.13-2.2c-1.38-1.23-1.1-2.53,0.6-3.33c3.35-1.57,6.98-2.27,10.52-3.19c6.87-1.78,13.8-3.33,20.85-4.3
		c0.87-0.12,1.76-0.11,2.63-0.23c3.41-0.47,6.22-2.02,8.22-4.85c6.68-9.47,16.22-13.23,27.37-13.84c6.3-0.34,12.47,0.3,18.26,2.98
		c6.42,2.97,11.96,7.04,15.65,13.27c1.52,2.56,1.13,3.93-1.54,5.09c-3.98,1.73-8.13,2.75-12.46,3.24
		c-5.25,0.59-10.51,0.64-15.77,0.38c-8.37-0.4-16.42-2.26-24.15-5.5c-1.18-0.5-2.37-0.95-3.64-1.12c-0.58-0.08-1.17,0.03-1.44,0.62
		c-0.3,0.67,0.23,1.03,0.68,1.35c1.44,1.03,3.05,1.73,4.71,2.34c7.68,2.81,15.53,4.74,23.73,5.38c9.53,0.75,18.79-0.15,27.8-3.42
		c0.3-0.11,0.62-0.17,0.9-0.33c3.26-1.86,6.53-1.81,10.13-0.76c10.14,2.93,20.14,6.21,29.74,10.62c1.38,0.63,2.68,1.38,3.82,2.38
		C806.49,237.87,806.49,238.35,806.49,238.83z M745.74,248.42c6.87,0.05,13.72,0.09,20.56-0.89c9.6-1.38,18.94-3.7,28.1-6.83
		c1.16-0.4,2.11-1.12,3.06-1.85c0.27-0.21,0.42-0.51,0.37-0.83c-0.07-0.48-0.48-0.58-0.88-0.64c-1.15-0.16-2.22,0.16-3.28,0.54
		c-15.86,5.82-32.34,7.86-49.12,8.02c-1.67,0.02-3.34-0.27-5.01-0.27c-5.28,0.01-10.53-0.49-15.75-1.17
		c-11.66-1.53-23.05-4.22-34.23-7.89c-5.78-1.89-11.36-4.27-17.03-6.42c-0.83-0.31-1.64-0.65-2.55-0.46
		c-0.75,0.16-0.87,0.66-0.57,1.25c0.3,0.59,0.89,0.9,1.47,1.18c1.79,0.88,3.54,1.86,5.39,2.61c9.77,3.98,19.77,7.29,30.07,9.62
		c9.83,2.22,19.75,3.77,29.84,4.02C739.35,248.49,742.55,248.42,745.74,248.42z M716.8,214.34c-0.08,0.01,0.24,0.01,0.55-0.05
		c3.11-0.67,5.42-2.58,7.41-4.9c0.86-1.01,0.72-2.24,0.01-3.34c-0.69-1.07-1.95-1.61-3.35-1.19c-2.75,0.82-5.44,1.8-7.76,3.55
		c-2.44,1.84-2.13,4.31,0.66,5.53C714.99,214.23,715.67,214.39,716.8,214.34z M786.02,236.92c-0.02-1.02-0.9-1.16-1.61-1.45
		c-5.3-2.19-10.59-4.38-15.91-6.53c-0.8-0.32-1.94-1.25-2.49,0.04c-0.64,1.49,0.96,1.56,1.79,1.91c5.21,2.19,10.45,4.32,15.68,6.46
		c0.51,0.21,0.99,0.54,1.58,0.49C785.61,237.8,785.92,237.5,786.02,236.92z M790.69,234.59c-0.05-0.77-0.71-0.92-1.31-1.16
		c-5.56-2.22-11.12-4.44-16.69-6.65c-0.72-0.29-1.58-0.84-2.05,0.23c-0.47,1.06,0.51,1.33,1.21,1.68c0.14,0.07,0.3,0.11,0.45,0.17
		c5.34,2.13,10.68,4.26,16.02,6.38c0.44,0.18,0.9,0.38,1.36,0.42C790.36,235.72,790.69,235.3,790.69,234.59z M770.39,240.16
		c-0.1-0.9-0.83-1.15-1.43-1.51c-3.55-2.15-7.11-4.29-10.66-6.43c-0.34-0.21-0.68-0.41-1.04-0.59c-0.55-0.27-1.12-0.32-1.5,0.23
		c-0.39,0.56-0.13,1.07,0.36,1.46c0.31,0.24,0.66,0.45,1,0.65c3.56,2.14,7.11,4.29,10.67,6.43c0.41,0.25,0.82,0.53,1.27,0.67
		C769.82,241.29,770.24,240.86,770.39,240.16z"/>
	<path class="st2" d="M550.12,19.65c0.46-0.11,0.95,0.53,1.33,0.07c2.08-2.48,5.03-3.42,7.89-4.53c1.28,0,2.56,0,3.84,0
		c0.18,0.3,0.47,0.39,0.79,0.46c6.02,1.37,9.52,5.17,10.66,11.17c0.18,0.97,0.51,1.51,1.47,1.89c6.19,2.46,8.35,11.12,2.86,16.18
		c-0.02-4.96-2.02-8.78-6.54-11.05c-0.98-0.49-1.03-1.27-1.23-2.11c-2.29-9.75-13.1-14.34-21.42-9.87c-0.4,0.21-0.8,0.69-1.44,0.34
		C548.82,21.18,550.12,20.86,550.12,19.65z M571.67,32.64c1.78-0.69,2.07-2.01,2.77-2.96c0.14-0.18,0.13-0.45-0.14-0.59
		c-0.23-0.12-0.48-0.1-0.62,0.1C572.99,30.11,572.24,31,571.67,32.64z"/>
	<path class="st2" d="M18.49,506.64c0.29,0.54,0.12,1.1,0.01,1.64c-1.87,9.32,1.31,16.98,7.8,23.5c4.16,4.18,9.11,7.27,14.4,9.81
		c10.82,5.2,22.33,8.14,34.1,10.14c4.48,0.76,8.98,1.37,13.53,2.06c-0.48,15.36,6.63,26.99,17.79,36.59
		c9.53,8.2,20.63,13.63,32.34,17.87c12.43,4.51,25.27,7.4,38.34,9.28c7.67,1.11,15.37,1.99,23.11,2.34c1.2,0.06,1.81,0.45,2.18,1.67
		c5.28,17.57,15.96,31.5,29.55,43.41c14.97,13.12,32.17,22.49,50.6,29.72c17.01,6.68,34.62,11.17,52.66,14.03
		c10.82,1.71,21.69,2.85,32.63,3.43c11.03,0.59,22.06,0.67,33.08,0.17c24.36-1.1,48.26-4.99,71.55-12.34
		c7.47-2.36,14.8-5.09,21.95-8.29c1.49-0.67,2.64-0.54,4.03,0.07c25.35,11.07,51.63,19.11,78.82,24.19
		c11.55,2.16,23.17,3.77,34.87,4.79c12.67,1.1,25.36,1.6,38.07,1.2c20.98-0.66,41.74-2.9,61.95-8.93
		c13.56-4.05,26.41-9.62,37.82-18.16c7.51-5.62,13.86-12.29,18.58-20.45c0.19-0.33,0.5-0.6,0.76-0.9c0.41,0.46,0.38,1.03,0.38,1.59
		c0,3.68,0.16,7.37-0.04,11.03c-0.26,4.86-0.97,9.67-2.47,14.35c-3,9.35-8.3,17.22-15.28,24.03c-8.13,7.92-17.7,13.64-28.04,18.1
		c-12.82,5.54-26.23,9.04-40.01,11.23c-9.23,1.47-18.5,2.41-27.83,2.96c-11.35,0.68-22.7,0.62-34.03,0.2
		c-9.56-0.36-19.09-1.36-28.59-2.6c-18.08-2.37-35.86-6.11-53.36-11.17c-14.52-4.19-28.73-9.25-42.61-15.25
		c-1.6-0.69-3.16-1.98-4.86-1.84c-1.59,0.13-3.1,1.19-4.64,1.85c-14.2,6.12-28.94,10.55-44.04,13.77
		c-7.18,1.53-14.41,2.79-21.69,3.72c-5.78,0.74-11.58,1.27-17.39,1.69c-10.13,0.73-20.27,1.08-30.41,0.75
		c-6.93-0.22-13.87-0.54-20.79-1.19c-6.91-0.65-13.8-1.44-20.66-2.5c-12.32-1.9-24.45-4.64-36.38-8.25
		c-13.58-4.11-26.65-9.44-39.11-16.21c-13.14-7.14-25.21-15.75-35.5-26.67c-8.76-9.29-15.68-19.76-19.75-31.96
		c-0.48-1.44-0.88-2.9-1.28-4.37c-0.23-0.87-0.65-1.3-1.64-1.36c-4.46-0.27-8.92-0.56-13.37-0.99c-6.27-0.6-12.52-1.47-18.72-2.56
		c-8.89-1.57-17.66-3.64-26.25-6.44c-12.39-4.05-24.15-9.33-34.45-17.46c-7.13-5.63-12.95-12.34-16.21-20.99
		c-1.51-3.99-2.37-8.11-2.35-12.4c0-0.96,0.01-1.92,0-2.88c-0.01-2.14,0.29-2.31-2.24-2.6c-12.86-1.49-25.59-3.66-37.85-8.03
		c-6.96-2.48-13.65-5.5-19.47-10.14c-4.83-3.85-8.83-8.36-10.25-14.63c-0.39-1.71-0.66-3.45-0.66-5.21c0-12.4-0.03-24.79,0.03-37.19
		C17.23,511.42,17.38,508.93,18.49,506.64z M76.39,569.74c0-3.59,0.02-7.18-0.01-10.77c-0.01-0.89,0.34-2.04-0.98-2.36
		c-0.83-0.21-1.16,0.47-1.16,2.39c-0.01,7.1,0,14.19,0,21.29c0,0.4,0,0.8,0.02,1.2c0.02,0.63,0.31,1.12,0.95,1.18
		c0.81,0.07,1.11-0.48,1.16-1.2c0.03-0.48,0.02-0.96,0.02-1.43C76.39,576.6,76.39,573.17,76.39,569.74z M467.38,717.55
		c0,3.43,0,6.86,0,10.29c0,0.56-0.01,1.12,0.04,1.67c0.06,0.62,0.38,1.09,1.05,1.06c0.52-0.02,0.86-0.43,0.98-0.92
		c0.09-0.38,0.08-0.79,0.08-1.19c0-7.34,0-14.67,0-22.01c0-0.88,0.06-2.02-1.13-1.98c-1.22,0.04-1,1.23-1,2.07
		C467.37,710.22,467.38,713.89,467.38,717.55z M198.28,638.83c0-3.44,0-6.87,0-10.31c0-0.56,0.02-1.12-0.04-1.68
		c-0.06-0.62-0.41-1.08-1.08-1.02c-0.53,0.04-0.83,0.45-0.89,0.98c-0.04,0.4-0.04,0.8-0.04,1.2c0,7.27-0.01,14.54,0.01,21.81
		c0,0.82-0.28,2.04,0.99,2.06c1.29,0.02,1.02-1.19,1.03-2.02C198.29,646.19,198.28,642.51,198.28,638.83z M189.64,637.14
		c0-3.5,0.01-7.01,0-10.51c-0.01-1.87-0.36-2.58-1.19-2.38c-1.35,0.32-0.94,1.49-0.94,2.37c-0.03,7.09-0.02,14.18-0.02,21.26
		c0,0.4-0.02,0.8,0.02,1.19c0.06,0.7,0.37,1.27,1.17,1.19c0.64-0.06,0.93-0.56,0.95-1.19c0.02-0.48,0.02-0.96,0.02-1.43
		C189.64,644.15,189.64,640.64,189.64,637.14z M85.03,571.34c0-2.24,0-4.48,0-6.71c0-1.68,0-3.36-0.01-5.04
		c0-0.7-0.23-1.34-1.04-1.33c-0.77,0.02-1.06,0.61-1.09,1.33c-0.01,0.24-0.01,0.48-0.01,0.72c0,7.27-0.01,14.55,0.01,21.82
		c0,0.92-0.19,2.21,1.21,2.13c1.21-0.07,0.92-1.3,0.92-2.13C85.04,578.53,85.03,574.94,85.03,571.34z M723.94,725.22
		c0,3.75-0.03,7.49,0.02,11.24c0.01,0.86-0.48,2.25,0.91,2.32c1.44,0.07,1.04-1.32,1.04-2.18c0.03-7.65,0.02-15.3,0.01-22.96
		c0-0.48-0.01-0.96-0.1-1.42c-0.1-0.57-0.57-0.73-1.08-0.68c-0.44,0.04-0.73,0.32-0.76,0.77c-0.04,0.56-0.05,1.11-0.05,1.67
		C723.94,717.73,723.94,721.48,723.94,725.22z M743.69,714.15c0,2.72-0.03,5.44,0.01,8.15c0.01,0.96-0.39,2.43,1.17,2.38
		c1.37-0.04,0.95-1.44,0.95-2.32c0.03-5.52,0.02-11.03,0.01-16.55c0-0.48,0-0.96-0.07-1.43c-0.08-0.52-0.42-0.9-0.96-0.9
		c-0.52,0-0.92,0.33-1.02,0.85c-0.1,0.54-0.1,1.11-0.1,1.67C743.68,708.71,743.69,711.43,743.69,714.15z M489.35,710.14
		c0-2.95,0-5.9,0-8.86c0-1.04,0-2.07-0.03-3.11c-0.01-0.43-0.25-0.78-0.68-0.88c-0.55-0.13-0.96,0.18-1.11,0.66
		c-0.14,0.44-0.17,0.94-0.17,1.41c-0.01,7.34-0.01,14.68,0,22.02c0,0.32,0,0.64,0.05,0.95c0.09,0.63,0.45,1.06,1.1,1
		c0.52-0.05,0.81-0.45,0.82-1c0.01-0.56,0.02-1.12,0.02-1.67C489.35,717.16,489.35,713.65,489.35,710.14z M53.13,564.46
		c0-3.51,0-7.02,0-10.52c0-0.56,0.02-1.12-0.03-1.67c-0.05-0.52-0.34-0.91-0.9-0.91c-0.55,0-0.9,0.35-0.98,0.86
		c-0.09,0.55-0.07,1.11-0.07,1.67c0,7.02,0,14.03,0,21.05c0,0.56-0.01,1.12,0.07,1.67c0.08,0.53,0.48,0.83,1.02,0.78
		c0.42-0.04,0.77-0.28,0.82-0.73c0.07-0.55,0.08-1.11,0.08-1.67C53.13,571.48,53.13,567.97,53.13,564.46z M66.01,568.29
		C66.01,568.29,66.01,568.29,66.01,568.29c-0.01-3.91,0-7.82-0.01-11.73c0-0.67-0.12-1.34-0.96-1.39c-0.89-0.06-0.99,0.62-1.02,1.29
		c-0.02,0.4-0.01,0.8-0.01,1.2c0,7.02,0,14.05,0,21.07c0,0.48,0.01,0.96,0.02,1.44c0.02,0.66,0.36,1.06,1.03,1.02
		c0.52-0.04,0.88-0.35,0.91-0.92c0.03-0.56,0.03-1.12,0.03-1.67C66.02,575.15,66.01,571.72,66.01,568.29z M449.52,722.67
		c0-3.52,0-7.03,0-10.55c0-0.56,0-1.12-0.08-1.67c-0.08-0.53-0.43-0.85-1-0.8c-0.43,0.04-0.77,0.28-0.83,0.72
		c-0.07,0.55-0.09,1.11-0.09,1.67c-0.01,7.03,0,14.06,0,21.09c0,0.48-0.01,0.96,0.02,1.44c0.04,0.65,0.38,1.06,1.06,1.02
		c0.57-0.03,0.84-0.43,0.88-0.95c0.04-0.56,0.03-1.12,0.03-1.68C449.52,729.54,449.52,726.1,449.52,722.67z M478.79,715.25
		c0-3.74,0.01-7.49-0.01-11.23c0-0.75,0.23-1.82-0.94-1.82c-1.09,0-1.03,0.99-1.04,1.79c0,0.24,0,0.48,0,0.72
		c0,7.01,0,14.02,0,21.03c0,0.48-0.01,0.96,0.05,1.43c0.07,0.62,0.41,1.07,1.08,1.02c0.54-0.05,0.82-0.45,0.84-0.98
		c0.02-0.56,0.02-1.11,0.03-1.67C478.79,722.1,478.79,718.67,478.79,715.25z M485.44,713.21c0-3.59,0.02-7.17-0.01-10.76
		c-0.01-0.87,0.39-2.24-1.09-2.15c-1.18,0.07-0.88,1.32-0.88,2.14c-0.02,7.25-0.01,14.5-0.01,21.76c0,0.47,0.01,0.96,0.11,1.42
		c0.09,0.41,0.43,0.65,0.88,0.66c0.45,0.01,0.8-0.26,0.88-0.65c0.12-0.54,0.11-1.1,0.11-1.66
		C485.44,720.38,485.44,716.8,485.44,713.21z M195.11,638.1c0-3.6,0.02-7.19-0.02-10.79c-0.01-0.78,0.46-2.04-0.85-2.13
		c-1.53-0.1-1.11,1.27-1.11,2.12c-0.03,7.19-0.02,14.39-0.01,21.58c0,0.48,0.01,0.96,0.09,1.43c0.09,0.55,0.48,0.81,1.03,0.75
		c0.43-0.04,0.75-0.29,0.79-0.75c0.05-0.55,0.07-1.11,0.07-1.67C195.11,645.13,195.11,641.62,195.11,638.1z M79.86,570.45
		c0,3.52,0,7.03,0,10.55c0,0.56,0.02,1.12,0.07,1.67c0.04,0.45,0.35,0.71,0.79,0.75c0.53,0.04,0.97-0.16,1.05-0.73
		c0.08-0.55,0.08-1.11,0.08-1.67c0-7.03,0-14.06,0-21.1c0-0.56,0-1.12-0.07-1.67c-0.07-0.56-0.49-0.8-1.03-0.76
		c-0.44,0.03-0.76,0.28-0.81,0.73c-0.06,0.55-0.08,1.11-0.08,1.67C79.85,563.42,79.86,566.94,79.86,570.45z M179.27,635.79
		c0-3.52,0-7.03,0-10.55c0-0.56-0.01-1.12-0.06-1.67c-0.04-0.45-0.33-0.73-0.77-0.78c-0.53-0.06-0.96,0.16-1.06,0.72
		c-0.09,0.47-0.1,0.95-0.1,1.43c-0.01,7.19,0,14.38,0,21.58c0,0.48,0.01,0.96,0.07,1.43c0.07,0.57,0.46,0.81,1.01,0.77
		c0.44-0.03,0.77-0.25,0.83-0.7c0.07-0.55,0.08-1.11,0.08-1.67C179.27,642.82,179.27,639.31,179.27,635.79z M166.38,632
		c0-3.58,0.03-7.17-0.02-10.75c-0.01-0.83,0.5-2.25-0.99-2.19c-1.36,0.05-0.97,1.42-0.97,2.3c-0.03,7.09-0.02,14.18-0.01,21.27
		c0,0.55,0,1.12,0.11,1.66c0.11,0.53,0.6,0.76,1.1,0.71c0.41-0.04,0.71-0.36,0.74-0.81c0.03-0.56,0.04-1.11,0.04-1.67
		C166.38,639.01,166.38,635.5,166.38,632z M759.86,698.27c0,2.31-0.04,4.62,0.02,6.93c0.02,0.84-0.47,2.22,1.04,2.18
		c1.27-0.03,0.92-1.27,0.93-2.08c0.03-4.7,0.01-9.41,0.01-14.11c0-0.55,0.08-1.13-0.21-1.64c-0.22-0.37-0.57-0.56-1-0.48
		c-0.32,0.06-0.61,0.27-0.66,0.6c-0.08,0.55-0.11,1.11-0.11,1.66C759.86,693.64,759.86,695.95,759.86,698.27z M755.21,705.79
		c0-2.39,0.03-4.78-0.02-7.17c-0.02-0.86,0.42-2.22-1.05-2.19c-1.24,0.03-0.91,1.28-0.92,2.09c-0.02,4.7-0.01,9.4-0.01,14.1
		c0,0.4-0.01,0.8,0.04,1.19c0.07,0.52,0.37,0.89,0.91,0.92c0.56,0.04,0.9-0.31,0.98-0.83c0.07-0.47,0.06-0.95,0.06-1.43
		C755.21,710.25,755.21,708.02,755.21,705.79z M765.76,691.41c0-2,0-3.99,0-5.99c0-0.66-0.03-1.36-0.95-1.33
		c-0.81,0.02-1.04,0.6-1.04,1.32c0,3.99,0,7.99,0,11.98c0,0.78,0.18,1.54,1.13,1.48c0.8-0.06,0.86-0.8,0.86-1.47
		C765.76,695.4,765.77,693.4,765.76,691.41z"/>
	<path class="st2" d="M527.16,395.31c-1.83,0.1-3.67,0.23-5.5,0.28c-0.97,0.03-1.21,0.52-1.2,1.37c0.04,2.8,0.14,5.6,0.06,8.4
		c-0.27,9.19,0,18.38-0.05,27.57c-0.05,9.91,0.06,19.83,0.06,29.75c0,13.35-0.09,26.71-0.12,40.06c0,1.44,0.08,2.88,0.11,4.32
		c0.03,1.92-0.45,2.44-2.41,2.23c-1.36-0.15-2.71-0.14-4.07-0.2c-3.68-0.17-7.34-0.22-11.02,0.21c-1.42,0.17-2.89,0.12-4.31-0.02
		c-4.39-0.44-8.77-0.42-13.16,0c-1.35,0.13-2.73,0.14-4.07,0.01c-4.55-0.45-9.09-0.44-13.64,0.01c-1.44,0.14-2.87-0.07-4.3-0.13
		c-4.55-0.21-9.1-0.4-13.65,0.13c-1.58,0.18-3.21,0.17-4.79,0c-4.23-0.45-8.45-0.4-12.68-0.02c-1.51,0.14-3.05,0.17-4.55,0.02
		c-4.15-0.41-8.29-0.44-12.44,0c-1.5,0.16-3.05,0.14-4.55-0.01c-4.39-0.42-8.77-0.42-13.16,0.01c-1.58,0.16-3.2,0.12-4.79-0.03
		c-4.07-0.39-8.13-0.35-12.21,0c-1.59,0.14-3.21,0.18-4.79,0.03c-4.47-0.43-8.93-0.43-13.4,0.01c-1.34,0.13-2.72,0.09-4.07-0.04
		c-4.39-0.41-8.77-0.39-13.17-0.01c-1.43,0.13-2.89,0.17-4.31,0.03c-4.39-0.44-8.77-0.41-13.16-0.01c-1.35,0.13-2.73,0.16-4.07,0.02
		c-4.47-0.46-8.93-0.43-13.4,0c-1.5,0.14-3.02,0.07-4.55-0.09c-3.75-0.38-7.51-0.38-11.26-0.05c-2.16,0.19-4.29,0.17-6.45,0.01
		c-3.99-0.29-7.98-0.36-11.97,0.08c-1.83,0.2-3.66,0.14-5.5-0.03c-3.91-0.38-7.82-0.38-11.73,0.02c-1.76,0.18-3.51,0.19-5.26,0.01
		c-4.07-0.42-8.12-0.54-12.2,0.01c-1.49,0.2-3.05,0.19-4.55,0.04c-2.07-0.22-4.15-0.26-6.22-0.31c-2.23-0.06-2.46-0.17-2.71-2.4
		c-0.33-2.94-0.32-5.9,0.04-8.85c0.13-1.11,0.27-2.2-0.1-3.32c-1.7-5.16-1.46-10.38-0.38-15.62c0.57-2.76,0.68-5.53,0.43-8.34
		c-0.23-2.55-0.29-5.1,0.03-7.66c0.33-2.63,0.27-5.26-0.01-7.89c-0.34-3.19-0.34-6.38,0.01-9.57c0.26-2.31,0.32-4.63,0.08-6.94
		c-0.39-3.75-0.41-7.49,0.01-11.24c0.22-1.99,0.21-4-0.01-5.99c-0.41-3.75-0.36-7.49-0.01-11.24c0.16-1.67,0.23-3.37,0.07-5.03
		c-0.25-2.63-0.35-5.26-0.35-7.9c0-1.69-0.07-1.69-1.8-1.56c-1.67,0.13-3.34,0.23-5.01,0.34c-3.24-0.39-6.51-0.56-9.68-1.46
		c-1.93-0.55-3.77-1.32-5.49-2.35c-2.64-1.58-4.27-3.82-4.27-7.01c-0.01-6.8,0.03-13.59-0.03-20.38c-0.01-1.43,0.72-1.93,1.88-2.35
		c5.18-1.88,10.34-3.81,15.49-5.74c0.74-0.28,1.45-0.66,2.17-1c1.14-0.06,2.15-0.6,3.17-1.02c4.69-1.89,4.14-0.47,3.79-5.4
		c-0.45-6.19,5.97-15.18,13.6-15.99c1.43-0.15,2.87-0.19,4.31-0.19c83.93-0.01,167.86-0.01,251.79,0c2.4,0,4.8,0.01,7.19,0.07
		c6.68,0.18,13.05,5.32,14.72,11.76c0.75,2.88,0.99,5.82,1.09,8.77c0.02,0.73-0.04,1.48,0.86,1.77c1.89,0.6,3.63,1.68,5.68,1.79
		c1.5,1.3,3.46,1.57,5.21,2.28c2.74,1.11,5.52,2.1,8.31,3.08c0.98,0.34,1.35,0.86,1.34,1.93c-0.04,7.12,0,14.24-0.04,21.35
		c-0.01,2.12-0.99,3.83-2.61,5.17c-1.62,1.34-3.48,2.27-5.46,2.93C531.72,394.48,529.48,395.07,527.16,395.31z M374.16,502.32
		c43.43,0,86.86,0,130.29,0c0.64,0,1.28,0.01,1.92,0c2.03-0.05,2.21-0.23,2.28-2.17c0.02-0.56,0-1.12,0-1.68
		c0-21.2-0.01-42.39,0.01-63.59c0-3.03,0.11-6.07,0.16-9.1c0.14-10.16,0.05-20.32,0.07-30.47c0-0.99-0.21-1.62-1.25-2
		c-1.5-0.53-2.96-1.25-4.17-2.32c-0.72-0.64-1.22-0.42-1.87,0.07c-2.82,2.11-6.07,3.14-9.48,3.79c-4.43,0.84-8.88,0.98-13.35,0.47
		c-4.5-0.51-8.84-1.49-12.56-4.24c-0.81-0.6-1.32-0.52-2.07,0.06c-2.12,1.64-4.6,2.54-7.17,3.21c-4.21,1.11-8.51,1.51-12.83,1.22
		c-5.53-0.37-10.99-1.2-15.6-4.69c-0.73-0.56-1.13-0.18-1.65,0.21c-2.28,1.7-4.89,2.66-7.63,3.35c-5.5,1.38-11.08,1.53-16.65,0.72
		c-4.05-0.59-8.02-1.57-11.33-4.21c-0.78-0.62-1.26-0.27-1.87,0.19c-2.2,1.68-4.75,2.58-7.4,3.26c-3.98,1.02-8.04,1.41-12.12,1.18
		c-5.71-0.32-11.32-1.12-16.08-4.71c-0.71-0.54-1.13-0.22-1.66,0.2c-2.05,1.61-4.44,2.53-6.92,3.19c-5.96,1.6-11.99,1.74-18.06,0.77
		c-3.82-0.61-7.5-1.64-10.62-4.08c-0.76-0.59-1.26-0.31-1.88,0.18c-1.71,1.37-3.72,2.15-5.78,2.81c-4.47,1.43-9.08,1.88-13.73,1.64
		c-5.7-0.29-11.32-1.1-16.08-4.69c-0.71-0.53-1.14-0.22-1.67,0.18c-1.81,1.36-3.84,2.25-6,2.91c-6.08,1.87-12.28,2.03-18.5,1.14
		c-3.81-0.54-7.51-1.56-10.72-3.86c-1.51-1.08-2.09-0.77-2.5,1.06c-0.71,3.25-0.47,6.51-0.26,9.79c0.16,2.63,0.59,5.28,0.14,7.89
		c-0.49,2.88-0.4,5.72-0.11,8.59c0.32,3.11,0.36,6.24,0.03,9.34c-0.38,3.6-0.41,7.17,0.04,10.76c0.26,2.07,0.34,4.16,0.06,6.22
		c-0.53,3.83-0.39,7.65-0.08,11.48c0.2,2.47,0.3,4.93-0.13,7.41c-0.39,2.21-0.4,4.47-0.05,6.69c0.29,1.83,0.33,3.66,0.33,5.5
		c0,1.6-0.13,3.19-0.28,4.78c-0.29,3.11-0.32,6.21,0.14,9.33c0.39,2.69,0.38,5.42-0.07,8.12c-0.64,3.9-0.31,4.29,3.7,4.17
		c1.2-0.03,2.4-0.06,3.6-0.06C289.22,502.31,331.69,502.32,374.16,502.32z M468.94,347.85c0.38,0.98,1.09,1.02,1.63,1.28
		c9.59,4.57,19.17,9.14,28.79,13.64c1.69,0.79,2.51,1.69,2.45,3.74c-0.18,5.75,0.09,11.52-0.12,17.27
		c-0.12,3.18,1.19,5.18,3.85,6.53c0.85,0.43,1.72,0.84,2.62,1.16c6.74,2.35,13.62,2.44,20.57,1.17c2.68-0.49,5.26-1.32,7.6-2.79
		c1.97-1.24,3.01-2.86,2.96-5.33c-0.12-6.15-0.03-12.31-0.05-18.47c-0.01-2.44,0.34-2.06-2.15-2.98
		c-13.25-4.91-26.5-9.8-39.75-14.71c-0.83-0.31-1.66-0.51-2.56-0.51C486.24,347.86,477.68,347.85,468.94,347.85z M273.39,348.08
		c-0.3-0.13-0.42-0.22-0.54-0.22c-8.48-0.01-16.96,0-25.43-0.02c-0.9,0-1.74,0.18-2.57,0.48c-13.48,4.98-26.96,9.97-40.45,14.92
		c-1.16,0.42-1.57,1.06-1.56,2.29c0.05,6.48,0.05,12.96,0,19.44c-0.01,1.67,0.64,2.92,1.84,3.98c1.66,1.46,3.64,2.34,5.71,2.93
		c7.23,2.06,14.5,2.11,21.78,0.2c2.02-0.53,3.94-1.31,5.66-2.52c1.6-1.12,2.47-2.5,2.43-4.61c-0.12-6.32-0.01-12.64-0.07-18.95
		c-0.01-1.34,0.3-2.16,1.63-2.78c8.26-3.83,16.49-7.73,24.7-11.67C268.79,350.45,271.17,349.56,273.39,348.08z M329.04,348.22
		c-0.46-0.22-0.59-0.34-0.73-0.34c-8.47-0.01-16.94-0.01-25.41-0.04c-0.93,0-1.68,0.31-2.44,0.81c-7.11,4.74-14.22,9.48-21.37,14.16
		c-1.05,0.69-1.5,1.41-1.49,2.7c0.07,6.47,0.09,12.95,0,19.42c-0.03,1.89,0.75,3.21,2.12,4.31c1.65,1.32,3.57,2.1,5.57,2.69
		c6.18,1.82,12.45,1.9,18.74,0.82c2.99-0.51,5.9-1.39,8.45-3.17c1.7-1.18,2.57-2.65,2.54-4.81c-0.09-6.39,0-12.79-0.06-19.18
		c-0.01-1.2,0.26-2.15,1.1-3.01c1.17-1.2,2.26-2.47,3.39-3.72C322.62,355.36,325.77,351.86,329.04,348.22z M413.19,348.07
		c-0.03,0.86,0.67,1.24,1.12,1.74c3.78,4.23,7.54,8.47,11.39,12.63c0.95,1.02,1.31,2.05,1.29,3.42c-0.06,6.15,0.02,12.31-0.05,18.46
		c-0.03,2.41,0.95,4.14,2.91,5.41c1.55,1,3.23,1.73,5.01,2.24c6.35,1.8,12.75,1.88,19.2,0.66c2.6-0.49,5.11-1.28,7.39-2.68
		c1.96-1.2,3.06-2.76,3-5.28c-0.15-6.23-0.1-12.46-0.02-18.7c0.02-1.44-0.41-2.31-1.62-3.11c-7.08-4.63-14.13-9.33-21.15-14.06
		c-1.06-0.71-2.11-0.97-3.36-0.96c-7.75,0.03-15.5,0.01-23.25,0.03C414.44,347.87,413.79,347.67,413.19,348.07z M389.65,375.1
		c0-3.2-0.01-6.39,0-9.59c0-0.96-0.04-1.92-0.32-2.85c-1.32-4.35-2.69-8.69-3.94-13.07c-0.37-1.28-0.93-1.78-2.32-1.77
		c-8.07,0.07-16.14,0.07-24.21,0c-1.43-0.01-1.93,0.57-2.29,1.81c-1.25,4.37-2.61,8.72-3.89,13.08c-0.2,0.68-0.34,1.41-0.34,2.12
		c-0.02,6.71,0,13.43-0.02,20.14c-0.01,1.94,0.87,3.36,2.37,4.45c1.63,1.19,3.47,1.96,5.4,2.52c6.26,1.81,12.61,1.9,18.97,0.75
		c2.91-0.52,5.74-1.4,8.21-3.14c1.6-1.13,2.5-2.52,2.41-4.63C389.54,381.66,389.65,378.38,389.65,375.1z M379.18,339.89
		c-0.06-2.61-2.7-4.89-5.58-4.82c-2.59,0.06-5.15,2.69-5.02,5.15c0.14,2.62,3.24,5.35,5.94,5.22
		C376.81,345.33,379.24,342.44,379.18,339.89z M499.05,346.42c-0.06,0.15-0.12,0.31-0.17,0.46c3.23,1.19,6.45,2.38,9.73,3.59
		c0.32-3.49,0.29-3.53-2.88-3.91C503.51,346.28,501.28,346.47,499.05,346.42z M239.34,348.53c1.05,0.13,1.72-0.34,2.44-0.59
		c0.74-0.25,1.53-0.43,2.18-1.03C240.61,346.02,240.18,346.16,239.34,348.53z"/>
	<path class="st2" d="M143.39,434.05c-0.44-0.48-1.03-0.35-1.57-0.36c-2.36-0.06-2.38-0.05-2.38,2.28c-0.01,10.94,0,21.89,0,32.83
		c0,0.48,0.01,0.96,0,1.44c-0.04,1.79-0.04,1.82-1.88,1.83c-3.04,0.02-6.07-0.04-9.11,0.03c-1.2,0.02-1.77-0.32-1.68-1.61
		c0.08-1.11,0.01-2.24,0.01-3.35c0-10.07,0-20.13,0-30.2c0-0.48,0.01-0.96,0-1.44c-0.05-1.79-0.05-1.79-1.91-1.81
		c-0.72-0.01-1.44,0.03-2.16,0.04c-12.41-0.01-24.83-0.02-37.65-0.03c1.87-2.89,4.25-4.82,5.86-7.66c-2.98,0-5.54-0.03-8.09,0.01
		c-2.5,0.04-5.03-0.19-7.93,0.21c2.16,2.61,4.09,4.93,6,7.25c1.98,2.4,3.95,4.82,5.93,7.22c1.87,2.29,3.98,4.41,5.75,7.32
		c-6.64,0-12.78,0-18.93,0c-1.64-0.21-3.26-0.2-5.34-0.02c6.23,7.54,12.19,14.76,18.41,22.28c-25.87,0-51.29,0-77.19,0
		c6.01-7.64,12.17-14.67,18.29-22.29c-2.07-0.16-3.69-0.19-5.32,0.04c-5.09,0-10.18,0-15.27,0c-0.09-0.17-0.18-0.34-0.26-0.51
		c5.54-7.14,11.59-13.88,17.37-21.2c-2.12-0.57-4.08-0.23-6-0.29c-2-0.07-4-0.01-6-0.01c-1.97,0-3.94,0-6.47,0
		c14.53-17.54,28.72-34.67,42.98-51.88c1.99,1.54,3.25,3.5,4.71,5.25c10.69,12.83,21.32,25.71,31.97,38.57
		c1.73,2.09,3.51,4.15,5.19,6.29c0.8,1.01,1.27,0.83,2-0.07c3.74-4.58,7.55-9.1,11.3-13.67c1.01-1.23,2.2-2.32,3.08-3.94
		c-2.27-0.45-4.46-0.17-6.63-0.22c-2.24-0.05-4.48-0.01-6.72-0.01c-2.21,0-4.42,0-7.12,0c6.77-8.2,13.24-16.03,19.93-24.12
		c-2.57-0.52-4.78-0.22-6.97-0.28c-2.16-0.05-4.32-0.01-6.48-0.01c-2.2,0-4.39,0-7.2,0c16.17-19.52,31.95-38.56,47.98-57.91
		c16.01,19.23,31.79,38.34,47.99,57.9c-6.6,0-12.67,0-18.73,0c-0.08,0.18-0.16,0.37-0.24,0.55c6.47,7.83,12.94,15.66,19.72,23.86
		c-8.22,0-15.98,0-24.35,0c7.51,9.37,14.96,18.05,22.33,27.13c-0.97,0.37-1.76,0.23-2.5,0.23c-10.63,0.01-21.27,0-31.9,0.01
		C145.26,433.72,144.28,433.55,143.39,434.05z M132.55,401.91c0.2-0.13,0.43-0.23,0.57-0.4c3.78-4.64,7.56-9.29,11.33-13.93
		c0.15-0.19,0.29-0.38,0.42-0.58c0.29-0.47,0.24-0.9-0.16-1.29c-0.42-0.41-0.89-0.37-1.29-0.02c-0.42,0.36-0.78,0.8-1.13,1.23
		c-2.62,3.22-5.22,6.45-7.86,9.66c-0.54,0.65-0.91,1.52-2.01,1.82c-0.55-0.71-1.15-1.44-1.71-2.19c-2.24-3.01-4.46-6.03-6.7-9.04
		c-0.33-0.45-0.65-0.92-1.04-1.31c-0.42-0.42-0.93-0.65-1.47-0.15c-0.41,0.38-0.43,0.85-0.17,1.3c0.28,0.48,0.62,0.93,0.95,1.38
		c2.8,3.78,5.6,7.57,8.43,11.33C131.28,400.46,131.68,401.37,132.55,401.91z M47.83,440.77c-1.25-1.67-2.38-3.18-3.51-4.7
		c-1.62-2.17-3.23-4.35-4.87-6.51c-0.35-0.46-0.83-0.81-1.44-0.42c-0.69,0.44-0.61,1.05-0.23,1.66c0.17,0.27,0.37,0.52,0.56,0.78
		c2.71,3.65,5.4,7.31,8.13,10.95c0.41,0.55,0.67,1.29,1.47,1.49c0.94-0.67,1.5-1.65,2.2-2.51c2.84-3.45,5.64-6.93,8.45-10.4
		c0.46-0.57,0.98-1.19,0.18-1.85c-0.77-0.62-1.33-0.08-1.81,0.5c-1.02,1.23-1.99,2.49-3.02,3.71
		C51.94,435.81,50.17,438.37,47.83,440.77z M148.38,378.33c3.51-4.58,7.05-9.19,10.59-13.81c0.1-0.13,0.18-0.27,0.27-0.4
		c0.31-0.46,0.31-0.92-0.13-1.28c-0.41-0.34-0.95-0.35-1.33-0.02c-0.48,0.41-0.87,0.93-1.26,1.44c-1.86,2.4-3.67,4.84-5.56,7.22
		c-0.83,1.05-1.49,2.26-2.72,3.19c-1.94-3.23-3.81-6.39-5.71-9.52c-0.5-0.82-0.86-2.3-2.18-1.51c-1.19,0.71-0.12,1.7,0.33,2.46
		c2.1,3.59,4.23,7.15,6.38,10.71C147.37,377.34,147.52,378.03,148.38,378.33z M117.94,374.64c3.93-4.52,7.6-8.74,11.25-12.97
		c0.55-0.64,1.49-1.41,0.48-2.2c-0.96-0.74-1.56,0.3-2.12,0.94c-2.69,3.06-5.37,6.14-8.05,9.21c-1.5,1.72-1.51,1.72-2.89,0.02
		c-2.07-2.55-4.12-5.1-6.19-7.64c-0.42-0.52-0.89-1.03-1.6-0.55c-0.8,0.54-0.59,1.2-0.08,1.84c1,1.25,2,2.5,3,3.74
		C113.75,369.5,115.76,371.96,117.94,374.64z M62,416.4c-1.78-2.97-3.33-5.57-4.89-8.17c-0.33-0.55-0.66-1.09-1.06-1.59
		c-0.33-0.42-0.83-0.49-1.29-0.22c-0.47,0.27-0.6,0.74-0.39,1.23c0.19,0.44,0.43,0.86,0.67,1.27c1.76,2.95,3.5,5.92,5.31,8.84
		c0.44,0.72,0.65,1.65,1.65,2.16c3.16-4.11,6.32-8.22,9.48-12.33c0.46-0.6,0.86-1.3,0.16-1.91c-0.77-0.66-1.3-0.02-1.77,0.56
		c-0.25,0.31-0.47,0.64-0.72,0.96C66.85,410.15,64.56,413.1,62,416.4z M34.74,419.26c-2.11-2.61-4-4.95-5.9-7.29
		c-0.4-0.49-0.81-0.98-1.27-1.42c-0.3-0.29-0.71-0.35-1.1-0.1c-0.46,0.3-0.66,0.74-0.41,1.22c0.25,0.49,0.59,0.94,0.94,1.37
		c2.19,2.74,4.39,5.47,6.61,8.18c0.32,0.39,0.47,1.05,1.36,1.03c3.37-3.88,6.81-7.84,10.25-11.81c0.16-0.18,0.29-0.38,0.4-0.59
		c0.2-0.39,0.15-0.78-0.17-1.08c-0.38-0.36-0.84-0.54-1.27-0.16c-0.48,0.42-0.9,0.9-1.32,1.37
		C40.24,412.97,37.62,415.96,34.74,419.26z M117.57,427.44c-2.94-2.89-5.67-5.58-8.42-8.25c-0.57-0.56-1.18-1.08-1.82-1.55
		c-0.36-0.27-0.76-0.1-1.08,0.19c-0.34,0.31-0.43,0.73-0.22,1.08c0.29,0.47,0.69,0.88,1.08,1.27c2.38,2.36,4.77,4.73,7.18,7.06
		c1.12,1.08,2.31,2.09,3.55,3.2c2.74-3.34,5.33-6.48,7.91-9.63c0.2-0.25,0.41-0.5,0.55-0.78c0.23-0.47,0.2-0.92-0.22-1.3
		c-0.46-0.42-0.92-0.28-1.28,0.07c-0.57,0.56-1.09,1.17-1.6,1.78C121.38,422.8,119.56,425.02,117.57,427.44z M151.86,431.83
		c2.94-3.81,5.67-7.34,8.39-10.87c0.45-0.59,0.92-1.3,0.18-1.9c-0.72-0.59-1.33-0.09-1.81,0.53c-0.29,0.38-0.58,0.76-0.88,1.14
		c-1.66,2.16-3.34,4.29-4.96,6.47c-0.65,0.88-1.17,0.94-1.82,0.03c-0.7-0.97-1.45-1.91-2.18-2.86c-1.36-1.77-2.72-3.55-4.1-5.31
		c-0.41-0.52-0.94-1.01-1.61-0.47c-0.6,0.49-0.42,1.14-0.04,1.72c0.09,0.13,0.18,0.27,0.28,0.39
		C146.1,424.32,148.87,427.93,151.86,431.83z M34.55,467.7c1.2-1.44,2.32-2.77,3.43-4.1c1.27-1.53,2.54-3.07,3.8-4.62
		c0.51-0.62,1.17-1.36,0.27-2.04c-0.87-0.66-1.44,0.16-1.97,0.76c-0.21,0.24-0.39,0.5-0.59,0.75c-1.42,1.72-2.85,3.43-4.24,5.18
		c-0.55,0.7-1.04,0.91-1.73,0.18c-0.54-0.58-1.15-1.1-1.72-1.66c-2-1.95-3.99-3.91-5.98-5.85c-0.5-0.49-1.08-0.76-1.67-0.17
		c-0.58,0.58-0.36,1.17,0.15,1.67c1.13,1.12,2.28,2.23,3.43,3.34C29.95,463.29,32.19,465.43,34.55,467.7z M63.16,465.92
		c2.59-3.37,4.98-6.45,7.35-9.54c0.52-0.68,1.36-1.51,0.32-2.23c-1.02-0.71-1.53,0.4-2.05,1.05c-1.39,1.75-2.74,3.53-4.11,5.29
		c-1.51,1.95-1.51,1.95-2.95,0.08c-1.41-1.83-2.82-3.67-4.23-5.49c-0.34-0.44-0.69-0.87-1.08-1.27c-0.3-0.3-0.7-0.4-1.08-0.13
		c-0.35,0.24-0.56,0.61-0.45,1.02c0.1,0.37,0.27,0.75,0.5,1.06C57.88,459.06,60.4,462.33,63.16,465.92z"/>
	<path class="st2" d="M374.08,151.85c12.7,0.01,23.28,4.57,31.83,13.61c5.97,6.3,9.55,13.85,10.98,22.47
		c1.02,6.16,0.23,12.07-1.64,17.93c-1.77,5.56-3.95,10.96-6.09,16.39c-3.63,9.21-6.71,18.62-10.02,27.95
		c-7.26,20.46-14.47,40.95-21.7,61.42c-0.35,0.98-0.72,1.96-1.42,2.75c-0.91,1.04-1.88,1.05-2.9,0.1c-0.72-0.68-1.1-1.55-1.43-2.46
		c-2.87-8.13-5.74-16.26-8.62-24.39c-7.32-20.7-14.6-41.41-21.99-62.08c-2.12-5.94-4.75-11.69-6.69-17.7
		c-1.55-4.79-3.15-9.6-2.86-14.72c0.71-12.69,5.84-23.25,15.59-31.47c6.33-5.34,13.73-8.37,21.89-9.54
		C370.75,151.87,372.53,151.93,374.08,151.85z M404.94,196.79c0.45-16.99-14.29-30.34-29.8-30.6
		c-16.77-0.28-31.12,13.38-31.21,30.28c-0.08,17.02,13.59,30.81,30.4,30.84C392.48,227.33,405.4,212.19,404.94,196.79z
		 M397.25,237.76c-0.01-0.57-0.25-0.98-0.77-1.13c-0.53-0.16-0.96,0.14-1.17,0.6c-0.27,0.58-0.44,1.2-0.64,1.8
		c-6.47,19.38-12.94,38.76-19.41,58.14c-0.18,0.53-0.37,1.06-0.51,1.6c-0.15,0.58-0.13,1.16,0.53,1.41c0.75,0.28,1.22-0.13,1.49-0.8
		c0.15-0.37,0.25-0.76,0.38-1.14c6.52-19.55,13.04-39.1,19.55-58.65C396.89,238.98,397.06,238.37,397.25,237.76z M389,246.76
		c0.06-0.84-0.17-1.24-0.71-1.37c-0.53-0.12-0.94,0.12-1.17,0.61c-0.2,0.44-0.35,0.89-0.5,1.35c-4.14,12.41-8.29,24.82-12.39,37.25
		c-0.28,0.85-1.27,2.14,0.31,2.61c1.32,0.39,1.36-1.03,1.64-1.88c4.15-12.41,8.29-24.83,12.42-37.24
		C388.78,247.55,388.92,247.01,389,246.76z"/>
	<path class="st2" d="M227.78,311.19c-2.39-3.38-4.9-6.42-6.81-9.8c-1.86-3.28-4.25-4.18-7.92-4.12
		c-13.51,0.23-27.02,0.11-40.53,0.08c-7.94-0.01-13.94-4.93-15.56-12.61c-0.18-0.87-0.2-1.74-0.2-2.62
		c0-13.11,0.01-26.22-0.01-39.33c-0.01-8.42,7.27-15.19,15.08-15.13c20.38,0.15,40.77,0.13,61.15,0.01
		c7.79-0.04,14.97,6.81,14.92,14.98c-0.08,13.19-0.11,26.38,0.02,39.57c0.06,6.56-5.13,14.64-14.65,15.11
		c-1.2,0.06-2.4,0.06-3.6,0.01c-1.14-0.05-1.55,0.42-1.53,1.54c0.04,3.52,0.02,7.03,0,10.55
		C228.15,309.91,228.29,310.39,227.78,311.19z M202.38,292.14c4.4,0,8.79,0.01,13.19,0c5.83-0.01,11.67,0.07,17.5-0.07
		c5.31-0.13,9.57-4.5,9.58-9.74c0.05-13.27,0.05-26.54-0.01-39.8c-0.02-3.84-1.94-6.65-5.29-8.5c-1.95-1.08-4.07-1.32-6.25-1.32
		c-19.18,0-38.36,0-57.55,0c-0.4,0-0.8-0.01-1.2,0.01c-5.9,0.3-10.31,4.4-10.34,9.88c-0.07,13.27-0.05,26.54,0,39.8
		c0.01,2.47,0.97,4.65,2.68,6.49c2.23,2.39,5.01,3.27,8.19,3.26C182.72,292.13,192.55,292.14,202.38,292.14z"/>
	<path class="st2" d="M488.73,903.07c-10.12,0.23-18.03-7.45-19.2-17.13c-0.54-4.51,0.68-8.5,2.9-12.32
		c3.98-6.84,7.95-13.68,11.91-20.52c1.36-2.35,2.54-4.8,3.59-7.31c0.25-0.59,0.51-1.18,0.83-1.73c0.46-0.79,0.99-0.66,1.46,0
		c0.14,0.19,0.23,0.42,0.31,0.65c2.53,7.2,6.35,13.77,9.83,20.51c1.72,3.34,3.44,6.68,4.84,10.17c0.71,1.78,1.42,3.56,1.81,5.45
		c1.59,7.69-1.44,13.58-7.22,18.32C496.68,901.7,492.83,903.33,488.73,903.07z M501.82,885.11c0.04-1.59-0.21-2.16-0.98-2.06
		c-1.13,0.14-0.95,1.07-1.02,1.85c-0.06,0.55-0.18,1.1-0.29,1.65c-0.98,4.85-4.03,7.65-8.75,8.77c-0.47,0.11-0.95,0.14-1.42,0.24
		c-0.66,0.15-1.3,0.42-1.2,1.23c0.13,0.99,0.94,0.93,1.67,0.87C496.33,897.16,501.67,891.57,501.82,885.11z"/>
	<path class="st2" d="M694.25,855.34c-0.17,7.11-3.33,12.55-9.44,16.15c-6.21,3.66-12.61,3.83-18.85,0.11
		c-5.16-3.08-8.08-7.81-9.18-13.67c-0.89-4.69,0.19-8.98,2.59-13.05c3.93-6.67,7.78-13.39,11.67-20.08c1.25-2.14,2.4-4.32,3.01-6.75
		c0.21-0.86,0.54-1.68,1.13-2.36c0.92-1.06,1.98-1.02,2.77,0.13c0.35,0.52,0.67,1.13,0.78,1.73c0.95,5.39,3.85,9.94,6.36,14.64
		c2.78,5.21,5.59,10.4,7.76,15.91C693.75,850.42,694.35,852.81,694.25,855.34z M689.6,854.14c0.09-0.85-0.02-1.74-1.04-1.79
		c-0.93-0.05-1.03,0.81-1.04,1.56c0,0.16-0.03,0.32-0.04,0.47c-0.62,5.65-3.77,9.13-9.33,10.29c-0.47,0.1-0.93,0.19-1.4,0.3
		c-0.66,0.15-0.93,0.59-0.81,1.23c0.13,0.69,0.66,0.82,1.27,0.78c0.16-0.01,0.32-0.02,0.48-0.04
		C684.57,865.8,689.08,861.5,689.6,854.14z"/>
	<path class="st2" d="M53.01,779.99c-0.35-4.11,1.66-7.69,3.7-11.23c2.92-5.05,5.94-10.04,8.91-15.06c2.2-3.72,4.13-7.57,5.75-11.58
		c0.31-0.78,0.5-1.95,1.55-1.89c0.87,0.05,1,1.12,1.27,1.85c2.96,8.05,7.18,15.51,11.06,23.12c1.6,3.13,3.16,6.28,4.44,9.55
		c3.92,9.98-3.15,22.4-14.12,24.66C61.79,802.25,52.49,789.91,53.01,779.99z M83.67,781.31c0-0.32,0.03-0.64-0.01-0.95
		c-0.06-0.61-0.35-1.08-1.01-1.13c-0.7-0.05-0.97,0.43-1.07,1.03c-0.04,0.23-0.04,0.48-0.06,0.71c-0.41,5.91-3.94,9.54-9.77,10.69
		c-0.46,0.09-0.96,0.04-1.37,0.34c-0.34,0.25-0.54,0.57-0.47,1.01c0.07,0.46,0.39,0.7,0.79,0.77c0.3,0.05,0.63-0.01,0.94-0.04
		C78.21,793.12,83.31,787.86,83.67,781.31z"/>
	<path class="st2" d="M327.87,812.87c0.78,1.96,1.42,3.59,2.08,5.21c1.99,4.9,4.62,9.47,7.14,14.1c2.56,4.7,5.09,9.42,7.02,14.42
		c4.15,10.71-1.95,22.88-13.04,25.36c-11.73,2.61-20.94-4.75-23.18-15.04c-1.11-5.09,0.4-9.58,2.77-13.98
		c4.24-7.88,9.21-15.34,13.55-23.16C325.4,817.62,326.52,815.42,327.87,812.87z M338.58,854.23c0-0.11,0-0.35,0-0.59
		c-0.01-0.66-0.05-1.35-0.9-1.43c-0.84-0.08-1.04,0.51-1.1,1.22c-0.06,0.71-0.18,1.42-0.32,2.12c-0.84,4.4-3.42,7.26-7.69,8.58
		c-0.83,0.26-1.71,0.39-2.56,0.56c-0.67,0.14-1.31,0.4-1.19,1.2c0.14,0.91,0.88,1,1.66,0.88
		C333.81,865.67,337.94,861.06,338.58,854.23z"/>
	<path class="st2" d="M184.54,892.31c0.18,7.44-4.75,14.44-12.64,17.36c-2.55,0.95-5.22,1.37-7.96,1.56
		c-4.66,0.32-8.21-1.84-11.21-4.99c-3.46-3.63-5.46-8.07-5.95-13.07c-0.41-4.21,0.89-8.06,3.04-11.63
		c2.31-3.83,4.66-7.65,6.99-11.47c3.21-5.26,6.15-10.66,8.52-16.36c0.31-0.76,0.41-1.93,1.55-1.87c1.08,0.06,1.16,1.16,1.43,1.98
		c2.03,6.1,5.1,11.71,8.11,17.36c2.52,4.73,5.06,9.44,6.89,14.49C184.1,887.87,184.68,890.1,184.54,892.31z M178.67,889.76
		c0.03-0.53,0.05-1.47-1.02-1.54c-1.14-0.08-1.07,0.94-1.17,1.72c-0.01,0.08-0.01,0.16-0.02,0.24c-0.22,4.38-2.89,8.99-9.1,10.31
		c-0.39,0.08-0.79,0.13-1.18,0.19c-0.78,0.13-1.46,0.44-1.22,1.39c0.2,0.77,0.87,0.8,1.56,0.7
		C173.49,901.73,178,897.46,178.67,889.76z"/>
	<path class="st2" d="M516.3,187.17c-0.36-0.77,0.07-1.39,0.37-2.03c3.95-8.52,15.41-12.09,23.59-4.86c1.55,1.37,1.7,1.35,3.03-0.12
		c3.81-4.16,8.57-6.61,14.08-7.54c8.5-1.43,16.01,0.88,22.4,6.54c4.71,4.17,7.33,9.62,8.26,15.81c0.27,1.79,0.9,2.74,2.65,3.47
		c7.5,3.12,11.61,9.07,12.04,16.98c0.31,5.59-1.52,10.87-6.1,14.72c0.03-0.64,0.06-1.27,0.08-1.91c0.24-8.35-3.58-14.48-10.39-18.98
		c-1.26-0.83-3.16-0.81-3.9-2.1c-0.72-1.25-0.68-2.92-1.05-4.39c-3.02-12.2-14.2-20.92-26.78-20.97c-6.03-0.02-11.43,1.8-16.35,5.23
		c-0.58,0.41-0.98,1.34-1.97,0.95c-0.21-0.55,0.2-0.87,0.47-1.24c0.96-1.25,1.93-2.49,2.87-3.76c0.25-0.33,0.73-0.71-0.08-1.35
		c-1.73,1.77-3.17,3.81-4.57,5.86c-0.51,0.74,0.36,0.8,0.86,0.94c0.05,1.16-0.98,1.45-1.57,2.1c-0.3-0.18-0.51-0.28-0.7-0.43
		c-0.25-0.2-0.47-0.44-0.72-0.63c-3.54-2.65-7.47-3.96-11.9-3.38C519.38,186.3,517.85,186.8,516.3,187.17z M532.63,186.22
		c2.03-1.04,4.77-4.79,4.98-6.79C535.54,181.71,533.94,183.84,532.63,186.22z M584.4,205.73c1.73-1.75,3.18-3.69,3.94-6.08
		C586.44,201.29,585.23,203.38,584.4,205.73z M586.94,196.34c-1.6,0.96-3.86,4.51-3.91,6.15C584.62,201.15,586.63,198,586.94,196.34
		z"/>
	<path class="st2" d="M694.35,136.6c0.22-6.17-2.45-10.88-7.3-14.51c-1.21-0.91-3.06-0.96-3.79-2.29c-0.66-1.21-0.64-2.77-1.05-4.14
		c-4.03-13.39-20.09-19.7-32.39-12.02c-0.64,0.4-1.12,1.45-2.18,0.84c0.21-1.51,1.51-2.35,2.19-3.58c0.24-0.44,0.9-0.78,0.16-1.68
		c-1.36,1.35-2.48,2.83-3.28,4.51c-0.29,0.61,0.61,0.51,0.96,0.73c-0.59,2.02-1.61,2.58-3.06,1.57c-3.99-2.79-8.25-3.14-12.76-1.55
		c0.48-4.03,2.84-6.69,6.34-8.36c4.52-2.16,8.7-1.22,12.51,1.79c1.27,1.01,1.26,1.08,2.45-0.12c2.7-2.75,5.89-4.66,9.67-5.44
		c12.05-2.5,22.46,4.87,24.65,15.96c0.09,0.47,0.17,0.94,0.24,1.42c0.16,1.12,0.72,1.82,1.85,2.23c4.64,1.68,7.5,5.2,8.84,9.74
		C700.05,127.34,698.51,132.39,694.35,136.6z M648.08,98.5c-1.49,1.07-2.43,2.58-3.45,4.02c-0.16,0.22-0.16,0.44,0,0.63
		c0.17,0.19,0.42,0.27,0.6,0.05C646.41,101.79,647.68,100.44,648.08,98.5z M682.7,112.57c0.2,0.11,0.39,0.23,0.59,0.34
		c0.98-1.48,1.96-2.96,2.94-4.45c0.14-0.22,0.14-0.45-0.09-0.61c-0.21-0.14-0.48-0.17-0.62,0.04
		C684.49,109.4,683.16,110.74,682.7,112.57z M683.71,116.24c1.85-1.5,3.09-3.62,2.91-4.95
		C684.75,113.06,683.75,114.75,683.71,116.24z"/>
	<path class="st2" d="M756.48,595.45c-2.37-2.79-4.69-5.64-7.13-8.37c-3.41-3.81-6.94-7.5-10.74-10.93
		c-0.75-0.67-1.62-1.27-2.15-2.24c0.71-0.7,1.6-0.81,2.4-1.11c6.1-2.2,11.96-4.89,17.36-8.52c3.14-2.1,5.84-4.69,8.51-7.33
		c0.01,7.4,0.21,14.8-0.01,22.18C764.52,585.76,761.44,591.13,756.48,595.45z"/>
	<path class="st2" d="M723.63,302.92c0.4-5.72,0.8-11.12,1.15-16.53c0.26-4.06,0.46-8.12,0.65-12.18c0.05-1.12,0.15-2.23,0.5-3.3
		c0.31-0.91,0.9-1.47,1.95-1.45c1.04,0.02,1.61,0.54,1.88,1.51c0.17,0.62,0.3,1.23,0.26,1.88c-0.32,5.01-0.62,10.02-0.92,15.04
		c-0.3,4.93-0.59,9.86-0.91,14.8c-0.03,0.47-0.13,0.95-0.28,1.4c-0.34,1.03-1.08,1.53-2.19,1.48c-1.01-0.05-1.63-0.57-1.85-1.55
		C723.77,303.55,723.67,303.08,723.63,302.92z"/>
	<path class="st2" d="M762.58,301.21c0.01,1.02-0.7,2.01-1.72,2.22c-1.11,0.24-1.89-0.28-2.3-1.26c-0.36-0.88-0.64-1.81-0.82-2.74
		c-1.53-7.98-3.49-15.85-5.25-23.78c-0.34-1.55-0.62-3.12-0.88-4.69c-0.25-1.53,0.3-2.45,1.57-2.74c1.14-0.27,1.95,0.26,2.46,1.68
		c0.67,1.88,1.03,3.84,1.45,5.79c1.71,7.93,3.45,15.87,5.17,23.8C762.38,300.03,762.46,300.58,762.58,301.21z"/>
	<path class="st2" d="M704.62,267.16c-0.15,0.48-0.29,0.94-0.45,1.39c-3.32,9.33-6.64,18.66-9.96,27.99
		c-0.19,0.52-0.37,1.07-0.67,1.53c-0.7,1.1-1.64,1.37-2.65,0.87c-1.08-0.54-1.47-1.28-1.06-2.55c0.97-3.04,2.01-6.07,3.07-9.08
		c2.2-6.25,4.42-12.5,6.65-18.74c0.35-0.97,0.61-2.01,1.3-2.82c0.62-0.74,1.4-1,2.35-0.6C704.11,265.55,704.57,266.21,704.62,267.16
		z"/>
	<path class="st2" d="M509.37,192.86c-1.54,2.63-2.88,5.33-2.91,8.48c-0.01,0.55-0.26,0.93-0.86,0.89
		c-4.62-0.29-8.77,1.26-12.83,3.21c0.49-2.54,2.13-4.43,3.85-6.16C500.13,195.76,504.35,193.47,509.37,192.86z"/>
	<path class="st2" d="M627.08,107.87c-1.41,2.3-2.93,4.55-3.05,7.39c-0.03,0.63-0.5,0.72-1.01,0.73c-3.33,0.07-6.37,1.18-9.35,2.54
		c0.34-2.5,1.83-4.36,3.56-6.01C619.99,109.9,623.08,107.89,627.08,107.87z"/>
	<path class="st2" d="M722.98,373.37c0.42-2.21,0.86-4.88,1.45-7.53c0.28-1.28,1.23-1.86,2.23-1.66c1,0.2,1.7,1.11,1.51,2.37
		c-0.39,2.6-0.89,5.19-1.4,7.77c-0.31,1.55-1.05,2.26-2.09,2.19C723.53,376.43,722.89,375.44,722.98,373.37z"/>
	<path class="st2" d="M732.83,382.83c-1-0.03-1.54-0.45-1.89-1.14c-0.37-0.73-0.22-1.41,0.32-1.98c0.32-0.34,0.74-0.61,1.12-0.88
		c1.82-1.29,3.65-2.57,5.48-3.85c0.52-0.36,1.05-0.74,1.71-0.8c0.9-0.08,1.55,0.32,1.92,1.13c0.38,0.82,0.22,1.64-0.49,2.16
		c-2.38,1.74-4.8,3.43-7.23,5.1C733.47,382.77,733.03,382.78,732.83,382.83z"/>
	<path class="st2" d="M743.6,393.36c-2.16-0.4-4.82-0.82-7.45-1.39c-1.45-0.31-1.93-1.14-1.67-2.37c0.23-1.13,1.11-1.65,2.61-1.4
		c2.5,0.41,5,0.88,7.49,1.37c1.45,0.28,2.06,1.02,1.96,2.23C746.44,393.03,745.81,393.43,743.6,393.36z"/>
	<path class="st2" d="M550.13,19.64c-1.42,0.11-2.11,1.29-3.05,2.09c-0.25,0.22-0.33,0.59-0.06,0.84c0.31,0.28,0.94,0.38,0.25,0.95
		c-0.51,0.42-0.93,0.85-1.64,0.31c-2.2-1.66-4.74-1.62-7.31-1.41c0.82-4.12,7.15-6.63,11.34-3.55
		C549.92,19.07,550.13,19.29,550.13,19.64z"/>
	<path class="st2" d="M532.93,26.31c-0.16,0.36-0.42,0.71-0.47,1.08c-0.43,3.2-2.75,3.56-5.31,3.61
		C528.04,28.16,530.39,27.11,532.93,26.31z"/>
	<path class="st2" d="M527.17,30.99c-0.01,0.31-0.2,0.4-0.47,0.37C526.74,31.09,526.85,30.91,527.17,30.99z"/>
	<path class="st2" d="M516.29,187.16c0,0.31-0.18,0.36-0.43,0.31C515.88,187.2,515.99,187.05,516.29,187.16z"/>
	<path class="st2" d="M590.23,550.98c1.36-0.18,2.4-0.55,3.43-1.01c3.2-1.42,6.36-1.33,9.42,0.46c0.9,0.52,1.8,1.05,2.83,1.28
		c1.97,0.44,2.95,0.01,4.01-1.72c1.16-1.89,1.51-1.99,3.31-0.72c1.37,0.97,2.62,2.07,4.46,2.09c3.18,0.03,4.8-1.53,4.47-4.69
		c-0.15-1.41,0.31-2.21,1.4-2.99c1.84-1.32,2.2-2.66,1.56-4.81c-1.5-5.04-5.79-5.98-9.43-5.14c-1.31,0.3-2.56,0.89-3.83,1.38
		c-1.5,0.59-2.81,0.36-3.94-0.81c-0.33-0.34-0.66-0.7-1.03-1.01c-2.24-1.88-4.45-1.94-6.77-0.21c-0.45,0.33-0.89,0.68-1.29,1.07
		c-0.9,0.89-1.89,1.1-3.07,0.6c-1.52-0.64-2.96-0.5-4.26,0.59c-1.11,0.93-2.36,0.9-3.62,0.43c-1.51-0.55-3.05-0.99-4.64-1.17
		c-3.47-0.39-6.2,1.78-5.72,5.24c0.26,1.88,0.07,3.83,0.48,5.72c0.23,1.05,0.47,2.05,1.69,2.36c0.87,0.22,0.74,0.92,0.73,1.55
		c-0.02,0.72-0.33,1.19-1.11,1.32c-2.48,0.43-3.3,2.19-3.65,4.43c-0.51,3.24-1.23,6.43-2.38,9.51c-0.64,1.7-1.68,2.83-3.48,3.29
		c-2.54,0.64-4.97,1.59-7.73,1.14c-1.94-0.32-6.36,2.41-7.02,4.16c-1.18,3.14-2.21,6.33-3.29,9.51c-0.42,1.23-0.04,2.22,1.05,2.89
		c0.65,0.4,0.86,0.86,0.6,1.59c-0.65,1.89-1.29,3.78-1.9,5.68c-0.27,0.84-0.79,1.12-1.63,0.93c-0.62-0.14-1.25-0.28-1.89-0.33
		c-0.88-0.07-1.83-0.18-1.73,1.24c0.08,1.11-0.82,0.96-1.51,1.02c-2.86,0.24-5.44,1.22-7.77,2.88c-8.5,6.06-9.46,17.98-2.03,25.31
		c0.62,0.61,1.27,1.18,2.18,2.02c-2.45,0.17-4.62,0.38-6.8,0.46c-11.74,0.48-23.45,1.37-35.15,2.36c-9.95,0.84-19.89,1.87-29.8,3.06
		c-8.8,1.06-17.59,2.26-26.35,3.61c-10.58,1.63-21.13,3.4-31.65,5.38c-22.69,4.27-45.16,9.46-67.41,15.65
		c-22.17,6.18-44.04,13.23-65.41,21.82c-2,0.8-4.01,1.6-5.97,2.48c-0.88,0.4-1.58,0.4-2.47-0.06
		c-12.61-6.57-24.37-14.34-34.66-24.24c-7.25-6.98-13.49-14.73-18.24-23.63c-2.72-5.1-4.82-10.44-6.18-16.06
		c-0.65-2.71-0.66-2.65-3.37-2.79c-20.49-1.12-40.69-3.95-60.23-10.52c-10.89-3.67-21.24-8.41-30.44-15.41
		c-5.71-4.35-10.71-9.38-14.22-15.72c-3.59-6.47-5.21-13.34-4.13-20.77c0.51-3.51,0.45-3.42-3.24-3.8
		c-15.22-1.56-30.22-4.16-44.45-10.1c-5.26-2.2-10.21-4.94-14.6-8.63c-2.85-2.4-5.2-5.19-6.78-8.59c-1.8-3.85-2.05-7.83-1.02-11.92
		c1.04-4.11,3.14-7.67,5.72-10.98c2.36-3.02,4.97-5.8,7.96-8.25c0.71,0.55,0.43,1.24,0.43,1.81c0.02,5.84,0,11.68,0.02,17.52
		c0.01,1.95,0.04,1.99,2.03,2c4.96,0.02,9.92,0.02,14.88,0c2.11-0.01,2.14-0.04,2.14-2.13c0.01-10.08,0-20.16,0.01-30.23
		c0-2.48,1.14-3.74,3.61-3.99c0.63-0.06,1.28-0.02,1.92-0.02c9.84,0,19.68,0,29.51-0.01c0.61,0,1.26,0.19,2.12-0.41
		c-2.83-3.46-5.62-6.88-8.67-10.62c11.94-4.45,23.92-7.83,36.03-10.69c0.62,1.02,0.39,1.92,0.39,2.77
		c0.02,6.08,0.01,12.16,0.01,18.24c0,2.29,0.02,2.31,2.4,2.31c5.28,0.01,10.56,0,15.84,0c2.62,0,2.4,0.12,2.4-2.53
		c0.01-7.6,0-15.2,0-22.8c0-2.3,0.01-2.3,2.25-2.68c9.84-1.69,19.74-2.94,29.69-3.86c13.55-1.25,27.12-1.62,40.71-1.24
		c1.28,0.04,2.55,0.17,3.82,0.25c0.78,0.05,1.14,0.44,1.11,1.23c-0.02,0.64,0,1.28,0,1.92c0,18.72,0,37.43,0,56.15
		c0,1.84,0.02,3.68,0.1,5.52c0.04,1-0.35,1.63-1.21,2.13c-7.85,4.48-15.18,9.78-22.78,14.64c-1.09,0.7-2.23,1.27-3.56,1.3
		c-0.93,0.02-1.22,0.51-1.21,1.38c0.02,4.24-0.04,8.48,0.04,12.72c0.03,1.35,0.48,2.68,1,3.93c2.18,5.18,6.12,8.71,10.92,11.35
		c2.37,1.3,5.08,1.27,7.71,1.44c0.56,0.04,1.12,0.01,1.68,0.01c107.25,0,214.51-0.01,321.76,0.02c7.25,0,12.7-3.24,16.98-8.79
		c1.89-2.46,2.49-5.26,1.87-8.38c-0.63-3.16-0.46-6.37,0.02-9.55c0.44-2.92,0.1-3.8-2.45-5.33c-6.71-4.03-13.44-8.05-20.16-12.07
		c-0.75-0.45-1.47-0.97-2.24-1.39c-1.64-0.9-2.3-2.2-2.26-4.12c0.1-5.68,0.04-11.36,0.04-17.04c0-9.68,0-19.36,0-29.03
		c0-2.26,0.02-2.25,2.32-2.61c10.04-1.58,20.15-2.2,30.3-2.57c6.96-0.25,13.9,0.04,20.84,0.3c9.58,0.37,19.12,1.34,28.63,2.62
		c8.87,1.19,17.69,2.64,26.45,4.45c2.23,0.46,2.24,0.44,2.24,2.75c0,23.44,0,46.87,0.01,70.31c0,6,3.76,10.76,9.55,12.2
		c1.34,0.33,2.7,0.31,4.05,0.31c21.43,0.01,42.87-0.01,64.3,0.03c3.66,0.01,6.98-0.76,9.72-3.3c2.86-2.66,4.12-5.99,4.11-9.87
		c-0.02-10.08-0.01-20.16-0.01-30.23c0-2.56,0-5.11,0-7.59c0.48-0.44,0.83-0.17,1.15,0.03c9.63,5.97,18.64,12.69,25.93,21.48
		c3.39,4.09,6.23,8.52,7.69,13.7c2.08,7.35,0.57,13.9-4.4,19.67c-4.43,5.14-10.07,8.57-16.15,11.37
		c-5.31,2.44-10.84,4.26-16.48,5.78c-1.14,0.31-2.33,0.48-3.6,1.25c1.21,1.05,2.34,2.03,3.48,3c10.14,8.63,19.48,18.02,27.14,28.98
		c6.32,9.05,11.27,18.75,13.85,29.56c0.93,3.9,1.31,7.88,1.6,11.86c0.12,1.58-0.05,1.68-1.56,1.37
		c-10.55-2.22-21.12-4.33-31.73-6.21c-9.52-1.68-19.05-3.22-28.61-4.63c-9.25-1.36-18.51-2.6-27.79-3.66
		c-8.81-1.01-17.64-1.88-26.47-2.64c-10.59-0.91-21.19-1.63-31.8-2.23c-2.63-0.15-5.26-0.15-7.94-0.5c0.13-0.85,0.83-1.18,1.29-1.65
		c2.51-2.52,3.98-5.55,4.57-9.05c0.15-0.87-0.09-1.91,1.1-2.44c0.49-0.22,0.29-1.03,0.26-1.57c-0.59-9.27-7.58-15.88-15.51-17.03
		c-4.73-0.68-9.07,0.27-13,2.94c-1.1,0.75-1.62,0.5-2.61-0.26c-2.41-1.84-1.55-3.82-0.67-5.91c0.59-1.41,1.74-2.06,3.19-1.7
		c1.01,0.25,1.98,0.61,2.99,0.88c1.51,0.4,3.03,0.37,4.46-0.29c1.54-0.72,2.76-1.88,2.53-3.69c-0.21-1.63,0.54-2.34,1.84-2.86
		c1.93-0.78,3.08-2.2,3.4-4.28c0.13-0.86-0.08-1.37-1.1-1.35c-0.71,0.01-1.44-0.1-2.14-0.22c-2.6-0.44-4.94-1.5-6.61-3.57
		c-2.98-3.69-5.57-7.59-6.03-12.54c-0.17-1.82-0.55-3.63-0.59-5.47C591.33,554.41,591.11,552.75,590.23,550.98z M109.86,531.76
		c0.06,2.1,0.76,4.07,1.26,6.08c0.35,1.38,1.1,1.88,2.39,1.72c1.32-0.17,1.9-0.87,1.83-2.32c-0.02-0.48-0.1-0.96-0.23-1.42
		c-0.52-1.86,0.09-3.16,1.67-4.28c2.6-1.85,5.34-3.57,7.57-5.87c1.16-1.2,2.31-1.47,3.84-1.18c3.37,0.64,6.76,1.2,10.14,1.78
		c2.4,0.41,2.67,0.71,3.07,3.19c0.44,2.76,0.87,5.52,1.42,8.26c0.27,1.36,1.23,1.96,2.4,1.82c1.13-0.14,1.61-0.71,1.68-2.23
		c0.06-1.44,0-2.88,0.02-4.32c0.06-3.44,0.17-6.88,1.59-10.11c0.78-1.77,1.31-3.59,1.59-5.51c0.18-1.26,0.5-2.51,0.7-3.77
		c0.22-1.43,1.06-2.09,2.45-2.12c2.61-0.05,4.51-1.42,6.14-3.29c1.74-1.99,1.6-3.09-0.84-4.22c-3.43-1.6-6.07-3.8-7.02-7.64
		c-0.25-1.01-0.93-1.5-1.99-1.05c-0.67,0.28-1.11,0.26-1.62-0.41c-1.61-2.12-2.56-1.95-3.53,0.52c-0.12,0.3-0.19,0.61-0.3,0.91
		c-1.39,3.83-2.8,7.65-4.16,11.48c-0.46,1.3-1.07,2.3-2.63,2.36c-6.86,0.26-13.71,0.87-20.58,0.85c-3.42-0.01-6.14-1.53-8.25-4.19
		c-0.45-0.56-0.83-1.18-1.29-1.72c-0.48-0.56-1.14-0.62-1.74-0.27c-0.68,0.4-1.01,1.03-0.66,1.83c0.19,0.43,0.43,0.86,0.69,1.25
		c1.51,2.25,3.46,3.97,5.99,4.98c1.08,0.43,1.55,0.96,0.97,2.17c-1.35,2.83-1.22,5.75-0.22,8.63c0.51,1.45,0.36,2.57-0.76,3.69
		C110.31,528.55,109.8,530.07,109.86,531.76z"/>
	<path class="st2" d="M390.7,706.45c0.13-0.73,0.81-0.92,1.3-1.27c12.64-8.94,26.19-16.25,40.36-22.45
		c21.67-9.48,44.22-16.14,67.31-21.08c13.28-2.84,26.66-5.09,40.13-6.84c10.7-1.38,21.41-2.5,32.17-3.35
		c13.38-1.06,26.79-1.64,40.2-2.04c12.47-0.37,24.94-0.3,37.41-0.14c9.02,0.11,18.05,0.49,27.06,0.95
		c9.73,0.5,19.46,1.11,29.17,1.89c12.18,0.98,24.34,2.14,36.48,3.61c7.77,0.94,15.52,1.99,23.28,3.07c0.79,0.11,1.58,0.22,2.44,0.69
		c-1.17,4.57-3.09,8.83-5.55,12.85c-5.76,9.43-13.84,16.48-23.14,22.21c-11.26,6.94-23.54,11.4-36.31,14.61
		c-10.48,2.63-21.11,4.28-31.86,5.38c-14.43,1.49-28.89,1.74-43.35,1.2c-13.42-0.5-26.76-1.93-40.03-4.05
		c-26.52-4.24-52.25-11.32-77.18-21.29c-4.15-1.66-8.28-3.4-12.34-5.27c-1.6-0.74-2.88-0.69-4.47,0.04
		c-17.31,7.91-35.44,13.2-54.12,16.66c-10.92,2.02-21.94,3.35-33.04,4.09c-5.02,0.34-10.06,0.27-15.08,0.74
		C391.28,706.69,390.95,706.77,390.7,706.45z"/>
	<path class="st2" d="M374.25,532.96c57.18,0,114.36,0,171.54,0c3.86,0,3.82,0,3.6,3.88c-0.32,5.51-2.85,9.54-7.8,12.02
		c-1.31,0.66-2.68,0.98-4.15,1.04c-4.87,0.21-9.74,0.55-14.61,0.2c-4.08-0.29-8.13-0.02-12.2,0.1c-2.39,0.07-4.78,0.03-7.18-0.23
		c-2.13-0.23-4.3-0.15-6.46,0.06c-3.35,0.32-6.71,0.33-10.06-0.02c-2.48-0.26-4.95-0.32-7.42-0.02c-3.2,0.38-6.39,0.32-9.57,0.05
		c-2-0.17-3.99-0.32-5.98-0.14c-4.79,0.45-9.57,0.4-14.36,0.01c-2.39-0.19-4.78-0.08-7.18,0.18c-2.63,0.28-5.28,0.26-7.9-0.01
		c-3.04-0.32-6.05-0.27-9.09,0.01c-2.95,0.28-5.91,0.22-8.86-0.09c-2.55-0.27-5.11-0.29-7.66,0c-2.16,0.24-4.32,0.34-6.46,0.18
		c-3.67-0.28-7.33-0.39-11-0.06c-3.67,0.32-7.34-0.07-11.01-0.21c-4.63-0.17-9.26,0.65-13.89,0.21c-6.23-0.58-12.45,0.3-18.68,0.04
		c-9.34-0.39-18.68,0.11-28.03,0.03c-2.72-0.02-5.42,0.01-8.14-0.21c-2.3-0.18-4.64-0.11-6.95,0.03c-3.12,0.19-6.21,0.29-9.33-0.01
		c-3.1-0.3-6.23-0.18-9.33,0.13c-4.88,0.49-9.74-0.63-14.61-0.22c-4.47,0.37-8.93,0.37-13.4-0.01c-2.23-0.19-4.47-0.04-6.7,0.18
		c-2.95,0.29-5.91,0.25-8.86-0.07c-2.32-0.25-4.65-0.34-6.94-0.04c-3.04,0.39-6.07,0.28-9.1,0.12c-3.6-0.19-7.18-0.31-10.77,0.04
		c-2.16,0.21-4.31,0.07-6.45-0.31c-5.74-1.01-9.85-5.7-10.05-11.45c-0.04-1.2-0.25-2.39-0.29-3.58c-0.04-1.39,0.27-1.71,1.61-1.81
		c0.72-0.05,1.44-0.02,2.16-0.02C259.9,532.96,317.07,532.96,374.25,532.96z M546.78,536.88c0-0.51,0.01-0.83,0-1.15
		c-0.03-0.62-0.3-1.11-0.96-1.17c-0.68-0.06-0.99,0.43-1.11,1.02c-0.08,0.39-0.06,0.8-0.09,1.19c-0.25,3.32-1.97,5.65-4.83,7.23
		c-0.35,0.19-0.72,0.34-1.06,0.55c-0.37,0.24-0.53,0.62-0.39,1.04c0.16,0.5,0.55,0.83,1.08,0.76c0.46-0.07,0.93-0.25,1.35-0.47
		C544.42,543.9,546.42,540.83,546.78,536.88z"/>
	<path class="st2" d="M641.89,462.9c0-24.22,0-48.45,0-72.67c0-3.61,1.73-5.59,5.33-6.05c0.79-0.1,1.59-0.09,2.39-0.09
		c22.78,0,45.57,0,68.35-0.01c2.04,0,3.97,0.2,5.7,1.41c1.34,0.94,2.11,2.15,2.12,3.81c0.01,0.56,0,1.12,0,1.68
		c0,47.73,0,95.46,0,143.18c0,1.2-0.03,2.39-0.26,3.58c-0.78,4.04-3.77,6.82-7.86,7.2c-0.95,0.09-1.92,0.08-2.88,0.08
		c-20.71,0-41.41,0-62.12,0c-0.8,0-1.6,0-2.4-0.05c-5.03-0.31-8.4-3.86-8.4-8.92C641.88,511.67,641.89,487.28,641.89,462.9z
		 M648.12,457.66c0,12.07,0,24.14,0,36.22c0,7.04,0.12,14.07-0.05,21.1c-0.08,3.42,2.89,6.87,6.66,6.56
		c2.46-0.2,4.95-0.04,7.43-0.04c17.11,0,34.22,0.01,51.33,0c4.09,0,6.54-2.45,6.62-6.53c0.01-0.4,0-0.8,0-1.2
		c0-37.5,0-74.99,0-112.49c0-0.56,0.01-1.12-0.01-1.68c-0.05-1.68-0.74-3.06-1.93-4.25c-1.42-1.42-3.16-1.69-5.06-1.69
		c-19.35,0.02-38.69,0.01-58.04,0.01c-0.48,0-0.96-0.01-1.44,0.04c-2.47,0.23-4.09,1.59-5.09,3.81c-0.48,1.07-0.43,2.18-0.43,3.3
		C648.12,419.77,648.12,438.71,648.12,457.66z M684.53,525.43c-3.8,0.07-6.98,3.35-6.94,7.14c0.04,3.81,3.3,7.03,7.09,7
		c3.94-0.03,7.17-3.36,7.05-7.26C691.6,528.47,688.34,525.35,684.53,525.43z"/>
	<path class="st2" d="M42.68,490.55c0-4.79-0.02-9.58,0.01-14.37c0.01-1.71,0.05-1.74,1.73-1.76c2.47-0.03,4.95-0.02,7.43,0
		c1.94,0.01,1.97,0.03,1.97,2.01c0.01,7.98,0.01,15.97,0.01,23.95c0,1.68-0.02,3.35,0,5.03c0.01,0.89-0.33,1.31-1.26,1.3
		c-2.87-0.03-5.75-0.04-8.62,0c-1.38,0.02-1.26-0.9-1.26-1.79C42.68,500.14,42.68,495.34,42.68,490.55z"/>
	<path class="st2" d="M561.76,600.66c0.9-0.06,1.52,0.53,2.07,1.06c1.74,1.68,4.4,2.37,5.29,4.96c0.11,0.31,0.46,0.43,0.8,0.43
		c1.79,0.02,2.73,1.53,4.07,2.34c0.42,0.25,0.7,0.64,0.55,1.21c-1.07,4.08,0.93,6.53,4.54,8.2c-0.54,0.97-1.09,1.77-1.84,2.5
		c-0.91,0.91-0.53,2.13,0.75,2.27c1.58,0.18,3.19,0.07,4.79,0.04c0.27-0.01,0.72-0.25,0.77-0.47c0.41-1.65,1.7-1.34,2.86-1.4
		c1.62-0.08,1.66-0.16,1.47-1.9c-0.04-0.4-0.08-0.79-0.02-1.25c1.22,2.48,2.74,4.75,5.17,7c-12.43-0.22-24.29-0.23-36.69,0
		c4.21-3.71,6.56-7.89,6.6-13.02c0.67-0.62,1.32,0.24,2.01-0.28c0.04-3.42-0.78-6.68-2.51-9.73c-0.31-0.55-0.61-1.11-0.91-1.67
		C561.61,600.85,561.69,600.75,561.76,600.66z"/>
	<path class="st2" d="M576.62,574.13c-0.72,0-1.44,0-2.15,0c-0.52,0-1.02,0.17-1.07,0.73c-0.1,1.17-0.87,1.3-1.81,1.44
		c-2.13,0.33-4.24,0.73-6.35,1.17c-2.62,0.56-3.66,2.42-2.79,4.98c0.51,1.52,1.37,2.88,2.18,4.25c2.35,3.99,4.72,7.97,7.07,11.95
		c0.37,0.62,0.72,1.24,1.09,1.86c0.36,0.62,0.84,1.29,0.17,1.94c-0.79,0.76-1.53,0.43-2.32-0.18c-4.75-3.65-9.51-7.28-14.31-10.86
		c-0.87-0.65-1.03-1.31-0.62-2.25c0.25-0.58,0.45-1.2,0.63-1.81c0.25-0.84,0.67-1.7,0.62-2.53c-0.06-0.9-1.2-0.9-1.84-1.33
		c-0.49-0.33-0.6-0.71-0.41-1.21c0.9-2.47,1.72-4.98,2.75-7.39c0.65-1.52,1.45-1.74,2.84-0.91c0.99,0.59,1.84,0.74,2.91,0.28
		c0.97-0.42,2.02-0.31,3.06-0.04c1.48,0.38,2.88,0.13,4.01-0.96c0.68-0.65,1.42-0.89,2.35-0.96c2.94-0.25,5.9-0.19,8.81-0.74
		c0.7-0.13,1.08,0.14,1.27,0.75c0.19,0.6-0.23,0.83-0.7,1.04C580.3,574.16,578.46,574.15,576.62,574.13z"/>
	<path class="st2" d="M570.81,583.96c3.27,0,6.04,0,9.04,0c-1.3,2.5-1.03,5.25-2.06,7.74c-0.7,1.7-0.55,3.54,0.25,5.34
		c1.14,2.55,1.59,5.33,2.34,8.01c0.12,0.44,0.24,1.01-0.43,1.14c-0.61,0.12-0.75-0.37-0.93-0.84c-1.61-4.14-2.88-8.38-4.11-12.64
		C574.07,589.73,573.2,586.75,570.81,583.96z"/>
	<path class="st2" d="M586.57,603.92c-0.65-2.12-0.31-3.8,0.58-5.54c0.81,0.2,1.11,0.9,1.61,1.34c0.32,0.28,0.42,0.67,0.14,1.05
		C588.17,601.76,587.44,602.74,586.57,603.92z"/>
	<path class="st2" d="M578.28,564.12c0.38,0.09,0.55,0.34,0.71,0.63c1.51,2.67,1.21,3.11-2.23,3.09
		C577.28,566.58,577.78,565.35,578.28,564.12z"/>
	<path class="st2" d="M584.81,596.47c-1.05-2.13-1.05-2.13,1.19-4.04C585.61,593.72,585.28,594.84,584.81,596.47z"/>
	<path class="st2" d="M561.53,600.94c-0.89-0.85-1.78-1.71-2.68-2.56c1.08,0.65,2.5,0.86,2.9,2.28
		C561.69,600.75,561.61,600.85,561.53,600.94z"/>
	<path class="st2" d="M553.75,594.51c1.25,0.18,1.72,0.95,2.32,1.49C555.3,595.73,554.46,595.59,553.75,594.51z"/>
	<path class="st2" d="M539.9,245.08c-11.67,0-23.35-0.01-35.02,0c-10.68,0.01-16.82-6.54-19.37-14.62
		c-3.34-10.58,3.95-22.31,15-24.73c1.8-0.39,3.61-0.61,5.47-0.49c2.61,0.17,3.32-0.52,3.46-3.06c0.37-7.16,5.64-12.72,12.76-13.21
		c3.68-0.25,6.88,1.17,9.57,3.66c2.04,1.89,3.21,1.9,5.03-0.11c9.2-10.19,25.24-9.91,34.66-0.9c4.28,4.09,6.76,9.06,7.55,14.87
		c0.3,2.22,1.17,3.6,3.41,4.34c5.87,1.94,11.36,8.62,11.31,15.85c-0.08,11.75-8.78,18.31-17.85,18.37
		c-9.27,0.06-18.55,0.01-27.82,0.01C545.33,245.08,542.62,245.08,539.9,245.08z"/>
	<path class="st2" d="M535.81,188.46c-0.02-0.36,0.08-0.6,0.51-0.51C536.5,188.47,536.28,188.59,535.81,188.46z"/>
	<path class="st2" d="M650.28,149.1c-9.11,0-18.22,0.02-27.33-0.01c-7.3-0.02-13.26-4.99-14.73-12.02
		c-1.27-6.05,1.87-14.42,10.16-17.18c1.74-0.58,3.53-0.91,5.4-0.75c2.26,0.19,3.15-0.53,3.2-2.77c0.09-4.17,3.2-8.84,8.7-9.67
		c3-0.46,5.51,0.52,7.74,2.37c2.29,1.9,2.91,1.91,4.92-0.26c6.42-6.95,18.34-7.22,25.59-0.6c3.18,2.9,5.16,6.45,5.93,10.69
		c0.08,0.47,0.27,0.93,0.29,1.4c0.1,1.67,1.06,2.48,2.57,3.05c4.08,1.54,6.76,4.58,8.04,8.65c2.47,7.83-3.31,16.97-12.45,17.07
		C668.98,149.18,659.63,149.1,650.28,149.1z"/>
	<path class="st2" d="M549.26,52.22c-5.99,0-11.98,0.06-17.98-0.02c-4.41-0.06-7.8-2.81-8.94-6.98c-1.53-5.6,2.77-11.3,8.84-11.72
		c0.4-0.03,0.8,0.02,1.2,0.02c1.21,0,1.96-0.51,2.09-1.8c0.07-0.71,0.2-1.43,0.4-2.11c0.91-3.2,5.43-5.99,9.31-3.03
		c2.24,1.71,2.62,1.66,4.61-0.23c6.1-5.8,16.48-3.1,19.1,4.99c0.07,0.23,0.14,0.46,0.17,0.7c0.24,2.39,1.29,3.89,3.68,4.97
		c3.29,1.49,4.7,5.51,3.81,8.99c-0.95,3.69-3.96,6.18-7.83,6.22C561.56,52.28,555.41,52.23,549.26,52.22
		C549.26,52.22,549.26,52.22,549.26,52.22z"/>
	<path class="st2" d="M716.44,212.39c-0.41-0.13-0.89-0.23-1.3-0.44c-0.99-0.49-1.08-1.08-0.26-1.8c1.02-0.9,2.25-1.46,3.5-1.97
		c1.1-0.45,2.22-0.85,3.33-1.26c0.51-0.19,0.93-0.04,1.23,0.4c0.2,0.29,0.21,0.64,0.01,0.89
		C721.24,210.27,719.18,211.79,716.44,212.39z"/>
	<path class="st2" d="M366.45,416.2c2.47-2.47,4.95-4.94,7.41-7.42c0.49-0.49,0.91-0.56,1.41-0.03c2.46,2.58,4.94,5.15,7.43,7.74
		c-0.23,0.41-0.68,0.2-1.03,0.2c-3.67,0.05-3.22-0.36-3.24,3.16c-0.02,4.95-0.07,9.91,0.03,14.86c0.03,1.5-0.39,2.58-1.51,3.54
		c-1.27,1.08-2.44,2.27-3.66,3.41c0.07,0.19,0.14,0.38,0.21,0.56c1.22,0.01,2.44,0.05,3.66,0.02c0.92-0.02,1.32,0.35,1.27,1.27
		c-0.03,0.48,0,0.96,0,1.44c0,14.78,0,29.56,0,44.34c0,0.4-0.03,0.8,0,1.2c0.1,1.1-0.29,1.62-1.48,1.57
		c-1.67-0.07-3.35-0.03-5.03-0.02c-0.79,0-1.18-0.34-1.16-1.15c0.01-0.48,0-0.96,0-1.44c0-10.07,0-20.13,0-30.2
		c0-0.4,0.03-0.8,0-1.2c-0.09-1.01,0.3-1.47,1.36-1.43c1.19,0.05,2.38,0.01,3.87,0.01c-0.8-1.67-2.05-2.68-3.21-3.61
		c-1.59-1.28-2.08-2.73-2.06-4.74c0.1-9.59,0.05-19.17,0.05-28.76c0-0.56-0.02-1.12-0.01-1.68c0.02-0.81-0.38-1.15-1.16-1.14
		c-0.94,0.01-1.89,0-2.83,0C366.65,416.55,366.55,416.38,366.45,416.2z"/>
	<path class="st2" d="M378.33,439.86c2.66-2.67,5.14-5.15,7.62-7.63c0.37-0.37,0.78-0.59,1.23-0.12c2.52,2.64,5.03,5.29,7.6,8
		c-0.54,0.27-1.26,0.12-1.93,0.12c-2.68,0-2.41,0.03-2.42,2.55c0,0.48,0,0.96,0,1.44c0,14.87,0,29.74,0,44.61
		c0,0.56-0.04,1.12,0.01,1.68c0.09,1.1-0.29,1.64-1.48,1.58c-1.44-0.07-2.88,0.01-4.32-0.02c-1.77-0.03-1.81-0.05-1.81-1.93
		c-0.01-9.67-0.01-19.35-0.01-29.02c0-6.24,0.01-12.47,0-18.71c0-2.12-0.02-2.1-2.06-2.17C380.06,440.2,379.34,440.39,378.33,439.86
		z"/>
	<path class="st2" d="M342.33,447.43c1.14-1.61,2.33-2.53,3.39-3.57c1.43-1.4,2.83-2.83,4.25-4.23c0.39-0.39,0.79-0.89,1.39-0.3
		c2.48,2.46,4.95,4.93,7.43,7.4c-1,1.03-2.01,0.67-2.92,0.69c-1.04,0.02-1.54,0.45-1.36,1.44c0.36,1.93-0.66,3.14-1.97,4.31
		c-1.05,0.93-2,1.99-3.2,3.19c1.46,0.5,2.65,0.29,3.8,0.28c1.06-0.01,1.45,0.42,1.36,1.43c-0.03,0.4,0,0.8,0,1.2
		c0,10.08,0,20.15,0,30.23c0,0.48-0.02,0.96,0,1.44c0.02,0.82-0.4,1.13-1.18,1.13c-1.68-0.01-3.36-0.02-5.04,0.01
		c-0.89,0.01-1.35-0.36-1.33-1.27c0.01-0.64,0-1.28,0-1.92c0-12.63,0-25.27,0-37.9c0-0.56,0.01-1.12,0-1.68
		c-0.05-1.8-0.06-1.81-1.92-1.85C344.25,447.41,343.48,447.43,342.33,447.43z"/>
	<path class="st2" d="M354.69,454.46c2.66-2.8,5.23-5.51,7.99-8.41c2.77,2.79,5.71,5.28,8.69,8.59c-1.56,0-2.63,0.01-3.7,0
		c-0.78-0.01-1.18,0.35-1.16,1.15c0.01,0.56-0.01,1.12-0.01,1.68c0,10.46,0,20.91,0,31.37c0,0.56-0.04,1.12,0.01,1.68
		c0.09,1.1-0.3,1.62-1.49,1.57c-1.59-0.07-3.19-0.03-4.79-0.02c-0.91,0.01-1.31-0.43-1.29-1.31c0.01-0.56,0-1.12,0-1.68
		c0-10.38,0-20.75,0-31.13c0-0.48,0.01-0.96,0-1.44c-0.05-1.81-0.06-1.8-1.9-1.88C356.26,454.59,355.46,454.76,354.69,454.46z"/>
	<path class="st2" d="M406.5,455.74c-0.68,0.25-1.57,0.11-2.42,0.08c-1.22-0.05-1.71,0.4-1.68,1.66c0.06,3.19-0.05,6.39,0.05,9.58
		c0.05,1.55-0.32,2.74-1.53,3.77c-1.33,1.13-2.5,2.42-4.02,3.92c1.63,0.35,2.95,0.19,4.25,0.19c0.9,0.01,1.29,0.32,1.28,1.26
		c-0.02,4.87-0.02,9.74,0,14.62c0,0.95-0.45,1.25-1.32,1.24c-1.68-0.02-3.35-0.02-5.03,0c-0.91,0.01-1.32-0.38-1.26-1.3
		c0.03-0.56,0-1.12,0-1.68c0-10.38,0-20.77,0.01-31.15c0-1.16,0.15-2.25-1.63-2.18c-0.75,0.03-1.2-1.53-0.56-2.33
		c1.65-2.05,3.63-3.81,5.58-5.58c0.62-0.56,1.02,0.12,1.37,0.49C401.88,450.78,404.16,453.23,406.5,455.74z"/>
	<path class="st2" d="M330.61,470.03c0.87-0.88,1.74-1.76,2.62-2.63c1.53-1.51,3.13-2.97,4.6-4.54c0.91-0.97,1.52-0.75,2.31,0.11
		c1.24,1.35,2.55,2.64,3.89,3.9c0.72,0.67,0.86,1.43,0.88,2.36c0.03,1.18-0.75,1.18-1.55,1.34c-0.75,0.15-0.63,0.83-0.64,1.36
		c-0.02,2.4-0.01,4.79-0.01,7.19c0,3.75-0.03,7.51,0.01,11.26c0.01,1.2-0.37,1.77-1.65,1.71c-1.43-0.07-2.88-0.08-4.31,0
		c-1.27,0.07-1.65-0.43-1.64-1.67c0.05-5.67,0.02-11.34,0.02-17.01c0-0.56-0.03-1.12,0-1.68c0.05-0.94-0.43-1.28-1.31-1.26
		c-1.01,0.02-2.01,0.01-3.02,0.01C330.76,470.32,330.69,470.17,330.61,470.03z"/>
	<path class="st2" d="M402.37,472.96c2.7-2.89,5.33-5.7,8.02-8.57c3,2.57,5.57,5.38,8.45,8.2c-1.11,0.59-2.07,0.39-2.96,0.35
		c-1.22-0.05-1.7,0.38-1.67,1.64c0.06,3.03,0.02,6.07,0.02,9.1c0,2.24-0.04,4.47,0.02,6.71c0.03,1.23-0.42,1.74-1.67,1.68
		c-1.43-0.07-2.88-0.08-4.31,0c-1.3,0.08-1.62-0.49-1.61-1.7c0.05-5.11,0.03-10.22,0.02-15.33c-0.01-2.05-0.03-2.05-2.13-2.08
		C403.77,472.96,403.01,472.96,402.37,472.96z"/>
	<path class="st2" d="M208.06,262.53c-0.04,3.38-2.36,5.64-5.76,5.61c-3.31-0.03-5.7-2.45-5.69-5.77c0.01-3.12,2.73-5.8,5.83-5.74
		C205.62,256.7,208.09,259.29,208.06,262.53z"/>
	<path class="st2" d="M183.25,268.14c-3.35,0.02-5.84-2.36-5.85-5.6c-0.01-3.17,2.58-5.87,5.68-5.91c3.16-0.04,5.76,2.54,5.78,5.74
		C188.88,265.8,186.61,268.12,183.25,268.14z"/>
	<path class="st2" d="M227.25,262.48c-0.02,3.34-2.38,5.67-5.75,5.67c-3.3,0-5.8-2.49-5.75-5.72c0.05-3.15,2.73-5.81,5.81-5.79
		C224.75,256.66,227.27,259.25,227.25,262.48z"/>
	<path class="st2" d="M146.31,520.44c-1.83-3.35-3.65-6.69-5.64-10.33c1.98,0.17,3.41,1.04,4.89,1.65c1.15,0.47,2.79,0.47,3.28,1.66
		c0.44,1.05-0.56,2.24-0.85,3.4c-0.31,1.21-0.78,2.38-1.18,3.57C146.64,520.4,146.47,520.42,146.31,520.44z"/>
	<path class="st2" d="M680.55,474.88c-11.26-0.03-20.39-9.2-20.35-20.49c0.05-12.7,11.02-20.55,20.69-20.42
		c8.6,0.12,20.13,6.8,20.2,20.4C701.16,467.43,690.36,475.1,680.55,474.88z M680.69,437.85c-9.15,0-16.67,7.47-16.67,16.55
		c0,9.14,7.45,16.62,16.57,16.65c9.14,0.03,16.57-7.37,16.65-16.56C697.32,445.4,689.81,437.85,680.69,437.85z"/>
	<path class="st2" d="M699.28,470.61c1.05,0.57,1.77,1.56,2.61,2.39c2.84,2.8,5.66,5.63,8.47,8.46c1.41,1.42,1.4,1.43,0.07,2.78
		c-1.34,1.35-1.35,1.36-2.75-0.04c-3.22-3.21-6.44-6.43-9.65-9.65c-1.62-1.62-1.71-1.29,0.08-3.09
		C698.43,471.13,698.74,470.74,699.28,470.61z"/>
</g>
</svg>
