<?xml version="1.0" encoding="utf-8"?>
<!-- Generator: Adobe Illustrator 26.0.2, SVG Export Plug-In . SVG Version: 6.00 Build 0)  -->
<svg version="1.1" id="Layer_1" xmlns="http://www.w3.org/2000/svg" xmlns:xlink="http://www.w3.org/1999/xlink" x="0px" y="0px"
	 viewBox="0 0 600 600" style="enable-background:new 0 0 600 600;" xml:space="preserve">
<style type="text/css">
	.st0{display:none;}
	.st1{display:inline;fill:none;stroke:#00DF8D;stroke-width:5;stroke-linecap:square;stroke-miterlimit:10;}
	.st2{display:inline;fill:none;stroke:#00DF8D;stroke-width:5;stroke-miterlimit:10;}
	.st3{fill:none;stroke:#65D19A;stroke-width:20;stroke-linecap:round;stroke-miterlimit:10;}
</style>
<g id="_x34_" class="st0">
	<polyline class="st1" points="569.8,213.1 569.8,511.8 29.4,511.8 29.4,162.9 569.8,162.9 	"/>
	<polyline class="st1" points="308,162.9 308,88.9 455.7,88.9 455.7,125.9 	"/>
	<rect x="90.4" y="121" class="st1" width="64.8" height="41.9"/>
	
		<ellipse transform="matrix(9.853766e-02 -0.9951 0.9951 9.853766e-02 -135.3969 345.134)" class="st1" cx="122.8" cy="247.3" rx="28.4" ry="28.4"/>
	<circle class="st1" cx="381.8" cy="337.3" r="134"/>
	<circle class="st1" cx="381.8" cy="337.3" r="90.1"/>
	<path class="st1" d="M381.8,302c-19.5,0-35.3,15.8-35.3,35.3s15.8,35.3,35.3,35.3c14,0,26-8.1,31.8-19.9c2.3-4.7,3.6-9.9,3.6-15.5"
		/>
	<line class="st1" x1="346.5" y1="125.9" x2="417.2" y2="125.9"/>
	<line class="st1" x1="111.1" y1="319.2" x2="134.5" y2="319.2"/>
</g>
<g id="_x31_2" class="st0">
	<rect x="27.8" y="90.8" class="st2" width="541.6" height="433"/>
	<line class="st1" x1="27.8" y1="150.6" x2="512.1" y2="150.6"/>
	<line class="st2" x1="61.8" y1="121.6" x2="81.3" y2="121.6"/>
	<line class="st2" x1="100.9" y1="121.6" x2="120.4" y2="121.6"/>
	<line class="st2" x1="139.9" y1="121.6" x2="159.4" y2="121.6"/>
	<polyline class="st1" points="473.6,307.8 85.2,307.8 85.2,202.6 512.1,202.6 512.1,307.8 	"/>
	<rect x="85.2" y="353.4" class="st1" width="106.6" height="48.7"/>
	<rect x="245.3" y="353.4" class="st1" width="106.6" height="48.7"/>
	<rect x="405.5" y="353.4" class="st1" width="106.6" height="48.7"/>
	<line class="st1" x1="85.2" y1="437.2" x2="191.8" y2="437.2"/>
	<line class="st1" x1="85.2" y1="472.4" x2="139.9" y2="472.4"/>
	<line class="st1" x1="245.3" y1="437.2" x2="352" y2="437.2"/>
	<line class="st1" x1="245.3" y1="472.4" x2="300" y2="472.4"/>
	<line class="st1" x1="405.5" y1="437.2" x2="512.1" y2="437.2"/>
	<line class="st1" x1="405.5" y1="472.4" x2="460.2" y2="472.4"/>
</g>
<g id="_x38_">
	<g>
		<polyline class="st3" points="92.8,517.2 74,522 98.4,426.3 423.1,101.6 		"/>
		<polyline class="st3" points="494.4,172.9 169.7,497.6 129.3,507.9 		"/>
		<line class="st3" x1="447.3" y1="125.7" x2="494.4" y2="172.9"/>
		<path class="st3" d="M494.4,172.9l14.6-14.6c11.2-11.2,11.2-29.4,0-40.6L478.3,87c-11.2-11.2-29.4-11.2-40.6,0l-14.6,14.6"/>
		<line class="st3" x1="458.8" y1="137.2" x2="167.5" y2="428.5"/>
		<line class="st3" x1="108" y1="433.5" x2="141" y2="466.5"/>
	</g>
	<line class="st3" x1="423" y1="526.2" x2="283.5" y2="386.7"/>
	<polyline class="st3" points="413.8,311.6 562.5,460.3 459.8,563 	"/>
	<polyline class="st3" points="177.2,280.4 35.5,138.8 138.2,36 310.9,208.8 	"/>
	<line class="st3" x1="515" y1="416.1" x2="496.2" y2="434.9"/>
	<line class="st3" x1="473.4" y1="374.5" x2="454.6" y2="393.3"/>
	<line class="st3" x1="431.9" y1="333" x2="413" y2="351.8"/>
	<line class="st3" x1="265.6" y1="166.7" x2="246.8" y2="185.5"/>
	<line class="st3" x1="224" y1="125.1" x2="193.6" y2="155.5"/>
	<line class="st3" x1="182.4" y1="83.5" x2="163.6" y2="102.3"/>
	<line class="st3" x1="473.4" y1="374.5" x2="443" y2="404.9"/>
</g>
</svg>
