<?xml version="1.0" encoding="utf-8"?>
<!-- Generator: Adobe Illustrator 26.2.0, SVG Export Plug-In . SVG Version: 6.00 Build 0)  -->
<svg version="1.1" id="Layer_1" xmlns="http://www.w3.org/2000/svg" xmlns:xlink="http://www.w3.org/1999/xlink" x="0px" y="0px"
	 viewBox="0 0 712 146" style="enable-background:new 0 0 712 146;" xml:space="preserve">
<style type="text/css">
	.st0{fill:#FFFFFF;}
</style>
<g>
	<path class="st0" d="M410.6,85.5c3-10.2,6-19.5,8.6-29c0.7-2.7,2.1-3.4,4.5-3.3c6,0.1,12,0.1,18,0c2.4,0,3.4,0.6,3.8,3.3
		c2.5,16.8,5.2,33.5,7.8,50.2c0.2,1.2,0.2,2.7,1.3,2.9c1.4,0.3,1.6-1.4,2.1-2.4c5-10.9,8.2-22.4,12.5-33.6
		c2.2-5.7,4.3-11.5,6.1-17.4c0.8-2.6,2.3-3.2,4.7-3.1c5.8,0.1,11.7,0.4,17.5-0.1c4.6-0.4,6.3,1.5,7.7,5.5
		c5.6,16.7,11.5,33.2,17.4,49.8c0.3,0.9,0.7,1.8,1.9,2.6c0-6.5,0-13,0-19.5c0-11.3,0.1-22.6-0.1-34c-0.1-3.6,1.1-4.6,4.6-4.4
		c6.3,0.3,13.7-1.8,18.7,0.9c4.7,2.5,6.7,9.8,9.9,15c3,4.9,5.9,9.9,9.9,14.6c0-6.3,0-12.7,0-19c0-11.4,0-11.4,11.4-11.4
		c12.1,0,12.1,0,12.1,12.2c0,16.5-0.1,33,0.1,49.4c0,3.7-0.9,5.3-4.7,4.8c-1.5-0.2-3.1-0.3-4.5,0c-11.7,2.6-18.4-2.8-22.8-13.3
		c-2.5-5.9-6.5-11.2-9.8-16.7c-0.3-0.5-0.9-0.9-1.3-1.4c0,9-0.1,18,0.1,27c0.1,3.6-1.1,4.5-4.6,4.4c-12.8-0.2-25.7-0.2-38.5,0
		c-3.5,0.1-5.4-0.8-5.6-4.5c-0.1-3-1.5-4.5-4.8-4.1c-2.3,0.3-4.7,0.3-7,0c-4.8-0.6-8.2,0.5-8.3,6.2c-0.1,2.3-1.9,2.3-3.7,2.3
		c-13.5,0-27-0.1-40.5,0c-2.9,0-3.6-1.2-3.8-3.8c-0.9-8.9-2-17.7-3.1-26.5c-2.4-0.1-2.5,1.8-2.7,3c-1.5,8-4.7,15.5-6.5,23.5
		c-0.7,2.9-2.1,4-5.2,4c-10.3,0.1-10.3,0.2-13.4-9.6c-1.7-5.5-3.4-11.1-4.9-16.7c-0.5-1.7-0.8-3.2-2.9-3.9c-1,8.9-2.2,17.6-3,26.3
		c-0.3,3.1-1.5,3.9-4.3,3.8c-5.3-0.2-10.7-0.1-16,0c-2.6,0-3.8-0.3-3.2-3.7c3.6-19.6,6.9-39.3,10.1-59c0.5-2.9,1.5-4,4.5-3.9
		c5.5,0.2,11,0.4,16.5-0.1c4-0.3,5.2,1.5,6.1,4.8C405.4,67,408,75.9,410.6,85.5z M489.8,81.3c-0.4,0-0.7-0.1-1.1-0.1
		c-1,3.4-1.8,6.8-2.9,10.1c-1,2.9-0.5,4,2.9,4.1c4.2,0.2,5.8-0.8,4.2-5.1C491.8,87.3,490.9,84.3,489.8,81.3z"/>
	<path class="st0" d="M261.1,101.7c0,4.6-0.2,9.2,0.1,13.8c0.2,3.3-1.1,4.4-4.3,4.3c-5.2-0.2-10.3-0.2-15.5,0
		c-3.3,0.2-4.3-1-4.2-4.3c0.2-11,0-21.9,0.1-32.9c0-3.6-0.8-4-3.9-2.2C223,86.3,212.5,91.9,202,97.7c-1.7,0.9-3.3,1.9-5.9,1.4
		c12.5-10.1,24.7-19.9,37-29.7c5.4-4.4,11-8.6,16.3-13.1c2.4-2.1,4.9-3,8.1-3c7.6,0.1,15.3-0.7,22.7,1.8c12.1,4.1,18,19.2,11.7,30.3
		c-1.3,2.3-2.9,4.7-5.5,5.6c-4.2,1.4-4.3,3.2-1.8,6.6c4.3,5.9,8.1,12.1,12.1,18.3c0.6,0.9,1.8,1.8,1.3,3c-0.6,1.3-2.1,0.8-3.2,0.8
		c-6.3,0-12.6-0.1-19,0c-2.9,0.1-4.5-1-5.8-3.6c-2.4-5-5.2-9.9-7.9-14.8C261.9,101.5,261.5,101.6,261.1,101.7z M261.1,76.4
		c0.1,6.8,0.1,6.8,3.1,6.8c4.5,0,7.2-2.4,7.2-6.3c0-3.8-2.6-5.9-6.9-6.1C259.4,70.7,261.6,74.4,261.1,76.4z"/>
	<path class="st0" d="M331.5,121.3c-20.3,0.1-35.4-14.5-35.7-34.3c-0.3-19.7,14.9-34.9,35-35c20.7-0.1,36.1,14.4,36.3,34.3
		C367.3,106.1,351.9,121.2,331.5,121.3z M320.5,86.4c-0.2,7.2,4.2,12.4,10.5,12.6c6.5,0.2,11.1-4.6,11.3-11.8
		c0.2-7.6-4.1-12.8-10.8-12.9C325.1,74.2,320.6,79,320.5,86.4z"/>
	<path class="st0" d="M105.4,51.9c5.1,7.8,10,15.3,14.9,22.8c0.7,1.1,2.1,2.1,1.5,3.4c-0.7,1.4-2.4,0.7-3.6,0.7
		c-6,0.1-12-0.2-18,0.1c-3.1,0.1-4.8-0.8-6.2-3.6c-2.7-5.5-5.7-10.8-9.5-16.1c0,5.3-0.1,10.7,0.1,16c0.1,2.9-1,3.8-3.8,3.7
		c-5.3-0.2-10.7-0.2-16,0c-3,0.1-4.1-0.8-4.1-3.9c0.1-19.6,0.1-39.3,0.1-58.9c0-1.9-0.2-3.8,2.6-3.7c12.5,0.4,25-1.4,37.4,1
		c16.4,3.2,19.3,17.5,15.9,29C115.1,47.5,111.2,50.6,105.4,51.9z M84.5,35.5c0,6.6,0,6.6,3.4,6.6c4.5,0.1,7.3-2.4,7.3-6.2
		c-0.1-3.9-3-6.3-7.3-6.5C82.3,29.4,85.4,33.7,84.5,35.5z"/>
	<path class="st0" d="M183.4,36.3c0,5.8,0.1,11.6,0,17.5c-0.2,11.7-5.7,20.1-16.6,24.2c-10.4,4-20.9,3.5-30.9-1.6
		c-9.5-4.8-13.1-13.3-13.2-23.4c-0.2-12.1,0.1-24.3-0.1-36.4c-0.1-3.4,1.1-4.3,4.3-4.2c5.1,0.2,10.3,0.3,15.5,0
		c3.6-0.2,4.6,1.2,4.6,4.6c-0.2,10.3-0.2,20.6-0.2,30.9c0,2.5,0.3,5,0.9,7.4c0.5,2.5,2.2,3.9,5,4.1c2.8,0.1,4.8-0.7,6.1-3.4
		c0.8-1.7,0.9-3.5,0.9-5.3c0-11.3,0.2-22.6,0-33.9c0-3.2,0.8-4.5,4.2-4.3c5.5,0.2,11,0.2,16.5,0.1c2.6-0.1,3.5,0.8,3.5,3.4
		c-0.1,6.8,0,13.6,0,20.5C183.5,36.3,183.5,36.3,183.4,36.3z"/>
	<path class="st0" d="M258.7,40.9c-0.3,3-2.1,4.3-3.8,5.6c-12.4,10-24.9,20-37.2,30.1c-2.1,1.7-4.1,2.5-6.8,2.4
		c-6.5-0.1-13-0.1-19.5,0c-2.8,0-3.8-1-3.8-3.8c0.1-19.8,0.1-39.6,0-59.4c0-2.7,1.1-3.4,3.6-3.4c12.7,0.1,25.3,0.1,38,0
		c2.3,0,3.5,0.8,3.2,3.2c0,0.2,0,0.3,0,0.5c0.7,14.9,0.7,14.9-14.2,14.7c-1.5,0-3-0.1-4.5-0.1c-2,0-2.3,1.3-2.3,3
		c0,1.7,0.4,2.9,2.5,2.9c4.2-0.1,8.3,0.1,12.5,0c2.9-0.1,4.1,0.7,4.1,3.9c0.3,13.5,0.4,13.4-12.9,13.5c-1,0-2,0.1-3,0
		c-2.3-0.2-3.2,0.8-3.2,3.2c0,2.2,0.5,3.3,3.1,3.3c6.7,0.1,13-0.1,19-4.3C241.3,50.6,249.9,46.1,258.7,40.9z"/>
	<path class="st0" d="M650.3,86.6c0-9.8,0.1-19.6-0.1-29.5c-0.1-3.1,1-3.9,4-3.9c12,0.2,24,0.2,36,0c3.7-0.1,4.4,1.3,4.4,4.6
		c0.1,13.5,0.2,13.5-13.3,13.5c-1.5,0-3,0.1-4.5,0c-2.2-0.1-2.8,1.1-2.9,3.1c-0.1,2,0.6,3.1,2.8,3.1c3.8-0.1,7.7,0.2,11.5-0.1
		c3.6-0.2,5,0.7,5,4.6c0,13,0.1,12.8-13.4,13.1c-1.9,0-5.7-2.4-5.8,2.6c-0.1,2.5,0.7,3.6,3.4,3.5c4.8-0.2,9.7,0.1,14.5-0.1
		c2.9-0.1,3.8,0.9,3.6,3.7c-0.2,3.8-0.2,7.7,0,11.5c0.1,2.7-0.9,3.4-3.5,3.4c-12.7-0.1-25.3-0.2-38,0c-3.4,0-3.8-1.5-3.7-4.2
		C650.3,105.9,650.2,96.3,650.3,86.6C650.2,86.6,650.2,86.6,650.3,86.6z"/>
	<path class="st0" d="M645.2,78.9c-13.4-6.3-19.3-6.4-23.9-0.7c-3.7,4.6-4.1,12.3-0.1,16.7c8,8.7,16,3.2,23.9-1.2c0,7.7,0,15,0,22.2
		c0,2-1.3,2.7-3,3.4c-18,6.7-38.5-1.7-45.5-18.7c-7.5-18.3,0.5-38.5,18.6-46.1c8.7-3.7,17.8-3.4,26.8-0.6c1.5,0.5,3.3,0.9,3.3,3.1
		C645.2,64.2,645.2,71.5,645.2,78.9z"/>
	<path class="st0" d="M32.1,12.4c7.2,0,14.3,0.1,21.5-0.1c3.1-0.1,4.1,0.9,3.9,4c-0.2,4.5-0.2,9,0,13.5c0.2,3.6-1.3,4.6-4.7,4.6
		c-8.5,0-8.5,0.2-8.5,8.8c0,10.5-0.1,21,0.1,31.4c0,3.2-0.9,4.5-4.3,4.4c-5.3-0.2-10.7-0.2-16,0c-3.2,0.1-3.9-1.2-3.9-4.1
		c0.1-12-0.1-24,0.1-35.9c0.1-3.8-1-4.8-4.8-4.7c-9.1,0.1-8.9,2.1-8.8-8.6c0-13.2,0-13.2,13.3-13.2C24.1,12.4,28.1,12.4,32.1,12.4z"
		/>
</g>
</svg>
