<?xml version="1.0" encoding="utf-8"?>
<!-- Generator: Adobe Illustrator 26.0.2, SVG Export Plug-In . SVG Version: 6.00 Build 0)  -->
<svg version="1.1" id="Layer_1" xmlns="http://www.w3.org/2000/svg" xmlns:xlink="http://www.w3.org/1999/xlink" x="0px" y="0px"
	 viewBox="0 0 600 600" style="enable-background:new 0 0 600 600;" xml:space="preserve">
<style type="text/css">
	.st0{fill:none;stroke:#65D19A;stroke-width:20;stroke-linecap:round;stroke-miterlimit:10;}
</style>
<g id="_x34_">
	<polyline class="st0" points="569.8,213.1 569.8,511.8 29.4,511.8 29.4,162.9 569.8,162.9 	"/>
	<polyline class="st0" points="308,162.9 308,88.9 455.7,88.9 455.7,125.9 	"/>
	<rect x="90.4" y="121" class="st0" width="64.8" height="41.9"/>
	
		<ellipse transform="matrix(9.853766e-02 -0.9951 0.9951 9.853766e-02 -135.3969 345.134)" class="st0" cx="122.8" cy="247.3" rx="28.4" ry="28.4"/>
	<circle class="st0" cx="381.8" cy="337.3" r="134"/>
	<path class="st0" d="M381.8,302c-19.5,0-35.3,15.8-35.3,35.3s15.8,35.3,35.3,35.3c14,0,26-8.1,31.8-19.9c2.3-4.7,3.6-9.9,3.6-15.5"
		/>
	<line class="st0" x1="346.5" y1="125.9" x2="417.2" y2="125.9"/>
	<line class="st0" x1="111.1" y1="319.2" x2="134.5" y2="319.2"/>
</g>
</svg>
