<?xml version="1.0" encoding="utf-8"?>
<!-- Generator: Adobe Illustrator 25.2.0, SVG Export Plug-In . SVG Version: 6.00 Build 0)  -->
<svg version="1.1" id="Layer_1" xmlns="http://www.w3.org/2000/svg" xmlns:xlink="http://www.w3.org/1999/xlink" x="0px" y="0px"
	 viewBox="0 0 1125 2436" style="enable-background:new 0 0 1125 2436;" xml:space="preserve">
<style type="text/css">
	.st0{fill:#65D19A;}
	.st1{fill:#65D19A;stroke:#072643;stroke-width:7;stroke-miterlimit:10;}
</style>
<g id="Group_88" transform="translate(-49.214 -1062.534)">
	<path id="Path_175" class="st0" d="M463.66,1803.3l-4.82,0.65c-433.04,22.91-429.34,248.95-245.06,580
		c8.48,15.23,32.4,14.68,40.11-0.9c16.33-65.12,17.18-126.85,57.1-172.03c21.33-34.5,56.49-29.58,99.48-25.85l115.79,10.02
		L463.66,1803.3z"/>
	<path id="Path_176" class="st0" d="M719.89,1821.41l5.42,0.65c487.19,22.91,483.03,248.95,275.7,580
		c-9.54,15.23-36.45,14.68-45.12-0.9c-18.38-65.12-19.33-126.85-64.24-172.03c-23.99-34.5-63.56-29.58-111.92-25.85l-130.26,10.02
		L719.89,1821.41z"/>
	<path id="Path_177" class="st1" d="M532.21,1144.01c-361.92,278.47-356.84,705.8-101.65,1234.58h338.31
		c226.75-534.38,214.68-956.21-105.54-1232.08C628.8,1116.78,568.86,1115.81,532.21,1144.01z"/>
	<path id="Path_178" class="st0" d="M731.67,2452.18H466.73c-12.5,0-23.09-6.37-24.82-14.94l-6.72-33.38
		c-0.53-2.66,2.46-5.04,6.34-5.04h310.99c3.95,0,6.99,2.41,6.45,5.12l-7.13,36.06C750.47,2446.98,741.85,2452.18,731.67,2452.18z"/>
	<path id="Path_179" class="st0" d="M753.82,2357.95H445.65c-14.54,0-26.86-4.88-28.86-11.44l-7.82-25.55
		c-0.62-2.04,2.85-3.86,7.37-3.86h361.75c4.6,0,8.13,1.85,7.51,3.92l-8.3,27.61C775.7,2353.97,765.68,2357.95,753.82,2357.95z"/>
</g>
<path id="Path_180" class="st0" d="M826.22,3053.66c0,0-188.66-1643.06-188.46-1643.98c0.2-0.92-173.96,0-173.96,0
	S289.83,3009.55,217.35,3083.07S826.22,3053.66,826.22,3053.66z"/>
</svg>
