<?xml version="1.0" encoding="utf-8"?>
<!-- Generator: Adobe Illustrator 26.0.2, SVG Export Plug-In . SVG Version: 6.00 Build 0)  -->
<svg version="1.1" id="Layer_1" xmlns="http://www.w3.org/2000/svg" xmlns:xlink="http://www.w3.org/1999/xlink" x="0px" y="0px"
	 viewBox="0 0 600 600" style="enable-background:new 0 0 600 600;" xml:space="preserve">
<style type="text/css">
	.st0{fill:#72BF94;}
</style>
<g>
	<path class="st0" d="M-440.6,359c5.8-2.6,11.5-5.1,17.3-7.7c19.6-8.6,39.2-17.3,58.9-25.9c1.9-0.8,2.6-1.9,2.6-4
		c-0.1-4.6,0-9.3,0-13.9c0-2.5,0-2.5-2.5-2.8c-1.7-0.2-1.9-0.4-1.9-2.1c0-1,0-2.1,0-3.1c0-2.4,0.2-2.6,2.6-2.7c1.2,0,2.4,0,3.6,0
		c7.1,0,14.2,0,21.4,0c2.6,0,2.8,0.2,2.9,2.9c0,1,0,1.9,0,2.9c-0.1,1.7-0.4,1.9-2,2.1c-0.4,0-0.8,0-1.2,0.1c-0.8,0-1.4,0.4-1.4,1.3
		c0,2.5,0,5,0,7.4c0,0.7,0.5,1,1.1,0.7c0.7-0.3,1.3-0.5,2-0.8c13.8-6.1,27.7-12.2,41.5-18.3c1.6-0.7,2.9-0.8,4.5,0
		c24.2,10.8,48.5,21.6,72.8,32.4c6.1,2.7,12.1,5.4,18.2,8.1c0.3,0.1,0.7,0.4,1.2,0.2c-4.3-2.9-8.4-6-12.8-8.6
		c-0.2-0.1-0.4-0.2-0.6-0.4c-2.2-1.3-2.2-1.5,0-3.1c9.4-6.6,18.9-13.1,28.3-19.8c1.5-1,2.5-0.8,3.8,0.1c9.7,6.6,19.5,13.2,29.2,19.8
		c2,1.3,2,1.6,0.2,3.1c-8.3,6.6-16.6,13.1-24.8,19.6c-5.1,4.1-10.3,8.1-15.2,12.5c2.4-1.6,4.7-3.1,7.1-4.7
		c12.6-8.6,25.1-17.4,37.9-25.8c7-4.6,14.4-8.6,21.7-12.9c1.4-0.8,2.4-0.4,3.5,0.5c6.5,5,13.1,10,19.6,15
		c9.9,7.6,19.8,15.2,29.7,22.7c2.2,1.7,2.2,1.7,4.3-0.4c13.7-13.7,27.4-27.4,41.1-41.1c2.3-2.3,2.4-2.4,4.5,0.2
		c6.6,8.1,13.3,16.2,19.9,24.3c0.4,0.5,0.9,1.1,1.4,1.6c0.8-0.4,0.5-1,0.5-1.5c0-3.4,0-6.7,0-10.1c0-2.6,0.2-2.8,2.7-2.8
		c1.7,0,3.4,0,5,0c1.7,0.1,1.9,0.3,2,2c0.1,0.8,0,1.6,0,2.4c0,6.6,0.1,13.3,0,19.9c0,2,0.5,3.6,1.8,5c0.8,0.9,1.6,1.8,2.3,2.8
		c1.2,1.5,1.2,1.7-0.2,3c-3.2,2.9-6.4,5.8-9.6,8.7c-0.8,0.7-1.7,1.4-2.5,2.4c0.9,0,1.4-0.5,2-0.8c15-8.8,30.1-17.7,45.1-26.5
		c2.2-1.3,2.2-1.3,4.1,0.5c11.6,10.6,23.2,21.1,34.7,31.7c3.8,3.5,7.7,7,11.5,10.5c1.3,1.2,1.3,1.4,0,2.6c-1.1,1-2.2,2-3.2,3.2
		c2.6-1.3,5.2-2.7,7.8-4c4.5-2.4,8.9-4.8,13.3-7.1c1.5-0.8,2.2-1.7,2.1-3.4c-0.1-1.9,0-3.8,0-5.8c0-1,0-1.9-0.6-2.8
		c-0.3-0.5-0.4-1-0.4-1.6c-0.2-2.5,0.2-3,2.7-3c3.8,0,7.7,0,11.5,0c3,0,4,1.3,3.1,4.2c-0.2,0.7-1.3,1.4-0.5,2.1
		c0.8,0.7,1.6-0.3,2.3-0.7c4.9-2.6,9.8-5.1,14.6-7.8c1.6-0.9,2.9-0.8,4.5-0.1c9.6,4.5,19.3,8.9,29,13.4c0.7,0.3,1.4,0.6,2.3,0.9
		c-1.1-2.2-1.1-2.2,0.9-3.5c14.4-9.4,28.8-18.8,43.2-28.1c0.5-0.3,1.1-0.7,1.6-1.1c0.9-0.5,1.3-1.3,1.3-2.4c0-5.4,0-10.7,0-16.1
		c0-0.5,0-1.1-0.2-1.4c-2.2-2.4-0.8-5.2-1.1-7.8c-0.1-0.8,0.5-1.3,1.3-1.4c0.2,0,0.5-0.1,0.7-0.1c6.7,0,13.4,0,20.2,0
		c1.7,0,2,0.3,2,2c0.1,1.6,0,3.2,0,4.8c0,0.5-0.1,1-0.3,1.4c-0.3,0.6-1,0.8-1.1,1.5c0,0.2-0.1,0.5-0.1,0.7c0,0.9-0.2,1.9,0.2,2.9
		c1,0.2,1.6-0.6,2.3-1c11.4-7.6,22.7-15.3,34-22.9c1.9-1.3,3.8-2.6,5.7-3.9c2.5-1.7,2.6-1.6,3.9,1c2.6,5.1,5.1,10.1,7.7,15.2
		c4.4,8.9,8.9,17.7,13.3,26.6c0.3,0.5,0.5,1,0.8,1.5c0.7,1.1,0.4,1.9-0.7,2.6c-2.1,1.3-4.1,2.7-6.1,4.3c2.1-0.9,4.2-1.7,6.3-2.6
		c17.9-7.5,35.7-15.4,53.5-23.2c1.6-0.7,2.3-1.6,2.2-3.4c-0.1-4.8,0-9.6,0-14.4c0-2.4,0-2.4-2.3-2.6c-2.1-0.2-2.3-0.3-2.4-2.4
		c0-1.3,0-2.6,0-3.8c0-1.1,0.6-1.6,1.7-1.6c0.4,0,0.8,0,1.2,0c8.2,0,16.5,0,24.7,0c0.4,0,0.8,0,1.2,0c1.1,0,1.6,0.6,1.6,1.7
		c0,1.4,0,2.9,0,4.3c0,1.2-0.5,1.8-1.7,1.8c-0.4,0-0.8,0-1.2,0c-1.6,0.1-1.8,0.3-1.8,1.9c-0.1,2,0,4,0,6c0,2,0.3,2.2,2.1,1.4
		c5.6-2.5,11.3-5,16.9-7.5c8.6-3.8,17.3-7.6,25.9-11.4c1.7-0.8,3.1-0.7,4.8,0.1c29.7,13.3,59.5,26.5,89.2,39.8
		c0.6,0.3,1.2,0.5,1.9,0.5c-0.5-0.4-0.9-0.7-1.4-1.1c-3.7-2.5-7.3-5.2-11.1-7.5c-2.2-1.3-2.2-1.6-0.1-3.1c4.8-3.4,9.7-6.8,14.6-10.2
		c4.7-3.2,9.4-6.4,14-9.7c1.2-0.8,2-0.8,3.2,0c9.8,6.7,19.6,13.3,29.4,19.9c2.3,1.6,2.3,1.7,0.1,3.5c-12.5,9.9-25,19.8-37.4,29.6
		c-0.6,0.5-1.2,1-2.1,1.8c1.3-0.3,1.9-0.9,2.5-1.3c13.2-9,26.4-18,39.7-27c7.8-5.3,16.2-9.7,24.3-14.6c1.4-0.8,2.3-0.4,3.4,0.5
		c7.9,6,15.8,12,23.6,18.1c8.8,6.7,17.5,13.4,26.3,20.1c1.6,1.2,1.6,1.2,3.1-0.3c5.4-5.4,10.7-10.8,16.1-16.1
		c8.8-8.5,17.4-17.2,26.1-25.9c0.2-0.2,0.5-0.4,0.7-0.7c0.8-0.8,1.5-0.8,2.2,0.1c0.7,0.9,1.4,1.7,2.1,2.6
		c6.6,8.1,13.2,16.1,19.7,24.2c0.2,0.3,0.4,0.7,1,0.8c0.3-1,0.1-2,0.2-3c0-3.1,0-6.2,0-9.4c0-2.2,0.2-2.4,2.3-2.4c1.6,0,3.2,0,4.8,0
		c2.1,0,2.3,0.2,2.3,2.4c0,4.3,0,8.6,0,13c0,3,0.1,5.9,0,8.9c-0.1,1.9,0.4,3.4,1.7,4.8c1,1,1.8,2.1,2.6,3.1c1.1,1.5,1.1,1.7-0.3,3
		c-3.9,3.6-7.8,7.1-11.7,10.6c-0.3,0.3-0.6,0.5-0.7,1c1.8-1.1,3.7-2.1,5.5-3.2c13.9-8.1,27.7-16.3,41.6-24.4
		c0.3-0.2,0.5-0.3,0.8-0.5c1.7-0.9,1.7-0.9,3.1,0.4c3.3,2.9,6.5,5.9,9.8,8.9c12.1,11,24.1,22,36.2,32.9c0.4,0.3,0.7,0.6,1,1
		c1,1.1,1,1.3-0.1,2.3c-1.2,1.1-2.4,2.1-3.4,3.3c0.8-0.4,1.6-0.7,2.3-1.1c6.4-3.4,12.8-6.9,19.3-10.2c1.4-0.7,2-1.6,1.9-3.2
		c-0.1-1.8,0-3.7,0-5.5c0-1.1,0-2.2-0.8-3.1c-0.7-0.7-0.5-1.8-0.4-2.8c0.1-1,0.5-1.6,1.6-1.6c4.8,0,9.6,0,14.4,0
		c1.1,0,1.6,0.6,1.6,1.6c0,1.1,0.2,2.3-0.7,3.2c-0.3,0.3-0.5,0.6-0.5,1c0,0.6,0.1,1,0.8,0.8c0.4-0.2,0.8-0.5,1.3-0.7
		c4.8-2.6,9.6-5,14.4-7.7c2.2-1.2,3.9-1.3,6.2-0.2c9.9,4.7,19.9,9.2,29.8,13.8c0.4,0.2,0.7,0.3,1.1,0.4c0.3-0.1,0.3-0.2,0.2-0.4
		c-2-1.8-1.8-2.1,0.6-3.6c14.6-9.3,29-18.7,43.5-28.2c1.8-1.2,2.4-2.4,2.4-4.5c-0.1-4.6,0-9.1,0-13.7c0-1.2,0.1-2.4-1-3.3
		c-0.5-0.4-0.5-1-0.5-1.6c0-1.6-0.1-3.2,0-4.8c0.1-1.6,0.4-1.9,2-2c1.4-0.1,2.9,0,4.3,0c5.2,0,10.4,0,15.6,0c2.4,0,2.6,0.3,2.7,2.6
		c0,1.4,0,2.7,0,4.1c0,0.6,0.1,1.2-0.4,1.6c-1.6,1.4-1.1,3.2-1,4.8c0.9,0.4,1.3-0.2,1.8-0.5c11.9-8,23.9-16.1,35.8-24.1
		c2.2-1.5,4.3-3.4,6.9-4.3c0,56.5,0,113,0,169.4c-29,0-57.9,0-86.9,0c0-6.1,0-12.2,0-18.2c0-1.4,0-2.7-0.7-4c-1.9-3.2-5-4.2-8.4-4
		c-3.5,0.2-6.5,1.5-8,5.1c-0.4,1-0.5,2-0.5,3.1c0,2.7,0,5.4,0,8.2c0,3.3,0.2,6.6-0.1,9.8c-71.2,0-142.4,0-213.6,0
		c0-4.2-0.1-8.3-0.1-12.5c0.1-2.5-1.1-4.1-3.3-5c-3.8-1.5-7.7-1.4-11.4,0.3c-2,0.9-3,2.4-3,4.7c0.1,4.2,0,8.3-0.1,12.5
		c-69.4,0-138.9,0-208.3,0c-0.1-1-0.2-1.9-0.2-2.9c0-5.2,0-10.4,0-15.6c0-3.6-1.3-5.5-4.7-6.6c-3.7-1.2-7.6-1.2-11.3,0.2
		c-3.5,1.3-4.5,2.8-4.5,6.5c0,6.1,0,12.3,0,18.4c-164.6,0-329.3,0-493.9,0c-0.4-4.1-0.1-8.1-0.2-12.2c-0.1-3-1.2-4.5-4-5.5
		c-3.3-1.2-6.6-1.1-9.8,0.1c-2.9,1.1-3.7,2.3-3.7,5.4c0,4.1,0,8.1,0,12.2c-69.6,0-139.2,0-208.8,0c0-6.4-0.1-12.8,0-19.2
		c0-2.7-1.2-4.5-3.5-5.5c-4.4-1.8-8.9-1.8-13.3,0.1c-2.5,1.1-3.8,3-3.7,5.9c0.1,2.4,0,4.8,0,7.2c-0.1,3.8,0.2,7.7-0.2,11.5
		c-58.7,0-117.3,0-176.2,0C-440.6,431.7-440.6,395.4-440.6,359z M969.7,433.3c0-0.1,0.1-0.2,0.1-0.3c-0.6-0.2-1.1-0.5-1.7-0.7
		c-14.8-5.6-29.6-11.2-44.4-16.8c-1.5-0.6-2.7-0.4-4.1,0.3c-10.3,5.2-20.7,10.4-31,15.7c-0.9,0.5-1.8,1-2.8,1.5
		c0.7,0.1,1.2,0,1.7-0.2c10.8-4.3,21.5-8.6,32.3-12.9c1.8-0.7,3.4-0.8,5.3-0.2c11,3.5,22,6.8,32.9,10.2
		C961.9,430.9,965.8,432.1,969.7,433.3z M238.6,431.8c0-0.1,0.1-0.2,0.1-0.2c-0.2-0.1-0.4-0.3-0.6-0.4
		c-15.2-5.8-30.5-11.5-45.7-17.4c-1.8-0.7-3.2-0.3-4.8,0.5c-11,5.6-22.1,11.2-33.1,16.8c-0.5,0.3-1,0.6-1.5,0.8c0.3,0.1,0.6,0,0.8,0
		c11.6-4.6,23.2-9.2,34.7-13.9c1.7-0.7,3.3-0.8,5.1-0.2c13.1,4.1,26.2,8.2,39.4,12.2C234.9,430.7,236.7,431.3,238.6,431.8z
		 M-132.9,340.6c0,4.2,3.1,7.3,7.3,7.3c4,0,7.5-3.5,7.3-7.4c-0.2-5-4.1-7.5-7.6-7.3C-130.1,333.4-133,336.2-132.9,340.6z M452,441.1
		c-1.5,0-3-0.1-4.6,0c-1.6,0.1-1.8,0.3-1.9,1.8c-0.1,2.9-0.1,5.8,0,8.6c0,1.6,0.3,1.9,1.8,1.9c3,0.1,6.1,0,9.1,0
		c1.2,0,1.8-0.5,1.8-1.7c0-3,0-5.9,0-8.9c0-1.5-0.3-1.7-1.9-1.8C454.9,441.1,453.5,441.1,452,441.1z M657.5,447.7
		C657.5,447.7,657.5,447.7,657.5,447.7c0-1.6,0-3.2,0-4.8c0-1.1-0.5-1.6-1.6-1.6c-3,0-6.1,0-9.1,0c-1.1,0-1.6,0.5-1.6,1.6
		c0,3.2,0,6.4,0,9.6c0,1,0.5,1.5,1.5,1.5c3.1,0,6.2,0,9.3,0c1.2,0,1.5-0.7,1.5-1.7C657.5,450.7,657.5,449.2,657.5,447.7z
		 M668.5,453.9C668.5,453.9,668.5,453.9,668.5,453.9c1.5,0,3,0,4.5,0c1.2,0,1.8-0.5,1.8-1.7c0-3.1,0-6.2,0-9.3
		c0-0.9-0.4-1.6-1.4-1.6c-3.2,0-6.4,0-9.6,0c-0.9,0-1.3,0.5-1.3,1.3c0,3.3,0,6.5,0,9.8c0,1,0.5,1.5,1.5,1.5
		C665.5,453.9,667,453.9,668.5,453.9z M997.8,389.6c0-1.5,0-3,0-4.5c0-1.1-0.4-1.8-1.6-1.8c-3,0-5.9,0-8.9,0c-1,0-1.7,0.4-1.7,1.5
		c0,3,0,6.1,0,9.1c0,1.1,0.5,1.6,1.6,1.6c3,0,5.9,0,8.9,0c1.2,0,1.7-0.6,1.7-1.8C997.7,392.3,997.8,390.9,997.8,389.6z
		 M-288.9,441.2c-1.5,0-3,0-4.6,0c-1.2,0-1.8,0.6-1.7,1.8c0,3,0,5.9,0,8.9c0,1.2,0.6,1.8,1.8,1.8c3,0,5.9,0,8.9,0
		c1.2,0,1.7-0.6,1.7-1.8c0-3,0-5.9,0-8.9c0-1.2-0.6-1.7-1.8-1.7C-286,441.2-287.4,441.2-288.9,441.2z M372,442.4c1.5,0,3,0,4.5,0
		c1.1,0,1.7-0.5,1.7-1.6c0-3,0-6.1,0-9.1c0-1.1-0.6-1.6-1.7-1.6c-3,0-6.1,0-9.1,0c-1,0-1.5,0.4-1.5,1.4c0,3.1,0,6.2,0,9.3
		c0,1,0.5,1.4,1.5,1.4C368.9,442.4,370.5,442.4,372,442.4z M360.4,436.2C360.4,436.2,360.4,436.2,360.4,436.2c0-1.4,0-2.9,0-4.3
		c0-1-0.5-1.7-1.6-1.7c-3,0-6.1,0-9.1,0c-1.1,0-1.6,0.5-1.6,1.6c0,3,0,6.1,0,9.1c0,1.1,0.6,1.5,1.7,1.5c3,0,5.9,0,8.9,0
		c1.2,0,1.8-0.5,1.8-1.7C360.4,439.2,360.4,437.7,360.4,436.2z M991.6,400.5c-1.4,0-2.7,0-4.1,0c-1.7,0.1-1.9,0.2-1.9,1.7
		c-0.1,2.9,0,5.7,0,8.6c0,1.2,0.4,1.8,1.7,1.8c2.9,0,5.9,0,8.8,0c1.2,0,1.7-0.6,1.7-1.8c0-2.9,0-5.7,0-8.6c0-1.6-0.2-1.7-1.9-1.8
		C994.4,400.5,993,400.5,991.6,400.5z M-362.5,436.5c0-1.5,0-3,0-4.5c0-1.1-0.4-1.8-1.7-1.8c-3,0-5.9,0-8.9,0
		c-1.2,0-1.8,0.5-1.8,1.7c0,3,0,5.9,0,8.9c0,1,0.4,1.7,1.6,1.7c3,0,6.1,0,9.1,0c1.3,0,1.7-0.7,1.7-1.8
		C-362.5,439.2-362.5,437.9-362.5,436.5z M372.1,424.6C372.1,424.7,372.1,424.7,372.1,424.6c1.4,0,2.7,0,4.1,0c1.7-0.1,2-0.3,2-1.9
		c0.1-2.8,0.1-5.6,0-8.4c0-1.6-0.3-1.9-1.8-1.9c-2.9-0.1-5.9,0-8.9,0c-1.1,0-1.6,0.5-1.6,1.6c0,3,0,6.1,0,9.1c0,1.1,0.6,1.6,1.6,1.6
		C369.1,424.6,370.6,424.6,372.1,424.6z M-386.7,442.4C-386.7,442.4-386.7,442.4-386.7,442.4c1.6,0,3.2,0,4.8,0
		c1.1,0,1.7-0.4,1.7-1.5c0-3,0-6.1,0-9.1c0-1.1-0.5-1.6-1.6-1.6c-3,0-6.1,0-9.1,0c-0.9,0-1.5,0.4-1.5,1.4c0,3.1,0,6.2,0,9.3
		c0,1,0.5,1.5,1.5,1.5C-389.6,442.4-388.2,442.4-386.7,442.4z M348.2,418.5c0,1.4,0,2.9,0,4.3c0.1,1.6,0.2,1.8,1.9,1.8
		c2.8,0,5.6,0,8.4,0c1.7,0,2-0.3,2-1.9c0.1-2.8,0.1-5.6,0-8.4c0-1.7-0.3-1.9-2-1.9c-2.8-0.1-5.6-0.1-8.4,0c-1.6,0-1.8,0.3-1.9,1.8
		C348.1,415.7,348.2,417.1,348.2,418.5z M-368.6,424.6C-368.6,424.6-368.6,424.7-368.6,424.6c1.4,0,2.9,0,4.3,0
		c1.2,0,1.8-0.4,1.8-1.7c0-3,0-5.9,0-8.9c0-1.2-0.6-1.7-1.7-1.7c-3,0-5.9,0-8.9,0c-1,0-1.7,0.4-1.7,1.5c0,3,0,6.1,0,9.1
		c0,1.1,0.5,1.6,1.6,1.6C-371.6,424.6-370.1,424.6-368.6,424.6z M-386.4,424.7C-386.4,424.7-386.4,424.6-386.4,424.7
		c1.5,0,3,0,4.5,0c1.1,0,1.6-0.5,1.6-1.6c0-3,0-6.1,0-9.1c0-1.1-0.6-1.6-1.7-1.6c-3,0-5.9,0-8.9,0c-1.2,0-1.8,0.5-1.8,1.7
		c0,3,0,5.9,0,8.9c0,1.2,0.6,1.7,1.8,1.7C-389.3,424.6-387.9,424.7-386.4,424.7z M1002.9,406.4
		C1002.9,406.4,1002.9,406.4,1002.9,406.4c0,1.4,0,2.9,0,4.3c0.1,1.7,0.2,1.9,1.7,1.9c2.8,0.1,5.6,0,8.4,0c1.2,0,1.7-0.6,1.7-1.8
		c0-2.9,0-5.7,0-8.6c0-1.1-0.4-1.8-1.7-1.8c-2.9,0-5.7,0-8.6,0c-1.1,0-1.6,0.6-1.5,1.6C1002.9,403.6,1002.9,405,1002.9,406.4z
		 M256.7,389.4C256.7,389.4,256.7,389.4,256.7,389.4c0-1.5,0-3,0-4.5c0-0.9-0.3-1.6-1.4-1.6c-3,0-6.1,0-9.1,0
		c-0.9,0-1.3,0.5-1.4,1.3c0,3.1,0,6.2,0,9.3c0,1,0.5,1.5,1.5,1.5c2.9,0,5.9,0,8.8,0c1,0,1.5-0.5,1.5-1.5
		C256.7,392.4,256.7,390.9,256.7,389.4z M274,389.5C274,389.5,274,389.5,274,389.5c0-1.5,0-3,0-4.5c0-1.2-0.5-1.8-1.7-1.7
		c-2.8,0-5.6,0-8.4,0c-1.2,0-1.8,0.5-1.8,1.7c0,3,0,5.9,0,8.9c0,1.1,0.5,1.6,1.6,1.6c2.9,0,5.7,0,8.6,0c1.1,0,1.6-0.5,1.6-1.6
		C274,392.4,274,390.9,274,389.5z M274,406.6C274,406.6,274,406.6,274,406.6c0-1.5,0-3,0-4.5c0-0.9-0.3-1.6-1.4-1.6
		c-3,0-6.1,0-9.1,0c-0.8,0-1.4,0.5-1.4,1.3c0,3.1,0,6.2,0,9.3c0,1,0.5,1.5,1.5,1.5c2.9,0,5.9,0,8.8,0c1.2,0,1.5-0.7,1.5-1.7
		C274,409.5,274,408.1,274,406.6z M250.9,412.6c1.4,0,2.7,0,4.1,0c1.2,0,1.8-0.5,1.8-1.7c0-2.9,0-5.9,0-8.8c0-1.1-0.5-1.6-1.6-1.6
		c-2.9,0-5.7,0-8.6,0c-1.1,0-1.6,0.5-1.6,1.6c0,2.9,0,5.9,0,8.8c0,1.2,0.5,1.8,1.7,1.7C248,412.6,249.5,412.6,250.9,412.6z
		 M1002.9,389.3C1002.9,389.3,1002.9,389.3,1002.9,389.3c0,1.4,0,2.9,0,4.3c0,1.2,0.5,1.8,1.7,1.8c2.8,0,5.6,0,8.4,0
		c1.2,0,1.8-0.5,1.8-1.7c0-2.9,0-5.9,0-8.8c0-1.1-0.5-1.6-1.6-1.6c-2.9,0-5.7,0-8.6,0c-1.1,0-1.6,0.5-1.6,1.6
		C1002.9,386.3,1002.9,387.8,1002.9,389.3z M634.1,361c-5.3-5.3-10.2-10.7-15.5-15.7c-0.2,4.9-0.2,9.6-0.2,14.4
		c0,1.3,0.8,1.6,1.9,1.6c3.7,0,7.3,0,11,0C632.1,361.3,633,361.4,634.1,361z M612.7,345.2c-5.4,5.3-10.2,10.5-15.4,16
		c5.1,0,9.6,0,14.1,0c1.2,0,1.5-0.8,1.5-1.7c0-2.6,0-5.1,0-7.7C612.9,349.8,613.1,347.9,612.7,345.2z M-38.7,388c0,1.3,0,2.6,0,3.8
		c0,1.1,0.5,1.6,1.6,1.6c2.4,0,4.8,0,7.2,0c1,0,1.5-0.4,1.5-1.4c0-2.5,0-4.9,0-7.4c0-1-0.6-1.4-1.5-1.4c-2.3,0-4.6,0-6.9,0
		c-1.2,0-1.8,0.5-1.8,1.7C-38.7,385.9-38.7,387-38.7,388z M422.8,382.5C422.8,382.5,422.8,382.5,422.8,382.5c1.2,0,2.4,0,3.6,0
		c1,0,1.6-0.5,1.6-1.6c0-2.2,0-4.5,0-6.7c0-1.3-0.7-1.7-1.8-1.6c-2.2,0-4.5,0-6.7,0c-1.5,0-1.7,0.3-1.8,1.9c0,2-0.1,4,0,6
		c0,1.8,0.3,2,2.2,2C420.9,382.6,421.8,382.5,422.8,382.5z M-281.5,377.6c0-1.1,0-2.2,0-3.3c0-1-0.4-1.7-1.5-1.7c-2.4,0-4.8,0-7.2,0
		c-1.1,0-1.6,0.5-1.6,1.6c0,2.2,0,4.5,0,6.7c0,1.1,0.6,1.6,1.6,1.6c2.3,0,4.6,0,6.9,0c1.2,0,1.7-0.6,1.7-1.8
		C-281.5,379.7-281.5,378.7-281.5,377.6z M428,363C428,363,428,363,428,363c0-1.1,0-2.2,0-3.3c0-1-0.5-1.5-1.5-1.5
		c-2.4,0-4.8,0-7.2,0c-1.1,0-1.6,0.6-1.6,1.7c0,2.2,0,4.5,0,6.7c0,1.1,0.5,1.6,1.6,1.6c2.3,0,4.6,0,6.9,0c1.2,0,1.7-0.6,1.7-1.8
		C428,365.2,428,364.1,428,363z M-18.9,383.2c-1.2,0-2.4,0-3.6,0c-1,0-1.5,0.5-1.5,1.5c0,2.5,0,4.9,0,7.4c0,0.9,0.5,1.3,1.4,1.3
		c2.4,0,4.8,0,7.2,0c0.9,0,1.3-0.5,1.3-1.3c0-2.5,0-4.9,0-7.4c0-1-0.5-1.5-1.5-1.5C-16.6,383.2-17.8,383.2-18.9,383.2z
		 M-298.3,377.4c0-1,0-2.1,0-3.1c0-1.1-0.4-1.7-1.5-1.7c-2.4,0-4.8,0-7.2,0c-1.1,0-1.6,0.6-1.6,1.6c0,2.2,0,4.5,0,6.7
		c0,1.1,0.6,1.6,1.6,1.6c2.3,0,4.6,0,6.9,0c1.2,0,1.7-0.6,1.7-1.8C-298.3,379.6-298.3,378.5-298.3,377.4z M524.1,425.6
		c1.2,0,2.4,0,3.6,0c1,0,1.5-0.4,1.5-1.4c0-2.3,0-4.6,0-7c0-1-0.5-1.5-1.5-1.5c-2.4,0-4.8,0-7.2,0c-0.9,0-1.5,0.5-1.5,1.5
		c0,2.3,0,4.6,0,7c0,1,0.5,1.5,1.5,1.5C521.7,425.6,522.9,425.6,524.1,425.6z M712.2,388.4c0-1,0-1.9,0-2.9c0-0.1,0-0.2,0-0.2
		c-0.1-1.9-0.2-2.1-2-2.1c-2,0-4,0-6,0c-1.6,0-1.9,0.3-1.9,1.8c-0.1,2.2-0.1,4.5,0,6.7c0,1.5,0.3,1.7,1.9,1.8c2,0.1,4,0,6,0
		c1.8,0,1.9-0.2,2-2.1C712.2,390.4,712.2,389.4,712.2,388.4z M716.8,388.3c0,1.1,0,2.2,0,3.3c0.1,1.5,0.3,1.7,1.9,1.8
		c2.1,0,4.1,0,6.2,0c1.2,0,1.8-0.4,1.8-1.7c0-2.3,0-4.6,0-6.9c0-1.2-0.6-1.7-1.8-1.7c-2.1,0-4.3,0-6.4,0c-1.3,0-1.7,0.6-1.7,1.8
		C716.8,386.1,716.8,387.2,716.8,388.3z M-286.7,368.1C-286.7,368.1-286.7,368.1-286.7,368.1c1.2,0,2.4,0,3.6,0
		c1.2,0,1.7-0.6,1.7-1.8c0-2.2,0-4.3,0-6.5c0-1.2-0.6-1.7-1.7-1.7c-2.2,0-4.5,0-6.7,0c-1.1,0-1.8,0.4-1.8,1.7c0,2.2,0,4.5,0,6.7
		c0,1.1,0.6,1.6,1.6,1.6C-288.9,368.1-287.8,368.1-286.7,368.1z M-303.5,368.1C-303.5,368.1-303.5,368.1-303.5,368.1
		c1.1,0,2.2,0,3.3,0c1.6-0.1,1.8-0.3,1.9-1.8c0.1-2.1,0.1-4.1,0-6.2c0-1.6-0.3-1.9-1.8-1.9c-2.2-0.1-4.5-0.1-6.7,0
		c-1.5,0-1.7,0.3-1.8,1.9c-0.1,2,0,4,0,6c0,1.8,0.2,2,2.1,2C-305.4,368.1-304.4,368.1-303.5,368.1z M578.6,420.6c0,1.2,0,2.4,0,3.6
		c0,1,0.5,1.5,1.5,1.5c2.5,0,4.9,0,7.4,0c0.9,0,1.3-0.5,1.3-1.3c0-2.4,0-4.8,0-7.2c0-0.9-0.5-1.3-1.3-1.4c-2.5,0-4.9,0-7.4,0
		c-1,0-1.5,0.5-1.5,1.5C578.6,418.3,578.6,419.5,578.6,420.6z M524.1,440.1c1.1,0,2.2,0,3.3,0c1.1,0,1.8-0.4,1.8-1.7
		c0-2.2,0-4.5,0-6.7c0-1.1-0.6-1.6-1.6-1.6c-2.3,0-4.6,0-6.9,0c-1.2,0-1.7,0.6-1.7,1.8c0,2.1,0,4.3,0,6.4c0,1.2,0.6,1.7,1.8,1.7
		C521.9,440.1,523,440.1,524.1,440.1z M583.5,440C583.5,440.1,583.5,440.1,583.5,440c1.3,0,2.5,0,3.8,0c1,0,1.5-0.5,1.5-1.5
		c0-2.3,0-4.6,0-6.9c0-1-0.5-1.5-1.5-1.5c-2.5,0-4.9,0-7.4,0c-0.9,0-1.3,0.5-1.3,1.3c0,2.4,0,4.8,0,7.2c0,0.9,0.5,1.3,1.3,1.4
		C581.1,440.1,582.3,440,583.5,440z M-33.5,398c-1.1,0-2.2,0-3.3,0c-1.6,0.1-1.8,0.3-1.9,1.8c-0.1,2.1-0.1,4.1,0,6.2
		c0,1.6,0.3,1.9,1.8,1.9c2.2,0.1,4.5,0.1,6.7,0c1.5,0,1.7-0.3,1.8-1.9c0-1,0-2.1,0-3.1C-28.6,397.4-27.7,398.1-33.5,398z
		 M543.7,435.2c0-1.2,0-2.4,0-3.6c0-0.8-0.4-1.4-1.3-1.4c-2.4,0-4.8,0-7.2,0c-0.8,0-1.4,0.5-1.4,1.4c0,2.4,0,4.8,0,7.2
		c0,0.9,0.6,1.3,1.4,1.3c2.3,0,4.6,0,7,0c1,0,1.5-0.5,1.5-1.5C543.7,437.4,543.7,436.3,543.7,435.2z M564.2,435.1c0,1.1,0,2.2,0,3.4
		c0,0.9,0.4,1.5,1.4,1.6c2.3,0,4.6,0,7,0c1,0,1.5-0.5,1.5-1.5c0-2.3,0-4.6,0-6.9c0-1-0.6-1.4-1.5-1.4c-2.2,0-4.5,0-6.7,0
		c-1.1,0-1.6,0.5-1.6,1.6C564.2,432.9,564.2,434,564.2,435.1z M-14,403.1C-14,403.1-14,403.1-14,403.1c0-0.9,0-1.8,0-2.6
		c0-0.2,0-0.3,0-0.5c-0.1-1.6-0.3-1.9-1.8-1.9c-2.1-0.1-4.3,0-6.5,0c-1.2,0-1.7,0.6-1.7,1.8c0,2.2,0,4.3,0,6.5
		c0,1.2,0.6,1.7,1.8,1.7c2.2,0,4.3,0,6.5,0c1.2,0,1.7-0.6,1.7-1.8C-14,405.1-14,404.1-14,403.1z M712.2,403.1c0-1.1,0-2.2,0-3.3
		c0-1.2-0.6-1.7-1.7-1.7c-2.1,0-4.3,0-6.4,0c-1.2,0-1.7,0.6-1.7,1.8c0,2.1,0,4.3,0,6.4c0,1.2,0.6,1.7,1.8,1.7c2.1,0,4.3,0,6.4,0
		c1.2,0,1.7-0.6,1.7-1.8C712.2,405.1,712.2,404.1,712.2,403.1z M721.7,398c-1.1,0-2.2,0-3.3,0c-0.9,0-1.5,0.4-1.5,1.4
		c0,2.4,0,4.8,0,7.2c0,0.9,0.5,1.3,1.3,1.4c2.3,0,4.6,0,6.9,0c1.1,0,1.6-0.6,1.6-1.6c0-2.2,0-4.5,0-6.7c0-1.1-0.6-1.6-1.6-1.6
		C723.9,398,722.8,398,721.7,398z M459.2,363.1C459.2,363.1,459.3,363.1,459.2,363.1c0-1.1,0-2.2,0-3.3c0-1.1-0.5-1.6-1.6-1.6
		c-2.2,0-4.5,0-6.7,0c-1.1,0-1.6,0.6-1.6,1.6c0,2.2,0,4.5,0,6.7c0,0.9,0.4,1.6,1.4,1.6c2.4,0,4.8,0,7.2,0c0.9,0,1.3-0.5,1.4-1.3
		C459.3,365.5,459.2,364.3,459.2,363.1z M-313.1,363c0-1.1,0-2.2,0-3.3c0-0.9-0.5-1.5-1.4-1.5c-2.3,0-4.6,0-6.9,0
		c-0.9,0-1.5,0.5-1.5,1.5c0,2.3,0,4.6,0,6.9c0,0.9,0.5,1.5,1.4,1.5c2.3,0,4.6,0,6.9,0c1,0,1.5-0.5,1.5-1.5
		C-313.1,365.4-313.1,364.2-313.1,363z M442.5,363.1C442.5,363.1,442.5,363.1,442.5,363.1c0-1.1,0-2.2,0-3.3c0-1.1-0.6-1.6-1.6-1.6
		c-2.2,0-4.5,0-6.7,0c-1.1,0-1.6,0.6-1.6,1.7c0,2.2,0,4.5,0,6.7c0,1.1,0.6,1.6,1.7,1.6c2.2,0,4.5,0,6.7,0c1.1,0,1.6-0.6,1.6-1.6
		C442.5,365.3,442.5,364.2,442.5,363.1z M-267,363.2C-267,363.2-267,363.2-267,363.2c0-1.2,0-2.4,0-3.6c0-1-0.5-1.5-1.5-1.5
		c-2.2,0-4.5,0-6.7,0c-1.2,0-1.7,0.6-1.7,1.8c0,2.2,0,4.3,0,6.5c0,1,0.4,1.7,1.5,1.7c2.3,0,4.6,0,6.9,0c1,0,1.5-0.5,1.5-1.5
		C-267,365.4-267,364.3-267,363.2z M468.7,372.6C468.7,372.6,468.7,372.6,468.7,372.6c-1,0-2.1,0-3.1,0c-1.2,0-1.7,0.5-1.7,1.7
		c0,2.2,0,4.3,0,6.5c0,1.2,0.6,1.7,1.8,1.7c2.1,0,4.2,0.1,6.2,0c1.5-0.1,1.8-0.4,1.9-1.9c0.1-2,0.1-4,0-6c-0.1-1.8-0.3-2-2.2-2
		C470.6,372.6,469.6,372.6,468.7,372.6z M454.2,372.6c-1,0-2.1,0-3.1,0c-1.2,0-1.8,0.5-1.8,1.7c0,2.1,0,4.3,0,6.4
		c0,1.2,0.5,1.8,1.7,1.8c2.1,0,4.3,0,6.4,0c1.2,0,1.8-0.5,1.8-1.7c0-2.1,0-4.3,0-6.4c0-1.2-0.5-1.8-1.7-1.7
		C456.4,372.7,455.3,372.6,454.2,372.6z M437.6,372.6c-1.2,0-2.4,0-3.6,0c-1,0-1.5,0.5-1.5,1.5c0,2.3,0,4.6,0,6.9
		c0,1,0.6,1.5,1.5,1.5c2.3,0,4.6,0,6.9,0c1,0,1.5-0.5,1.5-1.5c0-2.3,0-4.6,0-6.9c0-1-0.5-1.4-1.5-1.4
		C439.8,372.6,438.7,372.6,437.6,372.6z M-271.8,372.6c-1.2,0-2.4,0-3.6,0c-1,0-1.5,0.4-1.5,1.4c0,2.3,0,4.6,0,6.9
		c0,0.9,0.5,1.5,1.5,1.5c2.3,0,4.6,0,6.9,0c0.9,0,1.5-0.5,1.5-1.5c0-2.3,0-4.6,0-6.9c0-1-0.5-1.5-1.5-1.5
		C-269.6,372.6-270.7,372.6-271.8,372.6z M-313,377.7c0-1.1,0-2.2,0-3.4c0-1.2-0.5-1.8-1.7-1.8c-2.2,0-4.3,0-6.5,0
		c-1.2,0-1.7,0.6-1.7,1.8c0,2.1,0,4.2,0,6.2c0,1.6,0.3,1.8,1.8,1.9c1.1,0.1,2.2,0,3.4,0C-312.5,382.5-313.1,383-313,377.7z
		 M543.7,420.7c0-1.1,0-2.2,0-3.4c0-0.9-0.4-1.6-1.4-1.6c-2.3,0-4.6,0-6.9,0c-0.9,0-1.5,0.5-1.5,1.5c0,2.3,0,4.6,0,7
		c0,1,0.6,1.4,1.5,1.4c2.2,0,4.5,0,6.7,0c1.1,0,1.6-0.5,1.6-1.6C543.7,422.9,543.7,421.8,543.7,420.7z M569,425.6
		C569,425.6,569,425.6,569,425.6c1.2,0,2.4,0,3.6,0c0.9,0,1.4-0.5,1.4-1.3c0-2.4,0-4.8,0-7.2c0-0.9-0.6-1.3-1.4-1.3
		c-2.3,0-4.6,0-7,0c-1,0-1.5,0.5-1.5,1.5c0,2.3,0,4.6,0,7c0,1,0.6,1.4,1.5,1.4C566.8,425.6,567.9,425.6,569,425.6z M463.8,363
		c0,1.1,0,2.2,0,3.3c0,1.2,0.6,1.7,1.7,1.7c2.1,0,4.3,0,6.4,0c1.2,0,1.7-0.6,1.7-1.8c0-2.1,0-4.3,0-6.4c0-1.2-0.6-1.7-1.8-1.7
		c-2.1,0-4.3,0-6.4,0c-1.2,0-1.7,0.6-1.7,1.8C463.8,361,463.8,362,463.8,363z M-182.8,331.6C-182.8,331.7-182.8,331.7-182.8,331.6
		c1.8,0,3.5,0.1,5.3,0c1.6-0.1,1.8-0.5,1.4-2c-0.8-2.7-3.2-4.2-6.5-4.2c-3.3,0-5.6,1.6-6.4,4.3c-0.4,1.4-0.2,1.8,1.3,1.8
		C-186.2,331.7-184.5,331.6-182.8,331.6z M558.2,331.7C558.2,331.7,558.2,331.6,558.2,331.7c1.7,0,3.4,0.1,5,0
		c1.4-0.1,1.8-0.7,1.4-2.1c-0.1-0.5-0.4-0.9-0.6-1.3c-2.6-3.8-8.9-3.9-11.5,0c-0.2,0.3-0.4,0.7-0.6,1c-0.6,1.6-0.2,2.3,1.5,2.3
		C555,331.7,556.6,331.7,558.2,331.7z M87,447.1c0,0.6,0,1.3,0,1.9c0.1,1.8,0.2,1.9,1.9,2c0.7,0,1.4,0,2.2,0c4,0,3.9,0.4,3.9-3.9
		c0-4.3,0.2-3.9-3.9-3.9C86.7,443.2,87.1,442.8,87,447.1z M795.7,404.4c0-4.3,0.4-3.9-4-4c-4.2,0-3.8-0.3-3.8,3.9
		c0,4.3-0.4,3.9,4,3.9C796,408.3,795.7,408.6,795.7,404.4z M106.4,447.1c0-4.2,0.3-3.9-3.8-3.9c-4.4,0-4-0.3-4,4
		c0,4.2-0.3,3.9,3.8,3.9C106.7,451,106.4,451.5,106.4,447.1z M95,458.4c0-4.1,0.1-3.7-3.8-3.7c-4.6,0-4.1-0.4-4.1,4.1
		c0,4-0.3,3.7,3.8,3.7C95.2,462.5,95,463.1,95,458.4z M106.4,458.7c0-4.4,0.4-4-4-4c-4.3,0-3.9-0.3-3.9,3.8c0,4.4-0.4,4,4,4
		C106.7,462.6,106.4,462.9,106.4,458.7z M185.9,435.7c4.4,0,4,0.4,4-4c0-4.2,0.3-3.9-3.8-3.9c-4.4,0-4-0.4-4,4
		C182.1,436,181.7,435.7,185.9,435.7z M-144.2,425c0-4.2,0.3-3.8-3.9-3.8c-4.3,0-3.9-0.4-3.9,4c0,4.2-0.3,3.8,3.9,3.8
		C-143.8,429-144.2,429.3-144.2,425z M791.9,411.9c-4.5,0-4.1-0.2-4.1,3.9c0,3.8-0.3,3.6,3.9,3.6c4.3,0,4,0.2,4-3.8
		C795.7,411.8,796,411.9,791.9,411.9z M-140.6,425c0,0.2,0,0.3,0,0.5c0,3.5,0,3.5,3.5,3.5c4.3,0,4,0.4,4-4.2c0-4,0-3.6-3.6-3.6
		C-140.7,421.1-140.6,420.7-140.6,425z M-105.3,425c0-0.2,0-0.5,0-0.7c0-3.2,0-3.2-3.3-3.2c-4.4,0-4.2-0.5-4.2,4.3
		c0,3.6,0,3.6,3.5,3.6C-105,428.9-105.3,429.4-105.3,425z M-101.6,424.9c0,0.2,0,0.3,0,0.5c0,3.9-0.2,3.6,3.7,3.6
		c3.9,0,3.9,0.5,3.9-3.9c0-4.3,0-3.9-3.8-3.9C-101.9,421.1-101.6,420.9-101.6,424.9z M839.5,458.5c0,0.1,0,0.2,0,0.2
		c0,4.2,0,3.8,3.8,3.8c3.9,0,3.9,0.5,3.9-3.9c0-4.3,0-3.9-3.9-3.9C839.5,454.7,839.5,454.4,839.5,458.5z M201,431.7
		c0-4.1,0.3-3.8-3.6-3.8c-4,0-3.9-0.4-3.9,4.1c0,3.7,0,3.7,3.6,3.7C201.3,435.7,201,436,201,431.7z M835.6,458.5c0-0.7,0-1.4,0-2.1
		c0-1.1-0.5-1.6-1.6-1.6c-0.4,0-0.8,0-1.2,0c-5.3,0.1-4.7-0.6-4.7,4.7c0,3.1,0,3.1,3.2,3.2c0.1,0,0.2,0,0.2,0
		C835.8,462.5,835.7,463.1,835.6,458.5z M-148,382.2c-0.2,0-0.3,0-0.5,0c-3.5,0-3.5,0-3.5,3.5c0,4.1-0.5,4,4,4c4.2,0,3.9,0,3.9-3.7
		C-144.2,381.9-143.8,382.2-148,382.2z M784.2,404.5c0-4.5,0.2-4-3.9-4.1c-3.6,0-3.6-0.3-3.6,3.7c0,4.5-0.3,4.2,3.8,4.2
		C784.4,408.3,784.3,408.6,784.2,404.5z M54.6,404.6c0-0.5,0-1,0-1.4c0-2.6-0.1-2.7-2.7-2.7c-0.2,0-0.5,0-0.7,0
		c-4.4,0-4.2-0.5-4.2,4.1c0,4.1-0.1,3.8,3.7,3.8C54.7,408.3,54.7,408.7,54.6,404.6z M43.5,404.4c0-4.2,0.3-3.9-3.8-3.9
		c-3.7,0-3.8-0.4-3.7,3.8c0,4.4-0.1,4.1,3.7,4C43.8,408.3,43.5,408.7,43.5,404.4z M843.2,451c0.6,0,1.3,0,1.9,0
		c1.7-0.1,1.9-0.2,2-1.9c0-0.9,0-1.8,0-2.6c0-3.3,0-3.3-3.3-3.3c-4.5,0-4.3-0.5-4.3,4.2C839.5,451,839.5,451,843.2,451z M828.1,447
		c0,0.2,0,0.3,0,0.5c0,3.5,0,3.5,3.5,3.5c4.2,0,4.1,0.5,4.1-4.2c0-3.6,0-3.7-3.7-3.6C827.9,443.2,828.1,442.8,828.1,447z
		 M144.6,387.1c0,0.2,0,0.3,0,0.5c0,3.7-0.1,3.5,3.5,3.5c4.1,0,4,0.5,4-4c0-4.2-0.1-3.8-3.7-3.8
		C144.3,383.2,144.6,382.8,144.6,387.1z M914.1,438.2c0.2,0,0.3,0,0.5,0c3.5,0,3.6,0,3.6-3.5c0-4.3,0.4-4.1-4.2-4.1
		c-3.7,0-3.7,0-3.7,3.7C910.2,438.3,909.8,438.2,914.1,438.2z M163.5,387c0-0.8,0-1.6,0-2.4c0-1-0.5-1.5-1.5-1.5c-1.5,0-3,0-4.5,0
		c-1,0-1.5,0.5-1.5,1.5c0,1,0,1.9,0,2.9c0,3.5,0,3.5,3.6,3.5C163.9,391,163.5,391.4,163.5,387z M-147.9,432.6c-4.5,0-4-0.2-4.1,3.9
		c0,3.6-0.3,3.6,3.7,3.6c4.5,0,4.2,0.3,4.2-3.8C-144.2,432.4-143.8,432.5-147.9,432.6z M893.1,387.1c0-0.2,0-0.5,0-0.7
		c0-3.2,0-3.2-3.3-3.2c-4.4,0-4.2-0.5-4.2,4.3c0,3.6,0,3.6,3.5,3.6C893.4,391,893.1,391.5,893.1,387.1z M904.2,387.3
		c0-0.2,0-0.5,0-0.7c0-3.4,0-3.4-3.5-3.4c-4.3,0-4-0.4-4,4c0,4.1-0.3,3.9,3.7,3.8C904.3,391,904.3,391.4,904.2,387.3z M-144.2,397.3
		c0-0.4,0-0.8,0-1.2c0-2.4-0.1-2.5-2.6-2.5c-0.6,0-1.1,0-1.7,0c-3.5,0-3.6,0-3.5,3.5c0,4.3-0.4,4,3.9,4
		C-143.8,401.1-144.2,401.4-144.2,397.3z M186.2,439.3c-4.5,0-4.1-0.2-4.1,3.9c0,3.8-0.3,3.6,3.9,3.6c4.3,0,4,0.2,4-3.8
		C189.9,439.2,190.3,439.3,186.2,439.3z M201,442.9c0-3.7,0.3-3.7-3.7-3.7c-3.9,0-3.9,0-3.9,4c0,3.5,0,3.5,3.6,3.5
		C201.3,446.8,201,447,201,442.9z M144.6,398.2c0,4.2-0.4,4,4.1,4c0.2,0,0.5,0,0.7,0c2.6,0,2.7-0.2,2.8-2.7c0-0.2,0-0.5,0-0.7
		c0-4.4,0.2-4.1-4-4.1C144.6,394.6,144.6,394.6,144.6,398.2z M-97.9,401.1c3.8,0,3.8,0,3.8-3.8c0-3.7,0-3.7-3.7-3.7
		c-4.2,0-3.9,0-3.9,3.7C-101.6,401.4-101.9,401.1-97.9,401.1z M-109,401.1c4,0,3.8,0.2,3.7-3.8c0-3.8,0.3-3.8-3.8-3.7
		c-3.7,0-3.7,0-3.7,3.7C-112.8,401.5-112.8,401.1-109,401.1z M-136.8,401.1c3.9,0,3.7,0.3,3.7-3.8c0-3.7,0-3.7-3.7-3.7
		c-3.8,0-3.8,0-3.8,3.8C-140.6,401.5-140.7,401.1-136.8,401.1z M-94.1,436.1c0-3.6,0-3.6-3.6-3.6c-0.1,0-0.2,0-0.2,0
		c-4.1,0-3.7-0.1-3.7,3.8c0,3.7-0.3,3.7,3.6,3.7C-94.1,440.1-94.1,440.1-94.1,436.1z M-105.3,436.2c0-3.7,0.3-3.7-3.7-3.7
		c-3.9,0-3.9,0-3.9,4c0,3.5,0,3.5,3.6,3.5C-104.9,440.1-105.3,440.3-105.3,436.2z M-133,436.3c0-3.8,0-3.8-3.6-3.8
		c-4.2,0-3.9-0.2-3.9,3.9c0,3.6,0,3.6,3.7,3.6C-133,440.1-133,440.1-133,436.3z M928.8,438.2c3.8,0,3.8,0,3.8-3.8
		c0-3.8,0-3.8-3.8-3.8c-3.8,0-3.8,0-3.8,3.8C925,438.2,925,438.2,928.8,438.2z M163.5,398.4c0-3.9,0.3-3.7-3.8-3.7
		c-3.7,0-3.7,0-3.7,3.7c0,3.8,0,3.8,3.8,3.8C163.9,402.2,163.5,402.3,163.5,398.4z M893.1,398.4c0-3.8,0-3.8-3.5-3.8c-4,0-4,0-4,3.9
		c0,3.7,0,3.6,3.7,3.7C893.4,402.2,893.1,402.3,893.1,398.4z M896.8,398.4c0,3.8,0,3.8,3.5,3.8c4.1,0,3.9,0.2,3.9-3.9
		c0-3.6,0-3.6-3.7-3.6C896.5,394.6,896.8,394.5,896.8,398.4z M-101.6,386c0,3.7,0,3.7,3.6,3.7c0.1,0,0.2,0,0.2,0
		c3.7,0,3.7,0,3.7-3.7c0-3.8,0-3.8-3.8-3.8C-101.9,382.2-101.6,382-101.6,386z M-105.3,386c0-4,0.3-3.8-3.8-3.8
		c-3.8,0-3.8,0-3.8,3.8c0,3.7,0,3.7,3.7,3.7C-104.9,389.8-105.3,389.8-105.3,386z M-133,386c0-3.7,0-3.8-3.6-3.7c-4.1,0-4-0.4-4,3.8
		c0,3.7,0,3.7,3.7,3.7C-133,389.7-133,389.7-133,386z M43.5,415.7c0-3.9,0.3-3.8-3.8-3.8c-3.8,0-3.8,0-3.8,3.9c0,3.7,0,3.7,3.7,3.7
		C43.8,419.5,43.5,419.6,43.5,415.7z M50.9,419.4c3.8,0,3.8,0,3.8-3.6c0-4.1,0.2-3.9-3.9-3.9c-3.6,0-3.6,0-3.6,3.7
		C47.1,419.4,47.1,419.4,50.9,419.4z M776.7,415.7c0,3.8,0,3.8,3.6,3.8c4.2,0,3.9,0.2,3.9-3.9c0-3.6,0-3.6-3.7-3.6
		C776.7,411.9,776.7,411.9,776.7,415.7z"/>
	<path class="st0" d="M4.6,323.7c-2.4,0-4.8,0-7.2,0c-0.5,0-1.2,0.1-1.5-0.5c-0.3-0.7,0.2-1.2,0.6-1.7c1.5-1.7,3.5-2.5,5.7-2.8
		c3.1-0.4,6.2-0.3,9,1.4c0.9,0.5,1.7,1.2,2.2,2.1c0.5,0.9,0.2,1.4-0.8,1.4c-1.8,0.1-3.5,0-5.3,0.1C6.5,323.7,5.6,323.7,4.6,323.7
		C4.6,323.7,4.6,323.7,4.6,323.7z"/>
	<path class="st0" d="M745.5,323.7c-2.4,0-4.8,0-7.2,0c-0.6,0-1.4,0.2-1.6-0.6c-0.2-0.7,0.3-1.2,0.8-1.6c1.4-1.5,3.3-2.3,5.2-2.6
		c2.8-0.5,5.5-0.4,8.2,0.7c1.2,0.5,2.3,1.2,3.1,2.2c0.3,0.4,0.8,0.9,0.6,1.5c-0.3,0.7-0.9,0.5-1.4,0.5c-1.9,0-3.8,0-5.7,0
		C746.8,323.7,746.1,323.7,745.5,323.7C745.5,323.7,745.5,323.7,745.5,323.7z"/>
</g>
<g>
	<path class="st0" d="M2522.9,468.1c-58.8,0-117.5,0-176.2,0c-0.3-3.8-0.1-7.7-0.2-11.5c0-2.4-0.1-4.8,0-7.2
		c0.1-2.8-1.2-4.8-3.7-5.9c-4.4-1.9-8.9-1.9-13.3-0.1c-2.3,1-3.5,2.8-3.5,5.5c0.1,6.4,0,12.8,0,19.2c-69.6,0-139.2,0-208.8,0
		c0-4.1,0-8.1,0-12.2c0-3.1-0.8-4.3-3.7-5.4c-3.3-1.2-6.5-1.3-9.8-0.1c-2.8,1-3.9,2.5-4,5.5c-0.1,4.1,0.2,8.1-0.2,12.2
		c-164.6,0-329.3,0-493.9,0c0-6.1,0-12.3,0-18.4c0-3.7-1-5.2-4.5-6.5c-3.7-1.4-7.5-1.4-11.3-0.2c-3.4,1.1-4.7,3.1-4.7,6.6
		c0,5.2,0,10.4,0,15.6c0,1-0.1,1.9-0.2,2.9c-69.4,0-138.9,0-208.3,0c0-4.2-0.1-8.3-0.1-12.5c0-2.3-1-3.9-3-4.7
		c-3.7-1.7-7.6-1.8-11.4-0.3c-2.2,0.9-3.3,2.5-3.3,5c0.1,4.2,0,8.3-0.1,12.5c-71.2,0-142.4,0-213.6,0c-0.3-3.3-0.1-6.6-0.1-9.8
		c0-2.7,0-5.4,0-8.2c0-1-0.1-2.1-0.5-3.1c-1.4-3.6-4.4-4.9-8-5.1c-3.5-0.2-6.5,0.8-8.4,4c-0.7,1.2-0.7,2.6-0.7,4
		c0,6.1,0,12.2,0,18.2c-29,0-57.9,0-86.9,0c0-56.5,0-113,0-169.4c2.6,0.9,4.7,2.8,6.9,4.3c12,8,23.9,16.1,35.8,24.1
		c0.5,0.3,0.9,0.9,1.8,0.5c0-1.7,0.6-3.4-1-4.8c-0.4-0.4-0.4-1-0.4-1.6c0-1.4,0-2.7,0-4.1c0-2.3,0.3-2.6,2.7-2.6
		c5.2,0,10.4,0,15.6,0c1.4,0,2.9,0,4.3,0c1.6,0.1,1.9,0.4,2,2c0.1,1.6,0,3.2,0,4.8c0,0.6,0,1.2-0.5,1.6c-1.1,0.9-1,2.1-1,3.3
		c0,4.6,0.1,9.1,0,13.7c-0.1,2.1,0.6,3.4,2.4,4.5c14.5,9.5,28.9,18.9,43.5,28.2c2.4,1.5,2.5,1.8,0.6,3.6c-0.2,0.1-0.1,0.3,0.2,0.4
		c0.3-0.1,0.7-0.3,1.1-0.4c10-4.6,19.9-9.1,29.8-13.8c2.3-1.1,4.1-1,6.2,0.2c4.7,2.7,9.6,5.2,14.4,7.7c0.4,0.2,0.8,0.5,1.3,0.7
		c0.7,0.2,0.8-0.2,0.8-0.8c0-0.4-0.2-0.8-0.5-1c-0.9-0.9-0.7-2.1-0.7-3.2c0-1,0.5-1.6,1.6-1.6c4.8,0,9.6,0,14.4,0
		c1.1,0,1.6,0.6,1.6,1.6c0,1,0.3,2-0.4,2.8c-0.9,1-0.8,2-0.8,3.1c0,1.8,0.1,3.7,0,5.5c-0.1,1.6,0.5,2.5,1.9,3.2
		c6.5,3.4,12.9,6.8,19.3,10.2c0.8,0.4,1.5,0.7,2.3,1.1c-1-1.3-2.2-2.3-3.4-3.3c-1.1-1-1.1-1.3-0.1-2.3c0.3-0.4,0.7-0.7,1-1
		c12.1-11,24.1-22,36.2-32.9c3.3-3,6.5-5.9,9.8-8.9c1.4-1.3,1.5-1.3,3.1-0.4c0.3,0.2,0.6,0.3,0.8,0.5c13.9,8.1,27.7,16.3,41.6,24.4
		c1.8,1.1,3.7,2.1,5.5,3.2c-0.1-0.5-0.4-0.7-0.7-1c-3.9-3.5-7.8-7.1-11.7-10.6c-1.4-1.3-1.4-1.5-0.3-3c0.8-1.1,1.6-2.2,2.6-3.1
		c1.4-1.4,1.8-2.9,1.7-4.8c-0.1-3,0-5.9,0-8.9c0-4.3,0-8.6,0-13c0-2.2,0.2-2.4,2.3-2.4c1.6,0,3.2,0,4.8,0c2.1,0.1,2.3,0.2,2.3,2.4
		c0,3.1,0,6.2,0,9.4c0,1-0.1,2,0.2,3c0.6-0.1,0.8-0.5,1-0.8c6.6-8.1,13.2-16.1,19.7-24.2c0.7-0.9,1.4-1.7,2.1-2.6
		c0.7-0.9,1.4-0.9,2.2-0.1c0.2,0.2,0.5,0.5,0.7,0.7c8.7,8.6,17.3,17.4,26.1,25.9c5.5,5.3,10.8,10.7,16.1,16.1
		c1.5,1.5,1.6,1.5,3.1,0.3c8.8-6.7,17.6-13.4,26.3-20.1c7.9-6,15.8-12,23.6-18.1c1.1-0.9,2.1-1.3,3.4-0.5c8,4.9,16.4,9.3,24.3,14.6
		c13.2,9,26.4,18,39.7,27c0.6,0.4,1.2,1,2.5,1.3c-0.9-0.8-1.5-1.3-2.1-1.8c-12.5-9.9-25-19.8-37.4-29.6c-2.3-1.8-2.3-1.9,0.1-3.5
		c9.8-6.6,19.6-13.2,29.4-19.9c1.2-0.8,2-0.8,3.2,0c4.6,3.3,9.3,6.5,14,9.7c4.9,3.4,9.7,6.8,14.6,10.2c2.1,1.5,2.1,1.8-0.1,3.1
		c-3.8,2.3-7.4,5-11.1,7.5c-0.5,0.3-0.9,0.7-1.4,1.1c0.8,0,1.3-0.2,1.9-0.5c29.7-13.2,59.5-26.5,89.2-39.8c1.7-0.7,3.1-0.8,4.8-0.1
		c8.6,3.9,17.3,7.6,25.9,11.4c5.6,2.5,11.3,5,16.9,7.5c1.8,0.8,2,0.6,2.1-1.4c0-2,0-4,0-6c0-1.6-0.2-1.7-1.8-1.9c-0.4,0-0.8,0-1.2,0
		c-1.2,0-1.7-0.7-1.7-1.8c0-1.4,0-2.9,0-4.3c0-1.1,0.5-1.6,1.6-1.7c0.4,0,0.8,0,1.2,0c8.2,0,16.5,0,24.7,0c0.4,0,0.8,0,1.2,0
		c1.1,0,1.6,0.6,1.7,1.6c0,1.3,0.1,2.6,0,3.8c-0.1,2.1-0.2,2.3-2.4,2.4c-2.3,0.2-2.3,0.2-2.3,2.6c0,4.8,0.1,9.6,0,14.4
		c0,1.8,0.6,2.7,2.2,3.4c17.8,7.8,35.6,15.7,53.5,23.2c2.1,0.9,4.2,1.7,6.3,2.6c-1.9-1.7-4-3.1-6.1-4.3c-1.1-0.7-1.4-1.5-0.7-2.6
		c0.3-0.5,0.5-1,0.8-1.5c4.4-8.9,8.9-17.7,13.3-26.6c2.5-5.1,5.1-10.1,7.7-15.2c1.3-2.6,1.4-2.6,3.9-1c1.9,1.3,3.8,2.6,5.7,3.9
		c11.3,7.6,22.7,15.3,34,22.9c0.7,0.5,1.3,1.2,2.3,1c0.4-1,0.2-2,0.2-2.9c0-0.2,0-0.5-0.1-0.7c-0.1-0.7-0.9-0.9-1.1-1.5
		c-0.2-0.4-0.3-0.9-0.3-1.4c0-1.6-0.1-3.2,0-4.8c0.1-1.7,0.3-2,2-2c6.7,0,13.4,0,20.2,0c0.2,0,0.5,0,0.7,0.1
		c0.8,0.1,1.4,0.6,1.3,1.4c-0.3,2.6,1.1,5.4-1.1,7.8c-0.3,0.3-0.2,0.9-0.2,1.4c0,5.4,0,10.7,0,16.1c0,1.1,0.4,1.8,1.3,2.4
		c0.5,0.3,1.1,0.7,1.6,1.1c14.4,9.4,28.8,18.8,43.2,28.1c2,1.3,1.9,1.3,0.9,3.5c0.9-0.3,1.6-0.6,2.3-0.9c9.7-4.4,19.3-8.8,29-13.4
		c1.6-0.7,2.9-0.8,4.5,0.1c4.8,2.7,9.7,5.3,14.6,7.8c0.7,0.4,1.5,1.4,2.3,0.7c0.8-0.7-0.3-1.4-0.5-2.1c-0.9-2.9,0-4.2,3.1-4.2
		c3.8,0,7.7,0,11.5,0c2.5,0,2.9,0.5,2.7,3c0,0.6-0.1,1.1-0.4,1.6c-0.6,0.8-0.6,1.8-0.6,2.8c0,1.9,0.1,3.8,0,5.8
		c-0.1,1.7,0.6,2.6,2.1,3.4c4.5,2.3,8.9,4.7,13.3,7.1c2.6,1.4,5.2,2.7,7.8,4c-0.9-1.2-2.1-2.2-3.2-3.2c-1.3-1.2-1.3-1.4,0-2.6
		c3.8-3.5,7.7-7,11.5-10.5c11.6-10.6,23.2-21.1,34.7-31.7c1.9-1.8,2-1.8,4.1-0.5c15,8.8,30.1,17.7,45.1,26.5c0.6,0.3,1.1,0.9,2,0.8
		c-0.7-1.1-1.7-1.7-2.5-2.4c-3.2-2.9-6.4-5.8-9.6-8.7c-1.4-1.3-1.4-1.5-0.2-3c0.7-1,1.5-1.9,2.3-2.8c1.3-1.4,1.8-3,1.8-5
		c-0.1-6.6,0-13.3,0-19.9c0-0.8,0-1.6,0-2.4c0.1-1.7,0.3-2,2-2c1.7-0.1,3.4,0,5,0c2.5,0,2.7,0.2,2.7,2.8c0,3.4,0,6.7,0,10.1
		c0,0.5-0.3,1.1,0.5,1.5c0.5-0.5,0.9-1,1.4-1.6c6.6-8.1,13.3-16.2,19.9-24.3c2.1-2.6,2.1-2.5,4.5-0.2c13.7,13.7,27.4,27.4,41.1,41.1
		c2.1,2.1,2.1,2.1,4.3,0.4c9.9-7.6,19.8-15.2,29.7-22.7c6.5-5,13.1-10,19.6-15c1.1-0.8,2.1-1.3,3.5-0.5c7.2,4.3,14.6,8.3,21.7,12.9
		c12.8,8.4,25.3,17.2,37.9,25.8c2.3,1.6,4.7,3.2,7.1,4.7c-4.9-4.4-10-8.4-15.2-12.5c-8.3-6.6-16.6-13.1-24.8-19.6
		c-1.8-1.5-1.8-1.8,0.2-3.1c9.7-6.6,19.5-13.2,29.2-19.8c1.3-0.9,2.4-1.2,3.8-0.1c9.4,6.7,18.9,13.2,28.3,19.8
		c2.2,1.5,2.1,1.7,0,3.1c-0.2,0.1-0.4,0.2-0.6,0.4c-4.4,2.7-8.4,5.8-12.8,8.6c0.6,0.2,0.9-0.1,1.2-0.2c6.1-2.7,12.1-5.4,18.2-8.1
		c24.3-10.8,48.5-21.6,72.8-32.4c1.6-0.7,2.9-0.7,4.5,0c13.8,6.2,27.6,12.2,41.5,18.3c0.7,0.3,1.3,0.6,2,0.8c0.7,0.3,1.1,0,1.1-0.7
		c0-2.5,0-5,0-7.4c0-0.9-0.6-1.3-1.4-1.3c-0.4,0-0.8,0-1.2-0.1c-1.6-0.2-1.9-0.4-2-2.1c-0.1-1,0-1.9,0-2.9c0-2.7,0.2-2.9,2.9-2.9
		c7.1,0,14.2,0,21.4,0c1.2,0,2.4,0,3.6,0c2.4,0.1,2.5,0.2,2.6,2.7c0,1,0,2.1,0,3.1c-0.1,1.7-0.3,1.9-1.9,2.1
		c-2.4,0.3-2.5,0.3-2.5,2.8c0,4.6,0.1,9.3,0,13.9c-0.1,2.1,0.6,3.1,2.6,4c19.6,8.6,39.3,17.2,58.9,25.9c5.8,2.5,11.5,5.1,17.3,7.7
		C2522.9,395.5,2522.9,431.8,2522.9,468.1z M1124.2,429.9c11-3.4,22-6.8,32.9-10.2c1.9-0.6,3.5-0.5,5.3,0.2
		c10.7,4.4,21.5,8.6,32.3,12.9c0.5,0.2,1,0.4,1.7,0.2c-0.9-0.5-1.8-1.1-2.8-1.5c-10.3-5.2-20.7-10.4-31-15.7
		c-1.4-0.7-2.6-0.9-4.1-0.3c-14.8,5.6-29.6,11.2-44.4,16.8c-0.6,0.2-1.1,0.5-1.7,0.7c0,0.1,0.1,0.2,0.1,0.3
		C1116.4,432.2,1120.3,431.1,1124.2,429.9z M1849.2,430.3c13.1-4.1,26.3-8.1,39.4-12.2c1.8-0.6,3.3-0.5,5.1,0.2
		c11.6,4.7,23.1,9.3,34.7,13.9c0.2,0.1,0.4,0.2,0.8,0c-0.5-0.3-1-0.6-1.5-0.8c-11-5.6-22.1-11.2-33.1-16.8c-1.6-0.8-3-1.2-4.8-0.5
		c-15.2,5.8-30.5,11.6-45.7,17.4c-0.2,0.1-0.4,0.2-0.6,0.4c0,0.1,0.1,0.2,0.1,0.2C1845.5,431.4,1847.3,430.8,1849.2,430.3z
		 M2208.1,333.3c-3.5-0.1-7.3,2.3-7.6,7.3c-0.2,3.9,3.4,7.3,7.3,7.4c4.1,0,7.2-3.1,7.3-7.3C2215.2,336.4,2212.3,333.5,2208.1,333.3z
		 M1625.9,441.3c-1.6,0.1-1.9,0.3-1.9,1.8c-0.1,3,0,5.9,0,8.9c0,1.2,0.6,1.7,1.8,1.7c3,0,6.1,0,9.1,0c1.5,0,1.8-0.3,1.8-1.9
		c0-2.9,0.1-5.8,0-8.6c0-1.5-0.3-1.8-1.9-1.8c-1.5-0.1-3,0-4.6,0C1628.8,441.3,1627.3,441.2,1625.9,441.3z M1424.7,452.3
		c0,1,0.4,1.7,1.5,1.7c3.1,0,6.2,0,9.3,0c1,0,1.5-0.5,1.5-1.5c0-3.2,0-6.4,0-9.6c0-1.1-0.6-1.6-1.6-1.6c-3,0-6.1,0-9.1,0
		c-1.1,0-1.6,0.5-1.6,1.6c0,1.6,0,3.2,0,4.8c0,0,0,0,0,0C1424.7,449.3,1424.7,450.8,1424.7,452.3z M1418.2,454c1,0,1.5-0.5,1.5-1.5
		c0-3.3,0-6.5,0-9.8c0-0.9-0.5-1.3-1.3-1.3c-3.2,0-6.4,0-9.6,0c-1,0-1.4,0.6-1.4,1.6c0,3.1,0,6.2,0,9.3c0,1.2,0.5,1.8,1.8,1.7
		c1.5,0,3,0,4.5,0c0,0,0,0,0,0C1415.2,454,1416.7,454,1418.2,454z M1084.5,393.7c0,1.2,0.5,1.8,1.7,1.8c3,0,5.9,0,8.9,0
		c1.1,0,1.6-0.5,1.6-1.6c0-3,0-6.1,0-9.1c0-1.1-0.6-1.5-1.7-1.5c-3,0-5.9,0-8.9,0c-1.3,0-1.7,0.7-1.6,1.8c0,1.5,0,3,0,4.5
		C1084.5,391,1084.5,392.4,1084.5,393.7z M2366.8,441.3c-1.2,0-1.8,0.6-1.8,1.7c0,3,0,5.9,0,8.9c0,1.2,0.6,1.8,1.7,1.8
		c3,0,5.9,0,8.9,0c1.2,0,1.8-0.6,1.8-1.8c0-3,0-5.9,0-8.9c0-1.2-0.6-1.8-1.7-1.8c-1.5,0-3,0-4.6,0
		C2369.6,441.3,2368.2,441.3,2366.8,441.3z M1714.8,442.5c1,0,1.5-0.4,1.5-1.4c0-3.1,0-6.2,0-9.3c0-1-0.6-1.4-1.5-1.4
		c-3,0-6.1,0-9.1,0c-1.1,0-1.7,0.5-1.7,1.6c0,3,0,6.1,0,9.1c0,1.1,0.6,1.6,1.7,1.6c1.5,0,3,0,4.5,0
		C1711.8,442.5,1713.3,442.5,1714.8,442.5z M1721.8,440.8c0,1.2,0.6,1.7,1.8,1.7c3,0,5.9,0,8.9,0c1.1,0,1.7-0.4,1.7-1.5
		c0-3,0-6.1,0-9.1c0-1.1-0.5-1.6-1.6-1.6c-3,0-6.1,0-9.1,0c-1.1,0-1.6,0.6-1.6,1.7c0,1.4,0,2.9,0,4.3c0,0,0,0,0,0
		C1721.8,437.8,1721.8,439.3,1721.8,440.8z M1086.3,400.6c-1.6,0.1-1.8,0.2-1.9,1.8c0,2.9,0,5.7,0,8.6c0,1.2,0.4,1.8,1.7,1.8
		c2.9,0,5.9,0,8.8,0c1.3,0,1.7-0.6,1.7-1.8c0-2.9,0-5.7,0-8.6c0-1.5-0.2-1.7-1.9-1.7c-1.4,0-2.7,0-4.1,0
		C1089.2,400.6,1087.8,400.6,1086.3,400.6z M2444.7,440.7c0,1.1,0.4,1.8,1.7,1.8c3,0,6.1,0,9.1,0c1.1,0,1.6-0.6,1.6-1.7
		c0-3,0-5.9,0-8.9c0-1.2-0.6-1.7-1.8-1.7c-3,0-5.9,0-8.9,0c-1.2,0-1.7,0.7-1.7,1.8c0,1.5,0,3,0,4.5
		C2444.7,438,2444.7,439.4,2444.7,440.7z M1714.7,424.8c1.1,0,1.6-0.4,1.6-1.6c0-3,0-6.1,0-9.1c0-1.1-0.5-1.6-1.6-1.6
		c-3,0-5.9,0-8.9,0c-1.5,0-1.8,0.3-1.8,1.9c-0.1,2.8-0.1,5.6,0,8.4c0,1.7,0.3,1.9,2,1.9c1.4,0,2.7,0,4.1,0c0,0,0,0,0,0
		C1711.6,424.8,1713.1,424.8,1714.7,424.8z M2473.3,442.5c1,0,1.5-0.5,1.5-1.5c0-3.1,0-6.2,0-9.3c0-1-0.6-1.4-1.5-1.4
		c-3,0-6.1,0-9.1,0c-1.1,0-1.6,0.5-1.6,1.6c0,3,0,6.1,0,9.1c0,1.1,0.6,1.5,1.7,1.5c1.6,0,3.2,0,4.8,0c0,0,0,0,0,0
		C2470.4,442.5,2471.8,442.5,2473.3,442.5z M1734,414.4c-0.1-1.6-0.3-1.8-1.9-1.8c-2.8-0.1-5.6-0.1-8.4,0c-1.7,0-2,0.3-2,1.9
		c-0.1,2.8-0.1,5.6,0,8.4c0,1.7,0.3,1.9,2,1.9c2.8,0,5.6,0,8.4,0c1.6,0,1.8-0.2,1.9-1.8c0.1-1.4,0-2.9,0-4.3
		C1734,417.2,1734.1,415.8,1734,414.4z M2455.4,424.8c1.1,0,1.6-0.5,1.6-1.6c0-3,0-6.1,0-9.1c0-1.1-0.6-1.5-1.7-1.5
		c-3,0-5.9,0-8.9,0c-1.2,0-1.8,0.5-1.7,1.7c0,3,0,5.9,0,8.9c0,1.3,0.7,1.7,1.8,1.7c1.4,0,2.9,0,4.3,0c0,0,0,0,0,0
		C2452.3,424.8,2453.9,424.8,2455.4,424.8z M2473,424.8c1.2,0,1.8-0.4,1.8-1.7c0-3,0-5.9,0-8.9c0-1.2-0.6-1.7-1.8-1.7
		c-3,0-5.9,0-8.9,0c-1,0-1.7,0.4-1.7,1.6c0,3,0,6.1,0,9.1c0,1.1,0.5,1.6,1.6,1.6c1.5,0,3,0,4.5,0c0,0,0,0,0,0
		C2470.1,424.8,2471.5,424.8,2473,424.8z M1079.3,402.3c0-1.1-0.4-1.6-1.5-1.6c-2.9,0-5.7,0-8.6,0c-1.2,0-1.7,0.7-1.7,1.8
		c0,2.9,0,5.7,0,8.6c0,1.2,0.5,1.8,1.7,1.8c2.8,0,5.6,0,8.4,0c1.5,0,1.7-0.2,1.7-1.9c0-1.4,0-2.9,0-4.3c0,0,0,0,0,0
		C1079.3,405.1,1079.3,403.7,1079.3,402.3z M1825.5,394c0,1,0.5,1.5,1.5,1.5c2.9,0,5.9,0,8.8,0c1,0,1.5-0.5,1.5-1.5
		c0-3.1,0-6.2,0-9.3c0-0.9-0.5-1.3-1.4-1.3c-3,0-6.1,0-9.1,0c-1,0-1.4,0.7-1.4,1.6c0,1.5,0,3,0,4.5c0,0,0,0,0,0
		C1825.5,391,1825.5,392.5,1825.5,394z M1808.2,393.9c0,1.1,0.6,1.6,1.6,1.6c2.9,0,5.7,0,8.6,0c1.1,0,1.6-0.5,1.6-1.6
		c0-3,0-5.9,0-8.9c0-1.2-0.6-1.7-1.8-1.7c-2.8,0-5.6,0-8.4,0c-1.2,0-1.7,0.6-1.7,1.7c0,1.5,0,3,0,4.5c0,0,0,0,0,0
		C1808.2,391,1808.2,392.5,1808.2,393.9z M1808.2,411.1c0,1,0.4,1.7,1.5,1.7c2.9,0,5.9,0,8.8,0c1,0,1.5-0.5,1.5-1.5
		c0-3.1,0-6.2,0-9.3c0-0.9-0.5-1.3-1.4-1.3c-3,0-6.1,0-9.1,0c-1,0-1.4,0.7-1.4,1.6c0,1.5,0,3,0,4.5c0,0,0,0,0,0
		C1808.2,408.2,1808.2,409.6,1808.2,411.1z M1835.6,412.8c1.2,0,1.7-0.6,1.7-1.7c0-2.9,0-5.9,0-8.8c0-1.1-0.5-1.6-1.6-1.6
		c-2.9,0-5.7,0-8.6,0c-1.1,0-1.6,0.5-1.6,1.6c0,2.9,0,5.9,0,8.8c0,1.2,0.6,1.7,1.8,1.7c1.4,0,2.7,0,4.1,0
		C1832.8,412.8,1834.2,412.7,1835.6,412.8z M1079.3,384.9c0-1.1-0.5-1.6-1.6-1.6c-2.9,0-5.7,0-8.6,0c-1.1,0-1.6,0.6-1.6,1.6
		c0,2.9,0,5.9,0,8.8c0,1.2,0.6,1.7,1.8,1.7c2.8,0,5.6,0,8.4,0c1.2,0,1.7-0.6,1.7-1.8c0-1.4,0-2.9,0-4.3c0,0,0,0,0,0
		C1079.3,387.9,1079.3,386.4,1079.3,384.9z M1451,361.4c3.7,0,7.3,0,11,0c1.1,0,1.9-0.3,1.9-1.6c0-4.8,0-9.5-0.2-14.4
		c-5.3,5-10.2,10.4-15.5,15.7C1449.3,361.5,1450.1,361.4,1451,361.4z M1469.3,352c0,2.6,0,5.1,0,7.7c0,1,0.3,1.7,1.5,1.7
		c4.5,0,9.1,0,14.1,0c-5.2-5.6-10-10.7-15.4-16C1469.1,348,1469.3,350,1469.3,352z M2121,385c0-1.2-0.6-1.7-1.8-1.7
		c-2.3,0-4.6,0-6.9,0c-0.9,0-1.5,0.4-1.5,1.4c0,2.5,0,4.9,0,7.4c0,1,0.5,1.4,1.5,1.4c2.4,0,4.8,0,7.2,0c1.1,0,1.6-0.5,1.6-1.6
		c0-1.3,0-2.6,0-3.8C2120.9,387.1,2120.9,386.1,2121,385z M1662.3,382.7c1.9-0.1,2.1-0.3,2.2-2c0-2,0-4,0-6c0-1.6-0.2-1.8-1.8-1.9
		c-2.2-0.1-4.5,0-6.7,0c-1.1,0-1.8,0.4-1.8,1.6c0,2.2,0,4.5,0,6.7c0,1.1,0.6,1.6,1.6,1.6c1.2,0,2.4,0,3.6,0c0,0,0,0,0,0
		C1660.4,382.7,1661.4,382.7,1662.3,382.7z M2363.7,380.9c0,1.2,0.5,1.8,1.7,1.8c2.3,0,4.6,0,6.9,0c1.1,0,1.6-0.5,1.6-1.6
		c0-2.2,0-4.5,0-6.7c0-1.1-0.5-1.6-1.6-1.6c-2.4,0-4.8,0-7.2,0c-1.1,0-1.5,0.6-1.5,1.7c0,1.1,0,2.2,0,3.3
		C2363.7,378.8,2363.7,379.8,2363.7,380.9z M1654.2,366.4c0,1.2,0.5,1.8,1.7,1.8c2.3,0,4.6,0,6.9,0c1.1,0,1.6-0.5,1.6-1.6
		c0-2.2,0-4.5,0-6.7c0-1.1-0.5-1.7-1.6-1.7c-2.4,0-4.8,0-7.2,0c-1,0-1.5,0.5-1.5,1.5c0,1.1,0,2.2,0,3.3c0,0,0,0,0,0
		C1654.2,364.2,1654.2,365.3,1654.2,366.4z M2097.7,383.3c-1,0-1.5,0.5-1.5,1.5c0,2.5,0,4.9,0,7.4c0,0.9,0.5,1.3,1.3,1.3
		c2.4,0,4.8,0,7.2,0c0.8,0,1.4-0.5,1.4-1.3c0-2.5,0-4.9,0-7.4c0-1-0.5-1.5-1.5-1.5c-1.2,0-2.4,0-3.6,0
		C2100,383.3,2098.9,383.3,2097.7,383.3z M2380.5,380.9c0,1.2,0.5,1.8,1.7,1.8c2.3,0,4.6,0,6.9,0c1,0,1.6-0.5,1.6-1.6
		c0-2.2,0-4.5,0-6.7c0-1.1-0.5-1.6-1.6-1.6c-2.4,0-4.8,0-7.2,0c-1.1,0-1.5,0.6-1.5,1.7c0,1,0,2.1,0,3.1
		C2380.5,378.6,2380.5,379.8,2380.5,380.9z M1561.7,425.7c1,0,1.5-0.5,1.5-1.5c0-2.3,0-4.6,0-7c0-1-0.6-1.5-1.5-1.5
		c-2.4,0-4.8,0-7.2,0c-1,0-1.5,0.5-1.5,1.5c0,2.3,0,4.6,0,7c0,1,0.6,1.4,1.5,1.4c1.2,0,2.4,0,3.6,0
		C1559.3,425.7,1560.5,425.7,1561.7,425.7z M1370,391.4c0.1,1.9,0.2,2.1,2,2.1c2,0,4,0,6,0c1.6,0,1.9-0.3,1.9-1.8
		c0.1-2.2,0.1-4.5,0-6.7c0-1.5-0.3-1.7-1.9-1.8c-2,0-4,0-6,0c-1.8,0-1.9,0.2-2,2.1c0,0.1,0,0.2,0,0.2c0,1,0,1.9,0,2.9
		C1370,389.5,1370,390.5,1370,391.4z M1365.4,385.1c0-1.2-0.4-1.8-1.7-1.8c-2.1,0-4.3,0-6.4,0c-1.2,0-1.8,0.5-1.8,1.7
		c0,2.3,0,4.6,0,6.9c0,1.2,0.7,1.7,1.8,1.7c2.1,0,4.1,0,6.2,0c1.6,0,1.8-0.2,1.9-1.8c0.1-1.1,0-2.2,0-3.3
		C1365.4,387.3,1365.4,386.2,1365.4,385.1z M2372.3,368.2c1.1,0,1.6-0.5,1.6-1.6c0-2.2,0-4.5,0-6.7c0-1.2-0.7-1.7-1.8-1.7
		c-2.2,0-4.5,0-6.7,0c-1.2,0-1.8,0.5-1.7,1.7c0,2.2,0,4.3,0,6.5c0,1.2,0.5,1.8,1.7,1.8c1.2,0,2.4,0,3.6,0c0,0,0,0,0,0
		C2370,368.2,2371.2,368.2,2372.3,368.2z M2388.6,368.2c1.9-0.1,2.1-0.2,2.1-2c0-2,0-4,0-6c0-1.6-0.3-1.9-1.8-1.9
		c-2.2-0.1-4.5-0.1-6.7,0c-1.5,0-1.7,0.3-1.8,1.9c0,2.1-0.1,4.1,0,6.2c0,1.6,0.3,1.7,1.9,1.8c1.1,0.1,2.2,0,3.3,0c0,0,0,0,0,0
		C2386.6,368.2,2387.6,368.2,2388.6,368.2z M1503.6,417.4c0-1-0.5-1.5-1.5-1.5c-2.5,0-4.9,0-7.4,0c-0.8,0-1.3,0.5-1.3,1.4
		c0,2.4,0,4.8,0,7.2c0,0.9,0.5,1.3,1.3,1.3c2.5,0,4.9,0,7.4,0c1,0,1.5-0.5,1.5-1.5c0-1.2,0-2.4,0-3.6
		C1503.6,419.6,1503.6,418.5,1503.6,417.4z M1561.4,440.2c1.2,0,1.8-0.5,1.8-1.7c0-2.1,0-4.3,0-6.4c0-1.2-0.5-1.8-1.7-1.8
		c-2.3,0-4.6,0-6.9,0c-1.1,0-1.6,0.5-1.6,1.6c0,2.2,0,4.5,0,6.7c0,1.3,0.7,1.7,1.8,1.7c1.1,0,2.2,0,3.3,0
		C1559.2,440.2,1560.3,440.2,1561.4,440.2z M1502.3,440.2c0.9,0,1.3-0.5,1.3-1.4c0-2.4,0-4.8,0-7.2c0-0.9-0.5-1.3-1.3-1.3
		c-2.5,0-4.9,0-7.4,0c-1,0-1.5,0.5-1.5,1.5c0,2.3,0,4.6,0,6.9c0,1,0.5,1.5,1.5,1.5c1.3,0,2.5,0,3.8,0c0,0,0,0,0,0
		C1499.9,440.2,1501.1,440.2,1502.3,440.2z M2110.7,403c0,1,0,2.1,0,3.1c0.1,1.6,0.3,1.9,1.8,1.9c2.2,0.1,4.5,0.1,6.7,0
		c1.5,0,1.7-0.3,1.8-1.9c0.1-2.1,0.1-4.1,0-6.2c0-1.5-0.3-1.7-1.9-1.8c-1.1-0.1-2.2,0-3.3,0C2109.9,398.2,2110.8,397.5,2110.7,403z
		 M1538.5,438.7c0,1,0.5,1.5,1.5,1.5c2.3,0,4.6,0,7,0c0.8,0,1.4-0.4,1.4-1.3c0-2.4,0-4.8,0-7.2c0-0.8-0.5-1.3-1.4-1.4
		c-2.4,0-4.8,0-7.2,0c-0.9,0-1.3,0.6-1.3,1.4c0,1.2,0,2.4,0,3.6C1538.5,436.5,1538.5,437.6,1538.5,438.7z M1518.1,431.9
		c0-1.1-0.5-1.6-1.6-1.6c-2.2,0-4.5,0-6.7,0c-0.9,0-1.5,0.5-1.5,1.4c0,2.3,0,4.6,0,6.9c0,1,0.6,1.5,1.5,1.5c2.3,0,4.6,0,7,0
		c1,0,1.4-0.6,1.4-1.6c0-1.1,0-2.2,0-3.4C1518.1,434.1,1518,433,1518.1,431.9z M2096.2,406.3c0,1.2,0.5,1.8,1.7,1.8
		c2.2,0,4.3,0,6.5,0c1.2,0,1.8-0.5,1.8-1.7c0-2.2,0-4.3,0-6.5c0-1.2-0.5-1.8-1.7-1.8c-2.2,0-4.3-0.1-6.5,0c-1.5,0-1.7,0.3-1.8,1.9
		c0,0.2,0,0.3,0,0.5c0,0.9,0,1.8,0,2.6c0,0,0,0,0,0C2096.2,404.2,2096.2,405.3,2096.2,406.3z M1370,406.3c0,1.2,0.5,1.8,1.7,1.8
		c2.1,0,4.3,0,6.4,0c1.2,0,1.8-0.5,1.8-1.7c0-2.1,0-4.3,0-6.4c0-1.2-0.5-1.8-1.7-1.8c-2.1,0-4.3,0-6.4,0c-1.2,0-1.8,0.5-1.7,1.7
		c0,1.1,0,2.2,0,3.3C1370,404.2,1370.1,405.3,1370,406.3z M1357.2,398.1c-1.1,0-1.6,0.5-1.6,1.6c0,2.2,0,4.5,0,6.7
		c0,1.1,0.5,1.6,1.6,1.6c2.3,0,4.6,0,6.9,0c0.8,0,1.3-0.5,1.3-1.4c0-2.4,0-4.8,0-7.2c0-1-0.6-1.4-1.5-1.4c-1.1,0-2.2,0-3.3,0
		C1359.4,398.1,1358.3,398.1,1357.2,398.1z M1623,366.8c0,0.9,0.5,1.3,1.4,1.3c2.4,0,4.8,0,7.2,0c1,0,1.4-0.7,1.4-1.6
		c0-2.2,0-4.5,0-6.7c0-1.1-0.6-1.6-1.6-1.6c-2.2,0-4.5,0-6.7,0c-1.1,0-1.6,0.6-1.6,1.6c0,1.1,0,2.2,0,3.3c0,0,0,0,0,0
		C1623,364.4,1622.9,365.6,1623,366.8z M2395.3,366.7c0,1,0.5,1.5,1.5,1.5c2.3,0,4.6,0,6.9,0c1,0,1.4-0.6,1.4-1.5c0-2.3,0-4.6,0-6.9
		c0-1-0.5-1.5-1.5-1.5c-2.3,0-4.6,0-6.9,0c-1,0-1.4,0.6-1.4,1.5c0,1.1,0,2.2,0,3.3C2395.3,364.3,2395.3,365.5,2395.3,366.7z
		 M1639.8,366.5c0,1.1,0.5,1.6,1.6,1.6c2.2,0,4.5,0,6.7,0c1.1,0,1.7-0.5,1.7-1.6c0-2.2,0-4.5,0-6.7c0-1.1-0.5-1.6-1.6-1.7
		c-2.2,0-4.5,0-6.7,0c-1.1,0-1.6,0.5-1.6,1.6c0,1.1,0,2.2,0,3.3c0,0,0,0,0,0C1639.8,364.3,1639.8,365.4,1639.8,366.5z M2349.2,366.7
		c0,1,0.5,1.5,1.5,1.5c2.3,0,4.6,0,6.9,0c1.1,0,1.5-0.7,1.5-1.7c0-2.2,0-4.3,0-6.5c0-1.2-0.6-1.8-1.7-1.8c-2.2,0-4.5,0-6.7,0
		c-0.9,0-1.5,0.5-1.5,1.5c0,1.2,0,2.4,0,3.6c0,0,0,0,0,0C2349.2,364.4,2349.2,365.6,2349.2,366.7z M1610.7,372.8
		c-1.9,0.1-2.1,0.2-2.2,2c-0.1,2-0.1,4,0,6c0.1,1.5,0.4,1.8,1.9,1.9c2.1,0.1,4.2,0,6.2,0c1.2,0,1.8-0.5,1.8-1.7c0-2.2,0-4.3,0-6.5
		c0-1.2-0.5-1.8-1.7-1.7c-1,0-2.1,0-3.1,0c0,0,0,0,0,0C1612.6,372.7,1611.6,372.7,1610.7,372.8z M1624.7,372.8
		c-1.2,0-1.7,0.6-1.7,1.7c0,2.1,0,4.3,0,6.4c0,1.2,0.6,1.7,1.8,1.7c2.1,0,4.3,0,6.4,0c1.2,0,1.7-0.6,1.7-1.8c0-2.1,0-4.3,0-6.4
		c0-1.2-0.6-1.7-1.8-1.7c-1,0-2.1,0-3.1,0C1626.9,372.8,1625.8,372.8,1624.7,372.8z M1641.3,372.8c-1,0-1.5,0.5-1.5,1.4
		c0,2.3,0,4.6,0,6.9c0,1,0.5,1.5,1.5,1.5c2.3,0,4.6,0,6.9,0c0.9,0,1.5-0.5,1.5-1.5c0-2.3,0-4.6,0-6.9c0-1-0.5-1.5-1.5-1.5
		c-1.2,0-2.4,0-3.6,0C1643.5,372.8,1642.4,372.8,1641.3,372.8z M2350.7,372.8c-1,0-1.5,0.5-1.5,1.5c0,2.3,0,4.6,0,6.9
		c0,1,0.6,1.5,1.5,1.5c2.3,0,4.6,0,6.9,0c1,0,1.5-0.6,1.5-1.5c0-2.3,0-4.6,0-6.9c0-1-0.6-1.4-1.5-1.4c-1.2,0-2.4,0-3.6,0
		C2352.9,372.8,2351.8,372.8,2350.7,372.8z M2400,382.7c1.1,0,2.2,0,3.4,0c1.5-0.1,1.8-0.4,1.8-1.9c0.1-2.1,0-4.2,0-6.2
		c0-1.2-0.5-1.8-1.7-1.8c-2.2,0-4.3,0-6.5,0c-1.2,0-1.7,0.6-1.7,1.8c0,1.1,0,2.2,0,3.4C2395.3,383.1,2394.7,382.7,2400,382.7z
		 M1538.5,424.2c0,1.1,0.5,1.6,1.6,1.6c2.2,0,4.5,0,6.7,0c1,0,1.5-0.4,1.5-1.4c0-2.3,0-4.6,0-7c0-1-0.6-1.5-1.5-1.5
		c-2.3,0-4.6,0-6.9,0c-1,0-1.4,0.6-1.4,1.6c0,1.1,0,2.2,0,3.4C1538.5,421.9,1538.5,423,1538.5,424.2z M1516.5,425.7
		c1,0,1.5-0.4,1.5-1.4c0-2.3,0-4.6,0-7c0-1-0.5-1.5-1.5-1.5c-2.3,0-4.6,0-6.9,0c-0.8,0-1.4,0.5-1.4,1.3c0,2.4,0,4.8,0,7.2
		c0,0.9,0.5,1.3,1.4,1.3c1.2,0,2.4,0,3.6,0c0,0,0,0,0,0C1514.3,425.7,1515.4,425.7,1516.5,425.7z M1618.4,360c0-1.2-0.5-1.8-1.7-1.8
		c-2.1,0-4.3,0-6.4,0c-1.2,0-1.8,0.5-1.8,1.7c0,2.1,0,4.3,0,6.4c0,1.2,0.5,1.8,1.7,1.8c2.1,0,4.3,0,6.4,0c1.2,0,1.8-0.5,1.7-1.7
		c0-1.1,0-2.2,0-3.3C1618.4,362.1,1618.4,361.1,1618.4,360z M2270,331.8c1.5-0.1,1.7-0.4,1.3-1.8c-0.8-2.7-3.1-4.3-6.4-4.3
		c-3.3,0-5.7,1.5-6.5,4.2c-0.4,1.5-0.2,1.9,1.4,2c1.8,0.1,3.5,0,5.3,0c0,0,0,0,0,0C2266.7,331.8,2268.4,331.8,2270,331.8z
		 M1528.8,331.8c1.7-0.1,2.1-0.8,1.5-2.3c-0.1-0.4-0.3-0.7-0.6-1c-2.6-3.8-9-3.8-11.5,0c-0.3,0.4-0.5,0.8-0.6,1.3
		c-0.4,1.3,0,2,1.4,2.1c1.7,0.1,3.4,0,5,0c0,0,0,0,0,0C1525.6,331.8,1527.2,331.8,1528.8,331.8z M1991.1,443.3c-4,0-3.9-0.4-3.9,3.9
		c0,4.3-0.2,3.9,3.9,3.9c0.7,0,1.4,0,2.2,0c1.7-0.1,1.8-0.2,1.9-2c0-0.6,0-1.3,0-1.9C1995.2,442.9,1995.5,443.3,1991.1,443.3z
		 M1290.4,408.4c4.4,0,4,0.4,4-3.9c0-4.2,0.4-3.9-3.8-3.9c-4.4,0-4-0.4-4,4C1286.5,408.8,1286.2,408.4,1290.4,408.4z M1979.8,451.2
		c4.2,0,3.8,0.3,3.8-3.9c0-4.3,0.4-4-4-4c-4.2,0-3.8-0.3-3.8,3.9C1975.8,451.6,1975.5,451.2,1979.8,451.2z M1991.4,462.7
		c4,0,3.8,0.3,3.8-3.7c0-4.5,0.5-4.1-4.1-4.1c-3.9,0-3.8-0.4-3.8,3.7C1987.3,463.2,1987,462.7,1991.4,462.7z M1979.7,462.7
		c4.4,0,3.9,0.4,4-4c0-4.1,0.4-3.9-3.9-3.8c-4.3,0-3.9-0.3-4,4C1975.8,463.1,1975.5,462.7,1979.7,462.7z M1900.1,431.9
		c0-4.4,0.4-3.9-4-4c-4.2,0-3.8-0.3-3.8,3.9c0,4.3-0.4,3.9,4,4C1900.5,435.8,1900.1,436.1,1900.1,431.9z M2230.3,429.1
		c4.2,0,3.9,0.3,3.9-3.8c0-4.4,0.4-4-3.9-4c-4.2,0-3.9-0.3-3.9,3.8C2226.4,429.4,2226,429.1,2230.3,429.1z M1286.5,415.8
		c0,4-0.3,3.8,4,3.8c4.2,0,3.9,0.1,3.9-3.6c0-4.1,0.4-3.9-4.1-3.9C1286.2,412,1286.5,412,1286.5,415.8z M2218.9,421.3
		c-3.6,0-3.6-0.4-3.6,3.6c0,4.6-0.3,4.2,4,4.2c3.5,0,3.5,0,3.5-3.5c0-0.2,0-0.3,0-0.5C2222.8,420.8,2222.9,421.3,2218.9,421.3z
		 M2191.5,429.1c3.5,0,3.5,0,3.5-3.6c0-4.8,0.2-4.3-4.2-4.3c-3.3,0-3.3,0-3.3,3.2c0,0.2,0,0.5,0,0.7
		C2187.5,429.5,2187.2,429.1,2191.5,429.1z M2180.1,421.3c-3.9,0-3.8-0.4-3.8,3.9c0,4.4,0,3.9,3.9,3.9c3.8,0,3.7,0.3,3.7-3.6
		c0-0.2,0-0.3,0-0.5C2183.8,421,2184.1,421.2,2180.1,421.3z M1238.9,454.8c-3.9,0-3.9-0.4-3.9,3.9c0,4.4,0,3.9,3.9,3.9
		c3.7,0,3.8,0.4,3.8-3.8c0-0.1,0-0.2,0-0.2C1242.7,454.5,1242.7,454.8,1238.9,454.8z M1885.2,435.8c3.6,0,3.6,0,3.6-3.7
		c0-4.5,0.1-4.1-3.9-4.1c-3.9,0-3.6-0.2-3.6,3.8C1881.2,436.2,1880.9,435.8,1885.2,435.8z M1250.7,462.7c0.1,0,0.2,0,0.2,0
		c3.2,0,3.2,0,3.2-3.2c0-5.3,0.5-4.6-4.7-4.7c-0.4,0-0.8,0-1.2,0c-1.1,0-1.6,0.5-1.6,1.6c0,0.7,0,1.4,0,2.1
		C1246.5,463.2,1246.4,462.6,1250.7,462.7z M2226.4,386.2c0,3.7-0.4,3.7,3.9,3.7c4.5,0,4,0,4-4c0-3.5,0-3.5-3.5-3.5
		c-0.2,0-0.3,0-0.5,0C2226,382.4,2226.4,382.1,2226.4,386.2z M1301.7,408.4c4.1,0,3.8,0.3,3.8-4.2c0-4,0-3.7-3.6-3.7
		c-4.2,0-3.9-0.4-3.9,4.1C1298,408.8,1297.8,408.4,1301.7,408.4z M2031.4,408.4c3.9,0,3.7,0.3,3.7-3.8c0-4.6,0.2-4-4.2-4.1
		c-0.2,0-0.5,0-0.7,0c-2.6,0-2.6,0.1-2.7,2.7c0,0.5,0,1,0,1.4C2027.5,408.9,2027.5,408.4,2031.4,408.4z M2042.5,408.4
		c3.8,0,3.7,0.3,3.7-4c0-4.2,0-3.8-3.7-3.8c-4.1,0-3.8-0.3-3.8,3.9C2038.7,408.8,2038.4,408.4,2042.5,408.4z M1242.7,447.5
		c0-4.7,0.2-4.2-4.3-4.2c-3.3,0-3.3,0-3.3,3.3c0,0.9,0,1.8,0,2.6c0.1,1.7,0.3,1.9,2,1.9c0.6,0,1.3,0,1.9,0
		C1242.7,451.2,1242.7,451.2,1242.7,447.5z M1250.2,443.3c-3.7,0-3.7,0-3.7,3.6c0,4.7-0.2,4.2,4.1,4.2c3.5,0,3.5,0,3.5-3.5
		c0-0.2,0-0.3,0-0.5C1254.1,442.9,1254.3,443.3,1250.2,443.3z M1933.8,383.3c-3.6,0-3.7-0.4-3.7,3.8c0,4.5-0.1,4,4,4
		c3.6,0,3.5,0.2,3.5-3.5c0-0.2,0-0.3,0-0.5C1937.6,383,1937.9,383.3,1933.8,383.3z M1172,434.4c0-3.7,0-3.7-3.7-3.7
		c-4.6,0-4.2-0.2-4.2,4.1c0,3.5,0,3.5,3.6,3.5c0.2,0,0.3,0,0.5,0C1172.4,438.3,1172,438.4,1172,434.4z M1922.6,391.2
		c3.6,0,3.6,0,3.6-3.5c0-1,0-1.9,0-2.9c0-0.9-0.5-1.5-1.5-1.5c-1.5,0-3,0-4.5,0c-1,0-1.5,0.5-1.5,1.5c0,0.8,0,1.6,0,2.4
		C1918.7,391.5,1918.3,391.2,1922.6,391.2z M2226.4,436.4c0,4.1-0.3,3.8,4.2,3.8c4,0,3.7,0,3.7-3.6c0-4.1,0.4-3.9-4.1-3.9
		C2226,432.7,2226.4,432.6,2226.4,436.4z M1193.1,391.2c3.5,0,3.5,0,3.5-3.6c0-4.8,0.2-4.2-4.2-4.3c-3.3,0-3.3,0-3.3,3.2
		c0,0.2,0,0.5,0,0.7C1189.1,391.6,1188.8,391.1,1193.1,391.2z M1181.8,391.2c3.9,0,3.7,0.3,3.7-3.8c0-4.4,0.3-4-4-4
		c-3.5,0-3.5,0-3.5,3.4c0,0.2,0,0.5,0,0.7C1178,391.5,1177.9,391.2,1181.8,391.2z M2230.3,401.3c4.4,0,3.9,0.3,3.9-4
		c0-3.5,0-3.5-3.5-3.5c-0.6,0-1.1,0-1.7,0c-2.5,0-2.6,0.1-2.6,2.5c0,0.4,0,0.8,0,1.2C2226.4,401.6,2226,401.3,2230.3,401.3z
		 M1892.3,443.2c0,4-0.3,3.8,4,3.8c4.2,0,3.9,0.1,3.9-3.6c0-4.1,0.4-3.9-4.1-3.9C1891.9,439.4,1892.3,439.3,1892.3,443.2z
		 M1885.2,446.9c3.6,0,3.6,0,3.6-3.5c0-4,0-4-3.9-4c-4,0-3.6,0-3.7,3.7C1881.2,447.1,1880.9,446.9,1885.2,446.9z M1934.1,394.8
		c-4.2,0-4-0.2-4,4.1c0,0.2,0,0.5,0,0.7c0,2.5,0.2,2.7,2.8,2.7c0.2,0,0.5,0,0.7,0c4.4,0,4,0.2,4.1-4
		C1937.6,394.8,1937.6,394.8,1934.1,394.8z M2183.8,397.5c0-3.7,0.3-3.8-3.9-3.7c-3.7,0-3.7,0-3.7,3.7c0,3.8,0,3.8,3.8,3.8
		C2184.1,401.3,2183.8,401.5,2183.8,397.5z M2195,397.5c0-3.7,0-3.7-3.7-3.7c-4.2,0-3.8,0-3.8,3.7c0,4-0.3,3.8,3.7,3.8
		C2195,401.3,2195,401.6,2195,397.5z M2222.8,397.5c0-3.8,0-3.8-3.8-3.8c-3.7,0-3.7,0-3.7,3.7c0,4.1-0.2,3.8,3.7,3.8
		C2222.9,401.3,2222.8,401.6,2222.8,397.5z M2180.2,440.2c3.9,0,3.6,0,3.6-3.7c0-3.9,0.4-3.9-3.7-3.8c-0.1,0-0.2,0-0.2,0
		c-3.6,0-3.6,0-3.6,3.6C2176.3,440.2,2176.3,440.2,2180.2,440.2z M2191.4,440.2c3.6,0,3.6,0,3.6-3.5c0-4,0-4-3.9-4
		c-4,0-3.6,0-3.7,3.7C2187.5,440.4,2187.1,440.2,2191.4,440.2z M2219.1,440.2c3.7,0,3.7,0,3.7-3.6c0-4.1,0.2-3.9-3.9-3.9
		c-3.6,0-3.6,0-3.6,3.8C2215.3,440.2,2215.3,440.2,2219.1,440.2z M1157.2,434.5c0-3.8,0-3.8-3.8-3.8c-3.8,0-3.8,0-3.8,3.8
		c0,3.8,0,3.8,3.8,3.8C1157.2,438.3,1157.2,438.3,1157.2,434.5z M1922.4,402.3c3.8,0,3.8,0,3.8-3.8c0-3.7,0-3.7-3.7-3.7
		c-4.1,0-3.8-0.2-3.8,3.7C1918.7,402.4,1918.3,402.3,1922.4,402.3z M1192.9,402.3c3.7,0,3.7,0,3.7-3.7c0-3.9,0-3.9-4-3.9
		c-3.5,0-3.5,0-3.5,3.8C1189.1,402.4,1188.8,402.3,1192.9,402.3z M1181.7,394.8c-3.7,0-3.7,0-3.7,3.6c0,4.1-0.2,3.9,3.9,3.9
		c3.5,0,3.5,0,3.5-3.8C1185.4,394.6,1185.7,394.8,1181.7,394.8z M2180.1,382.3c-3.8,0-3.8,0-3.8,3.8c0,3.7,0,3.7,3.7,3.7
		c0.1,0,0.2,0,0.2,0c3.6,0,3.6,0,3.6-3.7C2183.8,382.1,2184.1,382.3,2180.1,382.3z M2191.3,389.9c3.7,0,3.7,0,3.7-3.7
		c0-3.8,0-3.8-3.8-3.8c-4,0-3.8-0.3-3.8,3.8C2187.5,389.9,2187.1,389.9,2191.3,389.9z M2219.1,389.9c3.7,0,3.7,0,3.7-3.7
		c0-4.2,0.1-3.8-4-3.8c-3.6,0-3.6,0-3.6,3.7C2215.3,389.9,2215.3,389.9,2219.1,389.9z M2042.5,419.6c3.7,0,3.7,0,3.7-3.7
		c0-3.9,0-3.9-3.8-3.9c-4.1,0-3.8-0.1-3.8,3.8C2038.7,419.7,2038.4,419.6,2042.5,419.6z M2035.1,415.8c0-3.7,0-3.7-3.6-3.7
		c-4.1,0-3.9-0.2-3.9,3.9c0,3.6,0,3.6,3.8,3.6C2035.1,419.6,2035.1,419.6,2035.1,415.8z M1301.7,412c-3.7,0-3.7,0-3.7,3.6
		c0,4.1-0.2,3.9,3.9,3.9c3.6,0,3.6,0,3.6-3.8C1305.5,412,1305.5,412,1301.7,412z"/>
	<path class="st0" d="M2077.6,323.8c2.4,0,4.8,0,7.2,0c0.5,0,1.2,0.1,1.5-0.5c0.3-0.7-0.2-1.2-0.6-1.7c-1.5-1.7-3.5-2.5-5.7-2.8
		c-3.1-0.4-6.2-0.3-9,1.4c-0.9,0.5-1.7,1.2-2.2,2.1c-0.5,0.9-0.2,1.4,0.8,1.4c1.8,0.1,3.5,0,5.3,0.1
		C2075.7,323.8,2076.6,323.8,2077.6,323.8C2077.6,323.8,2077.6,323.8,2077.6,323.8z"/>
	<path class="st0" d="M1336.7,323.8c2.4,0,4.8,0,7.2,0c0.6,0,1.4,0.2,1.6-0.6c0.2-0.7-0.3-1.2-0.8-1.6c-1.4-1.5-3.3-2.3-5.2-2.6
		c-2.8-0.5-5.5-0.4-8.2,0.7c-1.2,0.5-2.3,1.2-3.1,2.2c-0.3,0.4-0.8,0.9-0.6,1.5c0.3,0.7,0.9,0.5,1.4,0.5c1.9,0,3.8,0,5.7,0
		C1335.5,323.8,1336.1,323.8,1336.7,323.8C1336.7,323.8,1336.7,323.8,1336.7,323.8z"/>
</g>
</svg>
