<?xml version="1.0" encoding="utf-8"?>
<!-- Generator: Adobe Illustrator 26.0.2, SVG Export Plug-In . SVG Version: 6.00 Build 0)  -->
<svg version="1.1" id="Layer_1" xmlns="http://www.w3.org/2000/svg" xmlns:xlink="http://www.w3.org/1999/xlink" x="0px" y="0px"
	 viewBox="0 0 600 600" style="enable-background:new 0 0 600 600;" xml:space="preserve">
<style type="text/css">
	.st0{display:none;}
	.st1{display:inline;fill:none;stroke:#00DF8D;stroke-width:5;stroke-linecap:square;stroke-miterlimit:10;}
	.st2{fill:none;stroke:#65D19A;stroke-width:20;stroke-linecap:round;stroke-miterlimit:10;}
	.st3{display:inline;fill:none;stroke:#00DF8D;stroke-width:5;stroke-miterlimit:10;}
</style>
<g id="_x34_" class="st0">
	<polyline class="st1" points="569.8,213.1 569.8,511.8 29.4,511.8 29.4,162.9 569.8,162.9 	"/>
	<polyline class="st1" points="308,162.9 308,88.9 455.7,88.9 455.7,125.9 	"/>
	<rect x="90.4" y="121" class="st1" width="64.8" height="41.9"/>
	<circle class="st1" cx="122.8" cy="247.3" r="28.4"/>
	<circle class="st1" cx="381.8" cy="337.3" r="134"/>
	<circle class="st1" cx="381.8" cy="337.3" r="90.1"/>
	<path class="st1" d="M381.8,302c-19.5,0-35.3,15.8-35.3,35.3c0,19.5,15.8,35.3,35.3,35.3c14,0,26-8.1,31.8-19.9
		c2.3-4.7,3.6-9.9,3.6-15.5"/>
	<line class="st1" x1="346.5" y1="125.9" x2="417.2" y2="125.9"/>
	<line class="st1" x1="111.1" y1="319.2" x2="134.5" y2="319.2"/>
</g>
<g id="_x31_2">
	<rect x="37.3" y="98.4" class="st2" width="522.7" height="417.8"/>
	<line class="st2" x1="37.3" y1="156.1" x2="504.6" y2="156.1"/>
	<line class="st2" x1="70.1" y1="128.1" x2="88.9" y2="128.1"/>
	<line class="st2" x1="127.8" y1="128.1" x2="146.6" y2="128.1"/>
	<line class="st2" x1="185.5" y1="128.1" x2="204.3" y2="128.1"/>
	<polyline class="st2" points="467.5,307.8 92.7,307.8 92.7,206.3 504.6,206.3 504.6,307.8 	"/>
	<rect x="92.7" y="351.8" class="st2" width="102.9" height="47"/>
	<rect x="247.2" y="351.8" class="st2" width="102.9" height="47"/>
	<rect x="401.7" y="351.8" class="st2" width="102.9" height="47"/>
	<line class="st2" x1="92.7" y1="432.7" x2="195.6" y2="432.7"/>
	<line class="st2" x1="92.7" y1="466.6" x2="145.5" y2="466.6"/>
	<line class="st2" x1="247.2" y1="432.7" x2="350.1" y2="432.7"/>
	<line class="st2" x1="247.2" y1="466.6" x2="300" y2="466.6"/>
	<line class="st2" x1="401.7" y1="432.7" x2="504.6" y2="432.7"/>
	<line class="st2" x1="401.7" y1="466.6" x2="454.5" y2="466.6"/>
</g>
<g id="_x35_" class="st0">
	<path class="st3" d="M454,115.4c-45.5-19-104.6-22.3-178.3-4.2c-165.7,40.6-273.2,183-240.2,318c8.8,35.8,26.6,67.5,51.1,94
		c69,74.5,190.3,63.2,247.4-20.7c21.1-31,50.2-58.7,85.3-80.4c9.3-5.7,19-11,29-15.9"/>
	<path class="st3" d="M254.2,442.5c0,29.2-23.6,52.8-52.8,52.8s-52.8-23.6-52.8-52.8c0-29.2,23.6-52.8,52.8-52.8
		S254.2,413.4,254.2,442.5z"/>
	<path class="st3" d="M208.7,301.1c-1.3,18.8-22.5,32.6-47.2,30.8c-24.7-1.8-43.7-18.4-42.4-37.2c1.3-18.8,22.5-32.6,47.2-30.8
		C191.1,265.7,210.1,282.4,208.7,301.1z"/>
	<path class="st3" d="M305.5,225.4c-6.5,17.7-30.6,25.1-53.9,16.6c-23.3-8.5-36.9-29.7-30.5-47.4c6.5-17.7,30.6-25.1,53.9-16.6
		C298.3,186.5,312,207.7,305.5,225.4z"/>
	<path class="st3" d="M377.6,210.1c-15.9-11-23.6-28.3-17.8-42.8c7.2-17.4,31.6-23.9,54.5-14.5c6.4,2.6,12.1,6.3,16.7,10.5"/>
	<path class="st3" d="M528.1,117.4l35.4-59.3c10.6-18.1,4-41.4-14.5-51.3l0,0c-18.5-9.9-41.5-2.6-50.8,16.3L378.6,272.9l44.3,23.8
		l73.4-124.5l12.3-20.9c26.1,25.4,44.2,58.9,54.9,97.8c0.1,0.3,30.7,105.2-49.7,133.6c-11.6,2.9-23,6.3-34.1,10.2"/>
	<path class="st3" d="M338.2,340c-0.2-12.3,0-24,8.1-35.7c14.8-21.5,41.9-28.7,60.5-15.9c18.6,12.8,21.6,40.6,6.8,62.1
		c-14.8,21.5-46.8,42.3-86.8,38.8c7.1-10.3,9.9-19.9,11-29"/>
</g>
</svg>
